<svg id="Layer_1" data-name="Layer 1" xmlns="http://www.w3.org/2000/svg" viewBox="0 0 1920 1050.98"><defs><style>.cls-1,.cls-18{fill:#fc9;}.cls-2{fill:#f96;}.cls-3{fill:#ff7900;}.cls-15,.cls-4{fill:#c60;}.cls-4{opacity:0.56;}.cls-17,.cls-5{fill:#cc742b;}.cls-6{fill:#696;}.cls-7{fill:#82b378;}.cls-8{fill:#339;}.cls-9{fill:#ea9e6a;}.cls-10{fill:#d88d59;}.cls-11{fill:#f2aa79;}.cls-12{fill:#336;}.cls-13{fill:#233862;}.cls-14{fill:#ffb069;}.cls-16{fill:#ffbd7b;}.cls-17{opacity:0.55;}.cls-18{font-size:209.75px;font-family:MyriadPro-Regular, Myriad Pro;}.cls-19{fill:#c63;}</style></defs><title>Untitled-1</title><path class="cls-1" d="M1877.82,977.59l-1591.53,77C85.9,1064.28-57.54,862.07,19.5,676.83q1.09-2.62,2.16-5.13C75.29,546.28,188.81,429.61,425.87,432c509.33,5,470.24-271.3,826.77-289,145.2-7.2,233.73,123.19,207.62,309.48-42.56,303.65,418.4,102.61,457.84,477.94A42.66,42.66,0,0,1,1877.82,977.59Z" transform="translate(1.66 -3.94)"/><path class="cls-2" d="M670.36,253.61h150.1A24.43,24.43,0,0,1,844.89,278V410.23a24.43,24.43,0,0,1-24.43,24.43H670.36a24.43,24.43,0,0,1-24.43-24.43V278A24.44,24.44,0,0,1,670.36,253.61Z"/><polygon class="cls-1" points="665.19 306.08 802.77 294.2 730.91 340.88 665.19 306.08"/><polygon class="cls-3" points="735.63 414.87 802.77 294.2 730.77 340.66 735.63 414.87"/><path class="cls-4" d="M930.69,455.16H818.3s-49.82,3.37-31.94,87S863,795.41,845.13,846.69H970.34Z" transform="translate(1.66 -3.94)"/><path class="cls-5" d="M1184.58,761.34c-14.88-73.05-38.83-196.26-51.53-261.9a54.67,54.67,0,0,0-53.68-44.28H902.58a54.68,54.68,0,0,0-53.87,64l49,282.18a54.67,54.67,0,0,0,59.86,45L1137,826.59A54.66,54.66,0,0,0,1184.58,761.34Z" transform="translate(1.66 -3.94)"/><path class="cls-6" d="M503.45,841.83S612,781.06,561.32,698.6c0,0-40.51-50.63-83.91-63.65,0,0,23.14,123,0,125.86s-15.92-138.88-15.92-138.88S347.2,567,302.36,571.29c0,0,70.88,120.08,47.74,117.18S247.38,564.06,247.38,564.06s-117.18-21.7-136,47.74S123,716,140.32,720.3s128.76,2.9,125.87,17.36-78.12,37.62-120.08,24.6c0,0,46.29,114.29,107.06,108.5s79.57-43.4,117.18-46.29,65.1,7.23,46.3,17.36S334.18,845.14,303.8,871s-55,41.74,1.45,53.32,157.69,4.34,177.94-39.06Z" transform="translate(1.66 -3.94)"/><path class="cls-7" d="M164.92,633.5s303.81,98.38,338.53,208.33c0,0-1.45,49.18,28.93,105.61v21.7s-31.83-73.79-49.19-83.91C483.19,885.23,551.19,789.74,164.92,633.5Z" transform="translate(1.66 -3.94)"/><path class="cls-7" d="M560.53,1041.14l-17.34,1c-.55-25.11-3.47-54.31-12-75.79h0c-1.08-2.69-2.23-5.27-3.49-7.73a.3.3,0,0,0,0-.08c-3.6-7-6-12.25-7.57-16h0c-8.89-21.78,12.34,5,12.34,5S557.84,986.11,560.53,1041.14Z" transform="translate(1.66 -3.94)"/><path class="cls-8" d="M1229.92,532.31l29.33,308.37s-33.32,35.58-165.22,47.78c-3.29.32-6.63.63-10.06.89-75.71,6.12-103.81-91.55-113.64-182.72-8.39-77.74-3.49-150.76-3.49-150.76C1143.58,481.46,1229.92,532.31,1229.92,532.31Z" transform="translate(1.66 -3.94)"/><path class="cls-8" d="M1517.73,777.59c-26.18,12.15-181.91,22.35-196.86,18-7.67-2.22-39.78-30.5-72.08-65.28l0,0c-30.56-32.91-61.38-71.64-71.78-99.51-21.37-57.28-3-108.13-3-108.13s39.74-.17,55.94,9.61,108.81,180.37,121.19,184.87,159.1,12.91,175.89,20.89C1527,738.07,1543.89,765.44,1517.73,777.59Z" transform="translate(1.66 -3.94)"/><path class="cls-9" d="M1138,522.32l0,9.64s2.67,30.15-34.46,34.62-65.28-11.66-64.31-34.94c3.32-18,7-30.4,7.19-45.31a104.51,104.51,0,0,0-1.34-18.06l72-1.55,21.2,3.44Z" transform="translate(1.66 -3.94)"/><path class="cls-10" d="M1138.22,470.16l-.19,52.16a60.88,60.88,0,0,1-25.93,5.76c-33.07,0-66-53.17-67-59.81Z" transform="translate(1.66 -3.94)"/><path class="cls-11" d="M1142.46,495.5s-92.13,18.75-102.93-38.8-30-93.89,28.4-108.31,74,5.4,82.23,23.74S1166.15,489.13,1142.46,495.5Z" transform="translate(1.66 -3.94)"/><path class="cls-12" d="M1168,329.33s-25.7-1.94-56-15.07c-24.62-10.66-55.64,1.17-65.71,6.49a14.93,14.93,0,0,1,2.45-6.06s-4.52,3.21-5.18,7.7c-.47.34-.67.58-.55.66s-5.13-.93-8.43.55c0,0,2.31-.33,3.14,1.15a1.19,1.19,0,0,0,.37.41c-38.36,18.6-41.8,79.26-29.43,93.28,14.88,16.86,32.76,54.86,32.76,54.86s6.48-9,3.76-23.85,10.1-14.87,26.3-21.65,2.67-25.67,16.83-37.18,66.18-4.83,65.49-13.61C1173.08,370,1168,331.31,1168,329.33Z" transform="translate(1.66 -3.94)"/><path class="cls-12" d="M1094,888.46c-3.29.32-6.63.63-10.06.89-75.71,6.12-103.81-91.55-113.64-182.72C979.48,711.14,1103.59,774.3,1094,888.46Z" transform="translate(1.66 -3.94)"/><path class="cls-9" d="M1026.87,803.39s26.69-17.33,35.53-15.75,45,12.19,49.93,18.1c7.75,9.21,21.42,23.85,13.63,25.4s-76.52,5-84.44,4.33S1015.13,827.07,1026.87,803.39Z" transform="translate(1.66 -3.94)"/><path class="cls-8" d="M999.26,545.19s-55.72,12.47-83.61,44.5c-25.36,29.12-98.8,171.29-119,222.43-3.22,8.14,5.85,25.86,13.14,30.72,18.25,12.15,55.84,21,148.82,5.63l83.12-12.12s6.07-37.34-12-45.13l-134.6-1.86s77.1-79.79,92-102.73S999.26,545.19,999.26,545.19Z" transform="translate(1.66 -3.94)"/><path class="cls-13" d="M1517.73,777.59c-26.18,12.15-181.91,22.35-196.86,18-7.67-2.22-39.78-30.5-72.08-65.28,1.6.21,52.41,7.44,83.72,34.51,0,0,17.63,7.84,65.64,3.45S1507.79,762.31,1517.73,777.59Z" transform="translate(1.66 -3.94)"/><path class="cls-3" d="M1008.51,540s-58.3,13-77.44,29.17-15.42,20.52-15.42,20.52,7.35,11.16,37-1.09,68.44-36.47,68.44-36.47S1019.9,540.32,1008.51,540Z" transform="translate(1.66 -3.94)"/><path class="cls-3" d="M1149.06,515.42s3.51,8.47,8.82,9.62,58.16,15.39,65.1,11.33-12.45-20.59-40.3-21.77S1149.06,515.42,1149.06,515.42Z" transform="translate(1.66 -3.94)"/><path class="cls-3" d="M1364.75,819.93h-178a14.19,14.19,0,0,1,14.19-14.19h163.83Z" transform="translate(1.66 -3.94)"/><polygon class="cls-3" points="1365.9 622.11 1641.13 622.11 1575.11 815.99 1298.09 815.99 1365.9 622.11"/><polygon class="cls-14" points="1645.18 622.1 1579.17 815.99 1302.15 815.99 1369.95 622.1 1645.18 622.1"/><path class="cls-3" d="M1495.13,721.19c-1.7,7.41-9.1,13.42-16.51,13.42s-12-6-10.31-13.42,9.1-13.41,16.51-13.41S1496.85,713.78,1495.13,721.19Z" transform="translate(1.66 -3.94)"/><polygon class="cls-3" points="1645.18 622.1 1579.17 815.99 1450.3 815.99 1604.65 622.1 1645.18 622.1"/><path class="cls-15" d="M1707.4,975.52,562.19,1041.15l67.12-144.64a116.06,116.06,0,0,1,109.15-76.58H1602a80.67,80.67,0,0,1,77.53,58.4Z" transform="translate(1.66 -3.94)"/><path class="cls-16" d="M1880.63,975.52,861.09,1027.19,859,935.67A110,110,0,0,1,968.9,819.93h854.16a80.64,80.64,0,0,1,77.52,58.4l14.7,51.2A36,36,0,0,1,1880.63,975.52Z" transform="translate(1.66 -3.94)"/><path class="cls-17" d="M1880.28,975.52l-603.11,31C1241,943.64,1207.45,856,1185.69,819.93h637.37a80.64,80.64,0,0,1,77.52,58.4l14.6,50.87A36.31,36.31,0,0,1,1880.28,975.52Z" transform="translate(1.66 -3.94)"/><rect class="cls-3" x="944.02" y="5.99" width="212.17" height="193.05" rx="6.56"/><text class="cls-18" transform="translate(1002.58 175.56)">?</text><path class="cls-3" d="M1058.32,298.32a3.26,3.26,0,1,0,1.72,4.27A3.25,3.25,0,0,0,1058.32,298.32Z" transform="translate(1.66 -3.94)"/><path class="cls-3" d="M1034.8,271.38a6.17,6.17,0,1,0,3.27,8.09A6.16,6.16,0,0,0,1034.8,271.38Z" transform="translate(1.66 -3.94)"/><path class="cls-3" d="M1020.42,226.82a9.8,9.8,0,1,0,5.19,12.85A9.79,9.79,0,0,0,1020.42,226.82Z" transform="translate(1.66 -3.94)"/><path class="cls-19" d="M1494,259.2H1235.51a13,13,0,0,0-12.92,12.93V403.24a13,13,0,0,0,12.92,12.92h21.86l-10.56,44.57,66.24-44.57H1494a13,13,0,0,0,12.93-12.92V272.13A13,13,0,0,0,1494,259.2Z" transform="translate(1.66 -3.94)"/><path class="cls-2" d="M1479.18,317.63H1250.85a5.66,5.66,0,0,0-5.65,5.65h0a5.67,5.67,0,0,0,5.65,5.66h228.33a5.68,5.68,0,0,0,5.66-5.66h0A5.67,5.67,0,0,0,1479.18,317.63Z" transform="translate(1.66 -3.94)"/><path class="cls-2" d="M1479.18,342.94H1250.85a5.66,5.66,0,0,0,0,11.31h228.33a5.66,5.66,0,1,0,0-11.31Z" transform="translate(1.66 -3.94)"/><path class="cls-2" d="M1479.18,368.25H1250.85a5.66,5.66,0,0,0,0,11.31h228.33a5.66,5.66,0,1,0,0-11.31Z" transform="translate(1.66 -3.94)"/><path class="cls-2" d="M1257.85,289.63h96.94a6.74,6.74,0,0,0,0-13.47h-96.94a6.74,6.74,0,0,0,0,13.47Z" transform="translate(1.66 -3.94)"/><rect class="cls-2" x="1376.1" y="272.22" width="68.97" height="13.46" rx="5.32"/><polygon class="cls-3" points="1701.99 199.22 1918.47 211.3 1761.66 107.36 1759.87 147.13 1710.11 165.31 1701.99 199.22"/><polygon class="cls-1" points="1918.47 211.3 1726.91 118.01 1553.12 128.36 1918.47 211.3"/><polygon class="cls-1" points="1761.66 107.36 1918.47 211.3 1783.97 35.14 1761.66 107.36"/></svg>