<svg id="Layer_1" data-name="Layer 1" xmlns="http://www.w3.org/2000/svg" xmlns:xlink="http://www.w3.org/1999/xlink" viewBox="0 0 1666.87 1190.87"><defs><style>.cls-1{fill:none;}.cls-2{fill:#fc9;}.cls-3{clip-path:url(#clip-path);}.cls-4{fill:#ee9849;}.cls-5{fill:#e58638;}.cls-6{fill:#ce6d25;}.cls-7{fill:#f2aa79;}.cls-8{fill:#d38957;}.cls-9{fill:#2f5791;}.cls-10{fill:#b74b42;}.cls-11{fill:#e49963;}.cls-12{fill:#c65447;}.cls-13{fill:#365da4;}.cls-14{fill:#163560;}.cls-15{fill:#d68d5d;}.cls-16{fill:#c45446;}.cls-17,.cls-23{fill:#e37970;}.cls-18{fill:#466aa5;}.cls-19{fill:#699dee;}.cls-20{fill:#3b76ca;}.cls-21{fill:#c60;}.cls-22{fill:#dde3f2;}.cls-23{opacity:0.2;}.cls-24{fill:#ff7900;}</style><clipPath id="clip-path" transform="translate(-112.57 -0.01)"><path class="cls-1" d="M560.59,1024.36c108.68,53.7,286.34,68.84,487.66,44.09,324.52-39.87,619.74-172.59,680.84-241.22,46.93-52.55,57.72-115.8,46-182.55-17.19-98-233.42-564-657.46-634.76C964.37-15.64,761.83.65,539.25,150.25c-141.1,94.22-191.43,227-196.56,364C335.76,691.25,418,954,560.59,1024.36Z"/></clipPath></defs><title>2</title><path class="cls-2" d="M560.59,1024.36c108.68,53.7,286.34,68.84,487.66,44.09,324.52-39.87,619.74-172.59,680.84-241.22,46.93-52.55,57.72-115.8,46-182.55-17.19-98-233.42-564-657.46-634.76C964.37-15.64,761.83.65,539.25,150.25c-141.1,94.22-191.43,227-196.56,364C335.76,691.25,418,954,560.59,1024.36Z" transform="translate(-112.57 -0.01)"/><g class="cls-3"><path class="cls-4" d="M363,895.65h-.08c-3,0-5.46-2.25-5.42-4.95,3.09-191.67-71-339-71.78-340.5-1.25-2.45-1-7.93,7-8.63,7-.61,11.31.92,12.56,3.37.19.37,16.73,35.44,35.09,96.4,16.93,56.2,29.78,148.23,28.15,249.5C368.48,893.51,366,895.65,363,895.65Z" transform="translate(-112.57 -0.01)"/><path class="cls-4" d="M528.31,895.65h-.08c-3,0-5.46-2.25-5.42-4.95,3.09-191.67-71-339-71.78-340.5-1.25-2.45-1-7.93,7-8.63,7-.61,11.32.92,12.57,3.37.19.37,16.73,35.44,35.09,96.4,16.93,56.2,29.78,148.23,28.15,249.5C533.77,893.51,531.31,895.65,528.31,895.65Z" transform="translate(-112.57 -0.01)"/><path class="cls-4" d="M314.08,609.06a5.35,5.35,0,0,1-5.41-4.06c-.52-2.65,1.5-5.17,4.49-5.62,4.76-.72,117.17-17.51,167.49-3.5,2.9.8,4.51,3.54,3.6,6.1a5.66,5.66,0,0,1-6.89,3.2C429.57,591.88,316.15,608.81,315,609A7.28,7.28,0,0,1,314.08,609.06Z" transform="translate(-112.57 -0.01)"/><path class="cls-4" d="M326.93,641.34a5.35,5.35,0,0,1-5.41-4.06c-.52-2.65,1.5-5.17,4.49-5.62,4.76-.72,117.17-17.51,167.49-3.5,2.9.8,4.51,3.54,3.6,6.11a5.65,5.65,0,0,1-6.89,3.18c-47.81-13.3-161.21,3.64-162.35,3.82A7.28,7.28,0,0,1,326.93,641.34Z" transform="translate(-112.57 -0.01)"/><path class="cls-4" d="M356.42,895.65H695.16s-7.89-32.73-204.06-27.85C352.27,871.25,356.42,895.65,356.42,895.65Z" transform="translate(-112.57 -0.01)"/><path class="cls-5" d="M328.85,1189.54C368.13,1014.72,358,907.45,358,906.1c-.1-2.7,5.54-5.14,8.57-5.23s16.63-.79,18.2,1.51c2.06,3,10,135.19-48.57,287.16Z" transform="translate(-112.57 -0.01)"/><path class="cls-5" d="M616.42,1189.54c-39.28-174.82-29.18-282.09-29.13-283.44.1-2.7-5.54-5.14-8.58-5.23s-16.63-.79-18.2,1.51c-2,3-10,135.19,48.57,287.16Z" transform="translate(-112.57 -0.01)"/><path class="cls-6" d="M707.81,1189.54c-39.28-174.82-29.18-282.09-29.13-283.44.1-2.7-5.54-5.14-8.58-5.23s-16.63-.79-18.2,1.51c-2,3-10,135.19,48.58,287.16Z" transform="translate(-112.57 -0.01)"/><path class="cls-6" d="M428.29,1189.54c39.28-174.82,29.18-282.09,29.13-283.44-.1-2.7,5.54-5.14,8.58-5.23s16.63-.79,18.2,1.51c2.05,3,10,135.19-48.57,287.16Z" transform="translate(-112.57 -0.01)"/><path class="cls-5" d="M697.08,906.1H354.91a5.24,5.24,0,0,1-5.23-5.23h0a5.24,5.24,0,0,1,5.23-5.22H697.08a5.24,5.24,0,0,1,5.22,5.22h0A5.24,5.24,0,0,1,697.08,906.1Z" transform="translate(-112.57 -0.01)"/><path class="cls-4" d="M1690.18,897h.08c3,0,5.46-2.25,5.42-4.94-3.09-191.67,71-339,71.78-340.5,1.25-2.46,1-7.93-7-8.63-7-.61-11.32.91-12.57,3.36-.19.38-16.73,35.45-35.09,96.4-16.93,56.21-29.78,148.23-28.15,249.51C1684.72,894.85,1687.18,897,1690.18,897Z" transform="translate(-112.57 -0.01)"/><path class="cls-4" d="M1524.89,897h.08c3,0,5.46-2.25,5.42-4.94-3.09-191.67,71-339,71.78-340.5,1.25-2.46,1-7.93-7-8.63-7-.61-11.32.91-12.57,3.36-.19.38-16.73,35.45-35.09,96.4-16.93,56.21-29.78,148.23-28.15,249.51C1519.43,894.85,1521.89,897,1524.89,897Z" transform="translate(-112.57 -0.01)"/><path class="cls-4" d="M1739.12,610.39a5.35,5.35,0,0,0,5.41-4c.51-2.65-1.5-5.17-4.49-5.63-4.76-.72-117.17-17.5-167.49-3.5-2.9.81-4.51,3.54-3.6,6.11a5.65,5.65,0,0,0,6.89,3.19c47.79-13.29,161.21,3.64,162.35,3.81A5.82,5.82,0,0,0,1739.12,610.39Z" transform="translate(-112.57 -0.01)"/><path class="cls-4" d="M1726.27,642.67a5.35,5.35,0,0,0,5.41-4c.52-2.65-1.49-5.17-4.49-5.63-4.76-.72-117.17-17.5-167.49-3.5-2.9.81-4.51,3.54-3.6,6.11a5.64,5.64,0,0,0,6.89,3.19c47.82-13.3,161.21,3.64,162.35,3.81A5.82,5.82,0,0,0,1726.27,642.67Z" transform="translate(-112.57 -0.01)"/><path class="cls-4" d="M1696.78,897H1358s7.89-32.73,204.06-27.85C1700.93,872.58,1696.78,897,1696.78,897Z" transform="translate(-112.57 -0.01)"/><path class="cls-5" d="M1724.35,1190.88c-39.27-174.82-29.18-282.1-29.13-283.45.1-2.69-5.54-5.13-8.58-5.22s-16.62-.79-18.19,1.51c-2.06,3-10,135.19,48.57,287.16Z" transform="translate(-112.57 -0.01)"/><path class="cls-5" d="M1436.79,1190.88c39.27-174.82,29.17-282.1,29.12-283.45-.1-2.69,5.55-5.13,8.58-5.22s16.63-.79,18.2,1.51c2,3,10,135.19-48.57,287.16Z" transform="translate(-112.57 -0.01)"/><path class="cls-6" d="M1345.39,1190.88c39.28-174.82,29.18-282.1,29.13-283.45-.1-2.69,5.54-5.13,8.58-5.22s16.63-.79,18.2,1.51c2,3,10,135.19-48.57,287.16Z" transform="translate(-112.57 -0.01)"/><path class="cls-6" d="M1624.91,1190.88c-39.28-174.82-29.18-282.1-29.13-283.45.1-2.69-5.54-5.13-8.58-5.22s-16.63-.79-18.2,1.51c-2,3-10,135.19,48.57,287.16Z" transform="translate(-112.57 -0.01)"/><path class="cls-5" d="M1356.12,907.43H1698.3a5.24,5.24,0,0,0,5.22-5.22h0a5.24,5.24,0,0,0-5.22-5.22H1356.12a5.24,5.24,0,0,0-5.22,5.22h0A5.24,5.24,0,0,0,1356.12,907.43Z" transform="translate(-112.57 -0.01)"/><path class="cls-7" d="M782.35,653.15s19.8-12.33,28.39-10.46,32.13,8.59,32.88,18.31-33.63,25-59,16.43S782.35,653.15,782.35,653.15Z" transform="translate(-112.57 -0.01)"/><path class="cls-8" d="M677.35,1170c0,4.35,2.16,7.34,5.8,9.35l.06,0c6.73,3.71,17.49.86,30.35.3,1.65-.07,4.2,3.11,5.52,3.11h1.83c12.73.31,11.38,4.12,35.58,6.2,27.59,2.35,37.75-6.09,39.37-9.93,1.37-3.26-10.46-7-23.69-11.19l-1.93-.61-5.29-1.72c-15.74-5.23-31.24-11.44-35.11-27.38-4.1-16.9,8.23-64.07,8.23-64.07l-43.71-4.72s-4.22,49.31-7,64.68c-1.48,8.2-5.2,14.72-7.38,21.75-.15.49-.3,1-.44,1.48C678.46,1161.38,677.34,1165.6,677.35,1170Z" transform="translate(-112.57 -0.01)"/><path class="cls-9" d="M795.86,1179c-.86,2-2.69,8.06-14.26,10.52H737.73l-.4-.18c-14.46-6.43-26-7.17-35.12-7.31a106.07,106.07,0,0,1-12.55-.51h0a16.56,16.56,0,0,1-5.7-1.78h0c-.25-.14-.49-.27-.73-.43l-.06,0c-.22-.12-.43-.25-.64-.38h0v0a10.26,10.26,0,0,1-1.13-.78,4.45,4.45,0,0,1-.53-.42l-.5-.45-.35-.35c-.2-.21-.39-.45-.58-.68l0,0-.31-.42c-.1-.16-.21-.31-.3-.48l0,0,0,0c-.08-.14-.16-.27-.23-.42h0c-.05-.09-.09-.19-.14-.28s-.13-.29-.19-.43a5.67,5.67,0,0,1-.23-.62c-.06-.17-.12-.34-.16-.5s-.12-.45-.16-.68a5,5,0,0,1-.09-.56c0-.13,0-.25,0-.38a5,5,0,0,1-.06-.56c0-.27,0-.53,0-.81v-.06c0-.23,0-.46,0-.69s0-.45,0-.68,0-.48.05-.72,0-.46.06-.71.07-.69.11-1l0-.2c0-.22.05-.44.09-.65s.11-.64.16-1c.09-.56.21-1.11.33-1.66,0-.23.1-.45.16-.69.11-.52.24-1,.37-1.56.06-.26.13-.53.2-.78.13-.52.27-1,.41-1.54l.21-.78c.14-.49.29-1,.44-1.47,13.15,3,31.43,12.21,49.84,15.67l.83.14a79.91,79.91,0,0,0,26.18.18,75.66,75.66,0,0,0,15.3-3.93C785.39,1172.07,797.23,1175.77,795.86,1179Z" transform="translate(-112.57 -0.01)"/><polygon class="cls-9" points="589.64 1189.53 589.64 1186.29 589.64 1183.8 589.64 1182.04 589.64 1180.74 588.84 1180.62 569.18 1177.52 569.91 1178.9 569.93 1178.92 569.94 1178.92 570.41 1179.82 571.86 1182.53 571.87 1182.53 575.61 1189.53 589.64 1189.53"/><path class="cls-10" d="M451.52,749.57,593,736.09s216.57,1,236.74,29.56c0,0,38.67,26.81-5,137.59s-95,221.5-95,221.5a100.06,100.06,0,0,1-31,2.18,120.15,120.15,0,0,1-16.62-3s9.87-165.32,31.72-229.64,28.58-51.82-10.09-48.25-163.06,32.16-220.22,25S451.52,749.57,451.52,749.57Z" transform="translate(-112.57 -0.01)"/><path class="cls-11" d="M650.08,1170c0,4.35,2.16,7.34,5.8,9.35l0,0c6.74,3.71,17.49.86,30.36.3,1.65-.07,4.2,3.11,5.52,3.11h1.83c12.73.31,11.38,4.12,35.58,6.2,27.58,2.35,37.75-6.09,39.37-9.93,1.37-3.26-10.46-7-23.69-11.19l-1.93-.61-5.29-1.72c-15.75-5.23-31.25-11.44-35.11-27.38-4.1-16.9,8.22-64.07,8.22-64.07l-43.71-4.72s-4.21,49.31-7,64.68c-1.47,8.2-5.19,14.72-7.37,21.75-.16.49-.3,1-.44,1.48C651.19,1161.38,650.07,1165.6,650.08,1170Z" transform="translate(-112.57 -0.01)"/><path class="cls-12" d="M431.74,759.62l132.7-11.2s216.56.94,236.74,28.63c0,0,32.72,20.5-11,127.79s-88,225.36-88,225.36a111.31,111.31,0,0,1-21.67.39c-14.92-1.21-19.89-6.06-19.89-6.06s3.09-146.81,24.94-209.11,30.26-56-8.41-52.5S529.8,893.5,454.88,879.15C398.3,868.32,431.74,759.62,431.74,759.62Z" transform="translate(-112.57 -0.01)"/><path class="cls-13" d="M768.7,1178.5a1.22,1.22,0,0,1-.11.52c-.8,1.91-2.44,7.23-11.94,9.94-.73.22-1.5.41-2.32.58H710.46c-2.87-1.29-5.62-2.36-8.25-3.24a79.58,79.58,0,0,0-17.77-3.76h0c-3.42-.34-6.58-.44-9.49-.49-8.22-.13-14.44.22-19-2.72l0,0-.65-.38h0v0a11.84,11.84,0,0,1-1.13-.78c-.18-.13-.36-.27-.53-.42s-.33-.3-.49-.45l-.35-.35c-.11-.12-.22-.26-.34-.38a4.92,4.92,0,0,1-.31-.41c-.07-.09-.13-.16-.19-.25s-.21-.29-.3-.44a4.49,4.49,0,0,1-.24-.42,7.9,7.9,0,0,1-.36-.71s0,0,0,0c-.07-.16-.13-.32-.19-.48s-.09-.24-.12-.36l0-.05a.36.36,0,0,0,0-.07.09.09,0,0,1,0,0c-.05-.15-.09-.3-.13-.45a4.27,4.27,0,0,1-.13-.54,5,5,0,0,1-.09-.56,2.25,2.25,0,0,1-.06-.36v0c0-.18,0-.37,0-.56s0-.53,0-.81c0-4.35,1.11-8.57,2.24-12.7.12-.49.27-1,.43-1.47,7.13,1.65,15.79,5.11,25.15,8.48a163.61,163.61,0,0,0,24.68,7.19,80.5,80.5,0,0,0,28.11.14,73.54,73.54,0,0,0,14.21-3.75c4.27,1.36,8.39,2.68,12,3.93l2,.72,1.79.68c.57.22,1.12.44,1.64.66l.77.33.73.33c.46.21.9.43,1.31.64l.59.32c.38.21.73.42,1,.63a8,8,0,0,1,.68.49,5,5,0,0,1,.4.36,1.26,1.26,0,0,1,.2.2,2.2,2.2,0,0,1,.57.85.83.83,0,0,1,.08.22v0A1.33,1.33,0,0,1,768.7,1178.5Z" transform="translate(-112.57 -0.01)"/><polygon class="cls-13" points="562.37 1180.74 562.37 1189.53 548.34 1189.53 542.66 1178.92 542.65 1178.92 542.64 1178.9 541.91 1177.52 561.57 1180.62 562.37 1180.74"/><path class="cls-4" d="M792,678.76a14.58,14.58,0,0,1-1.07,3.53c-5.6,12.33-122.16,28-136.73,20.17-6.51-3.5-16-62.28-24.46-126.19-10.48-79-19.44-165.9-19.44-165.9s48.38,15.26,54,41S671,636.34,685.6,644.19s76.21,1.12,97.51,4.48C783.11,648.67,794.25,666.3,792,678.76Z" transform="translate(-112.57 -0.01)"/><path class="cls-14" d="M613.49,227.22c-9.06-7.27-22.2-6.37-30.67-5.86,2.18-2.26,6.47-3.08,6.47-3.08-5.25-.77-17,4.43-17,4.43S527.93,200,507.39,258.27c0,0,3.54-4.41,8.41-9.4-11.89,33.52.11,84.25,37.54,93.27C577.67,348,706.32,301.79,613.49,227.22Z" transform="translate(-112.57 -0.01)"/><path class="cls-7" d="M613.79,423.2c.24.11-23.47,12.42-41.3,7.55-16.77-4.58-27.73-26.33-27.5-26.38,7.1-1.41,9.15-11.17,9-53.11l3.21.63,54,10.69s-1.23,17-1.27,33C609.9,409,610.71,421.77,613.79,423.2Z" transform="translate(-112.57 -0.01)"/><path class="cls-15" d="M611.2,362.58s-1.23,17-1.27,33c-30.21-.85-46.18-28.41-52.73-43.69Z" transform="translate(-112.57 -0.01)"/><path class="cls-14" d="M551.63,346S535.79,321,532,299.6c-2.71-15.27,5.07-71.89,62-63.73A77.13,77.13,0,0,1,626,248c12.36,8.34,30.18,26.35,10.25,75.75l-5.18,16.69Z" transform="translate(-112.57 -0.01)"/><path class="cls-7" d="M621.29,377.74s-71.49,1.18-71.54-43.35-9.31-74.37,36.33-77,54.53,14.35,58.16,29.21S639.88,376.28,621.29,377.74Z" transform="translate(-112.57 -0.01)"/><path class="cls-14" d="M618.64,256.29s-19.57,52.25-49.61,60-43.07-.32-43.07-.32,23-18.31,27.83-50.26C553.79,265.68,603.88,231.43,618.64,256.29Z" transform="translate(-112.57 -0.01)"/><path class="cls-5" d="M638.77,476.33c-1.25-5.07,9.45-8.89,12.07-4.37,4.92,8.47,5.89,19.14,7.85,27.65,5.61,24.28,0,57.53,0,57.53Z" transform="translate(-112.57 -0.01)"/><path class="cls-14" d="M613.79,260.54s14.62,11.66,18.18,23,5.17,34.68,12,33.89c0,0,14.75-35.51-1.82-55.6C624.54,240.53,613.79,260.54,613.79,260.54Z" transform="translate(-112.57 -0.01)"/><path class="cls-5" d="M792,678.76a14.58,14.58,0,0,1-1.07,3.53c-5.6,12.33-122.16,28-136.73,20.17-6.51-3.5-18-76.58-9.73-142,8.81,37.39,11.5,114.07,32.13,117.68C700,682.28,761.44,674.46,792,678.76Z" transform="translate(-112.57 -0.01)"/><path class="cls-4" d="M663.06,560.13c-29,139.67-4.73,161.11-19.78,174.84-.08.06-13.36,5.8-13.45,5.88-15.69,13.61-16.08-2.88-65.4,18.49C540.94,769.53,510.83,783,484.52,791A162.38,162.38,0,0,1,457,797.19c-15.85,1.86-27.68-.89-31.53-11.6-11.21-31.1,42.59-113.7,29.14-170.06-.11-.49-.23-1-.33-1.46a62.16,62.16,0,0,1-.65-16.8c2.51-31.45,22.37-77.15,42.95-116.18,22.72-43,46.3-78,48.42-76.72,59.91,35.57,65.33,6,65.33,6S673,512.49,663.06,560.13Z" transform="translate(-112.57 -0.01)"/><path class="cls-5" d="M634.59,738.89h0c-15.69,13.61-20.84-.92-70.16,20.45C540.94,769.53,510.83,783,484.52,791c-13.44,2.35-23.44,4.41-27.53,6.19-15.85,1.86-27.68-.89-31.53-11.6-11.21-31.1,42.59-113.7,29.14-170.06-.11-.49-.23-1-.33-1.46a52.32,52.32,0,0,1-.65-16.8c2.84-23.9,20.41-49.82,40.32-87.58,13.31,14.07,113.31-2.24,89.66,136.74C576.35,689,628.37,705.83,634.59,738.89Z" transform="translate(-112.57 -0.01)"/><path class="cls-16" d="M804,676.23h0a23.46,23.46,0,0,0,41.11-15.49v-9.15a23.67,23.67,0,0,0-.19-2.94H798.31a162.57,162.57,0,0,0,1,17.4A21.55,21.55,0,0,0,804,676.23Z" transform="translate(-112.57 -0.01)"/><path class="cls-17" d="M841.1,648.64h-6.31a23.67,23.67,0,0,1,.19,2.94v9.15A23.57,23.57,0,0,1,814.65,684a21.93,21.93,0,0,0,3.15.23,23.58,23.58,0,0,0,23.5-23.5v-9.15A21.88,21.88,0,0,0,841.1,648.64Z" transform="translate(-112.57 -0.01)"/><rect class="cls-16" x="812.04" y="682.17" width="19.18" height="2.87" transform="translate(1530.69 1367.21) rotate(180)"/><path class="cls-7" d="M629.74,746s22-5.23,32.13-1.12,30.26,14.57,28.39,20.17-25.78,8.59-35.86,3-17.56,1.49-29.89-2.62S629.74,746,629.74,746Z" transform="translate(-112.57 -0.01)"/><path class="cls-4" d="M545,404.37s-81.3,1.09-95.87,40.32S439,621.77,460.33,663.24,602.66,760.74,616.11,763s21.86-18.5,21.3-20.74S510.2,637.46,510.76,626.81,545,404.37,545,404.37Z" transform="translate(-112.57 -0.01)"/><path class="cls-7" d="M1158.81,567.17S1138,542,1133.57,539s-24.09-8.19-25.21-7.14-1.17,2.57,1.26,4.72,11.71,7.56,10.38,8.17-29.31-13.32-33.34-8.64,2.28,24,13.07,33.31,43,13.23,45,14.52C1161.9,595,1158.81,567.17,1158.81,567.17Z" transform="translate(-112.57 -0.01)"/><path class="cls-11" d="M1353.47,1170.74c0,4.21-2.15,7.11-5.79,9.06l-.06,0c-6.73,3.59-18.56,4-31.42,3.41-1.65-.07-3.13-.11-4.45-.11h-1.83c-12.73.3-11.39,4-35.58,6-27.59,2.28-37.75-5.9-39.38-9.62-1.37-3.16,10.47-6.75,23.7-10.84l1.92-.6c1.76-.54,3.53-1.1,5.29-1.66,15.75-5.07,31.25-11.08,35.12-26.52,4.1-16.37-8.23-62.07-8.23-62.07l43.71-4.57s4.22,47.77,7,62.66c1.48,7.94,5.2,14.26,7.38,21.07.15.48.3,1,.43,1.43C1352.36,1162.43,1353.48,1166.52,1353.47,1170.74Z" transform="translate(-112.57 -0.01)"/><path class="cls-12" d="M1353.47,1170.74c0,4.21-2.15,7.11-5.79,9.06l-.06,0c-7.17,3.21-18.8,3.68-31.4,3.33-1.65,0-3.13-.05-4.47,0h-1.83c-12.73.3-11.39,4-35.58,6-27.59,2.28-37.75-5.9-39.38-9.62-1.37-3.16,10.47-6.75,23.7-10.84a84.2,84.2,0,0,0,42.32,3.5c18.4-3.36,36.68-12.23,49.83-15.19.15.48.3,1,.43,1.43C1352.36,1162.43,1353.48,1166.52,1353.47,1170.74Z" transform="translate(-112.57 -0.01)"/><path class="cls-11" d="M1069.84,1118.1c-2.43,12.14-19.73,10.12-39.06,5.39s-14.74.89-42.25-2.15-35.85-13.31-36.69-17.4c-.75-3.63,12.85-4.91,27.43-6.59l5.51-.66c16.47-2.06,28.53-12.69,43.48-21.41,14.17-8.27,35.3-41.94,35.3-41.94l37.74,3s-19.8,30.07-27.46,43.15c-4.51,7.69-4.27,17.86-3.71,25.71C1070.43,1109.46,1070.71,1113.83,1069.84,1118.1Z" transform="translate(-112.57 -0.01)"/><path class="cls-12" d="M1030.78,1123.49c-19.33-4.72-14.74.89-42.25-2.15s-35.85-13.31-36.69-17.4c-.75-3.63,12.85-4.91,27.43-6.59l.13.28a77.58,77.58,0,0,0,39.41,12.25c18.66.45,38.43-4.9,51.32-4.69.3,4.27.58,8.64-.29,12.91C1067.41,1130.24,1050.11,1128.22,1030.78,1123.49Z" transform="translate(-112.57 -0.01)"/><path class="cls-13" d="M1214.44,876.83l81.32,218.85a74.46,74.46,0,0,0,24.47-2.24c11-3.18,23.66-11.52,23.66-11.52s-20.18-210.13-57.16-253.84S1214.44,876.83,1214.44,876.83Z" transform="translate(-112.57 -0.01)"/><path class="cls-18" d="M1536.09,788.29s-233.67-79-285.78-62.2-208.59,328.12-208.59,328.12,3.53,4.7,13.17,8.31c9,3.36,30.67,3.15,30.67,3.15s141.21-121,158-156.34,23.54-68.92,40.35-65.56,216.86,82.37,262.24,35.3,33.52-108.23,33.52-108.23Z" transform="translate(-112.57 -0.01)"/><path class="cls-10" d="M1393.29,420.73c-3.73-7.71-7.9-21.39-9.94-45.78.31,2.42,4.52,33.19,16.35,50.6,48.59,31.91,141.74,138.44,139.89,158.63,0,0,32.81-55.65,33.38-56,0,0,60.52-77-11.21-121.05C1525.3,384.75,1525.49,356,1527,331s-9.94-132.5-83-104.36c0,0-11.72-5.21-17-4.43,0,0,4.29.82,6.47,3.07-8.46-.5-20.57.12-30.67,5.87C1376.1,246.37,1352.14,382.86,1393.29,420.73Z" transform="translate(-112.57 -0.01)"/><path class="cls-7" d="M1402.57,427.14c-.24.11,23.47,12.42,41.3,7.54,16.77-4.57,27.73-26.32,27.5-26.37-7.1-1.41-9.15-11.17-9-53.12l-3.21.63-54,10.69s1.23,17,1.27,33C1406.47,413,1405.65,425.7,1402.57,427.14Z" transform="translate(-112.57 -0.01)"/><path class="cls-15" d="M1405.16,366.51s1.23,17,1.27,33c30.21-.85,46.19-28.41,52.73-43.69Z" transform="translate(-112.57 -0.01)"/><path class="cls-10" d="M1464.74,349.94s15.83-25,19.63-46.41c2.71-15.27-5.07-71.88-62-63.73a77.3,77.3,0,0,0-32.05,12.12c-12.35,8.34-30.18,26.35-10.25,75.75l5.18,16.69Z" transform="translate(-112.57 -0.01)"/><path class="cls-7" d="M1395.07,381.67s71.49,1.18,71.54-43.35,9.31-74.37-36.33-77-54.53,14.34-58.16,29.2S1376.48,380.22,1395.07,381.67Z" transform="translate(-112.57 -0.01)"/><path class="cls-10" d="M1397.72,260.23s19.57,52.24,49.61,60,43.07-.32,43.07-.32-23-18.3-27.82-50.25C1462.58,269.62,1412.48,235.36,1397.72,260.23Z" transform="translate(-112.57 -0.01)"/><path class="cls-10" d="M1402.57,264.47s-14.62,11.66-18.18,23-5.17,34.68-12,33.89c0,0-14.75-35.51,1.83-55.6C1391.82,244.47,1402.57,264.47,1402.57,264.47Z" transform="translate(-112.57 -0.01)"/><path class="cls-19" d="M1561.76,619.46c7-29.57-16.94-86.94-42-134.44-22.72-43-46.3-78-48.42-76.71-59.92,35.56-65.33,6-65.33,6s-54.42,7.23-69.83,33.76c-21.32,36.69-44.53,146.77-67.34,145.14-10.47-.75-115.82-40.35-115.82-40.35s-17.55,16.45-14.19,36.62c0,0,52,34.83,96,57.06,23.26,11.75,44.29,20,54.17,17.65,20-4.72,51.35-51.17,68.26-78.52l.11-.18c21.59,122.19-7.76,150,7.1,162.9,15.69,13.61,38.1-6.48,87.42,14.9,32.34,14,77.23,34.31,107.44,37.85,15.85,1.86,27.68-.9,31.53-11.6C1602.11,758.42,1548.31,675.82,1561.76,619.46Z" transform="translate(-112.57 -0.01)"/><path class="cls-20" d="M1590.9,789.53c-3.85,10.7-15.68,13.46-31.53,11.6-20.91-9.12-96.68-44.12-95.67-67.83,1.5-35.12,17.37-36.24,6.16-79.58-9-34.8,59.91-99.5,73.22-113.57,25,47.5,25.73,49.74,18.68,79.31C1548.31,675.82,1602.11,758.42,1590.9,789.53Z" transform="translate(-112.57 -0.01)"/><path class="cls-20" d="M1357.3,585.66c-16.91,27.35-48.22,73.8-68.26,78.52-9.88,2.33-30.91-5.9-54.17-17.65,17,4.38,33.47,4.26,49.5,2.71,17.37-1.68,22.42-23,49.87-54.92C1352.05,573.61,1356.43,578.82,1357.3,585.66Z" transform="translate(-112.57 -0.01)"/><path class="cls-16" d="M1415.45,650.29c-2.2-1.36-6.49-.83-9.6-.18v-4.5a23.64,23.64,0,0,0-.19-2.93h-46.61a23.64,23.64,0,0,0-.19,2.93v9.15a23.46,23.46,0,0,0,41.11,15.5h0s11.09-2.73,14.57-6.86S1419.15,652.57,1415.45,650.29Zm-2.46,8.46c-1.18,3-6.46,4.67-9.07,5.31a23.25,23.25,0,0,0,1.87-7.73c1.61-2.21,4.15-3.5,6-3.16C1413.47,653.47,1414.48,654.9,1413,658.75Z" transform="translate(-112.57 -0.01)"/><path class="cls-17" d="M1362.67,645.61v9.15a23.58,23.58,0,0,0,23.5,23.5,20.59,20.59,0,0,0,3.15-.23A23.56,23.56,0,0,1,1369,654.76v-9.15a23.93,23.93,0,0,1,.19-2.94h-6.31A22.11,22.11,0,0,0,1362.67,645.61Z" transform="translate(-112.57 -0.01)"/><rect class="cls-16" x="1260.18" y="676.2" width="19.18" height="2.87"/><path class="cls-7" d="M1441,652.88s-15.13-11.77-29.42-9-21.3,12.6-20.74,17.09,8.13,17.09,19.06,18.21,42-6.72,42-6.72Z" transform="translate(-112.57 -0.01)"/><path class="cls-19" d="M1471.37,408.31s58.27,3.59,78.44,31.72c28.39,39.6,77.7,201.27,64.25,238.26,0,0-55.3,5.82-94.81,5.82-20.61,0-82.45-6.57-82.45-6.57s-4.3-20.08,1.68-29.8,103.11-25.4,107.59-29.88-56-87.42-56-100.87S1471.37,408.31,1471.37,408.31Z" transform="translate(-112.57 -0.01)"/><path class="cls-21" d="M1444.3,693.14H651.69a15.42,15.42,0,0,0-15.37,15.38v20.05a15.41,15.41,0,0,0,15.37,15.37h383v388.34c-67.39,2.69-124.76,25.82-148.16,57.26h321.93c-23.23-31.56-79.73-54.54-147.12-57.26V743.94h383a15.42,15.42,0,0,0,15.37-15.37V708.52A15.42,15.42,0,0,0,1444.3,693.14Z" transform="translate(-112.57 -0.01)"/><polygon class="cls-16" points="906.85 635.61 906.23 649.83 904.93 679.55 904.34 693.24 866.62 693.24 865.76 679.55 863.91 649.83 863.02 635.61 906.85 635.61"/><polygon class="cls-22" points="907.57 626 862.89 626 861.05 635.61 908.83 635.61 907.57 626"/><polygon class="cls-17" points="906.23 649.83 904.93 679.55 865.76 679.55 863.91 649.83 906.23 649.83"/><path class="cls-17" d="M1088.21,639.69l-.26,5.84-.19,4.3-1.19,27.38-.11,2.34-.59,13.69h-37.73l-.85-13.69-.15-2.34-1.71-27.38-.26-4.3-.48-7.76.1-.24s8.79-1.6,14.07,1.76,11-3.2,15.84-1.28,5.13,4.32,9,2.72A18.85,18.85,0,0,1,1088.21,639.69Z" transform="translate(-112.57 -0.01)"/><polygon class="cls-23" points="975.81 635.61 975.64 639.68 975.38 645.52 975.19 649.83 974 677.2 973.89 679.54 973.29 693.23 935.57 693.23 934.72 679.54 934.57 677.2 932.86 649.83 932.59 645.52 932.11 637.76 931.98 635.61 975.81 635.61"/><path class="cls-23" d="M1088.61,635.61c0-.22,0-.44,0-.67a22,22,0,0,0-43.92,0c0,.23,0,.45,0,.67Z" transform="translate(-112.57 -0.01)"/><path class="cls-16" d="M1062.87,689.77l-1.92-.24c.11-1.2,6.26-82.43,7.21-87.84,1-6,6.83-7.72,7.07-7.8l.11,0,30.72-5.44.33,1.89-30.66,5.43c-.52.17-4.87,1.69-5.68,6.27C1069.11,607.36,1062.89,689.47,1062.87,689.77Z" transform="translate(-112.57 -0.01)"/><polygon class="cls-16" points="975.38 645.52 975.19 649.83 974 677.2 934.57 677.2 932.86 649.83 932.59 645.52 975.38 645.52"/></g><polygon class="cls-24" points="233.3 131.1 0 207.38 139.75 71.17 153.94 104.45 213.99 104.74 233.3 131.1"/><polygon class="cls-2" points="0 207.38 181.07 69.63 374.52 25.45 0 207.38"/><polygon class="cls-2" points="139.75 71.17 0 207.38 93.15 16.56 139.75 71.17"/></svg>