<svg id="Layer_1" data-name="Layer 1" xmlns="http://www.w3.org/2000/svg" xmlns:xlink="http://www.w3.org/1999/xlink" viewBox="0 0 1541.03 1322.27"><defs><style>.cls-1,.cls-10,.cls-14,.cls-18,.cls-5{fill:none;}.cls-2{fill:#ff7900;}.cls-3{fill:#fc9;}.cls-4{clip-path:url(#clip-path);}.cls-5{stroke:#c60;stroke-width:7px;opacity:0.56;}.cls-18,.cls-5{stroke-miterlimit:10;}.cls-6{fill:#cc742b;}.cls-7{fill:#d88d59;}.cls-8{fill:#99c;}.cls-9{fill:#006;}.cls-10,.cls-14{stroke:#000;stroke-linecap:round;stroke-linejoin:round;}.cls-10{stroke-width:0.95px;}.cls-11{fill:#336;}.cls-12{fill:#f2aa79;}.cls-13{fill:#ccc;}.cls-14{stroke-width:0.82px;}.cls-15{fill:#339;}.cls-16{fill:#c63;}.cls-17{fill:#f96;}.cls-18{stroke:#ffc;stroke-width:2px;}.cls-19{fill:#019d83;}.cls-20{fill:#066;}.cls-21{fill:#19243f;}</style><clipPath id="clip-path" transform="translate(-167.6 -4.96)"><path class="cls-1" d="M350.15,1016.24c101.15,56.82,266.49,72.84,453.86,46.65,302-42.19,576.79-182.63,633.65-255.26,43.68-55.6,53.72-122.53,42.8-193.17C1472,559.75,1496.61,154.76,1384,1.93,1283-135,1055.1-21.85,868.57-57.22c-142.63-27-331.14-9.8-538.29,148.5C199,191,152.12,331.44,147.35,476.46,140.9,663.75,217.4,941.75,350.15,1016.24Z"/></clipPath></defs><title>3</title><polygon class="cls-2" points="1363.68 326.54 1541.03 297.67 1404.35 256.11 1406.32 282.52 1367.37 302.91 1363.68 326.54"/><polygon class="cls-3" points="1541.03 297.67 1376.97 269.01 1236.32 305.35 1541.03 297.67"/><polygon class="cls-3" points="1404.35 256.11 1541.03 297.67 1416.28 204.93 1404.35 256.11"/><path class="cls-3" d="M360.77,1025.88c96.16,47.52,253.35,60.91,431.49,39,287.14-35.28,548.37-152.71,602.43-213.44,41.52-46.49,51.07-102.46,40.69-161.53-15.21-86.75-206.53-499.07-581.74-561.65-135.6-22.62-314.82-8.2-511.76,124.17C217,335.81,172.5,453.26,168,574.53,161.83,731.13,234.56,963.6,360.77,1025.88Z" transform="translate(-167.6 -4.96)"/><g class="cls-4"><line class="cls-5" x1="708.1" y1="619.04" x2="708.1" y2="1064.23"/><path class="cls-6" d="M632.32,659.58H1119.1a22.43,22.43,0,0,0,22.43-22.43h0a22.43,22.43,0,0,0-22.43-22.43H632.32a22.43,22.43,0,0,0-22.43,22.43h0A22.43,22.43,0,0,0,632.32,659.58Z" transform="translate(-167.6 -4.96)"/><path class="cls-5" d="M427.55,348.9H581a0,0,0,0,1,0,0V870.35a10.18,10.18,0,0,1-10.18,10.18H437.73a10.18,10.18,0,0,1-10.18-10.18V348.9A0,0,0,0,1,427.55,348.9Z" transform="translate(840.91 1224.47) rotate(180)"/><line class="cls-5" x1="519.65" y1="875.57" x2="519.65" y2="1320.76"/><line class="cls-5" x1="299.3" y1="875.57" x2="299.3" y2="1320.76"/><path class="cls-6" d="M404,907.93H740.3a27.41,27.41,0,0,0,27.41-27.4h0a27.41,27.41,0,0,0-27.41-27.41H404a27.41,27.41,0,0,0-27.41,27.41h0A27.41,27.41,0,0,0,404,907.93Z" transform="translate(-167.6 -4.96)"/><polygon class="cls-7" points="784.58 1058.53 757.22 1225.4 678.43 1222.09 690.8 1053.1 784.58 1058.53"/><path class="cls-8" d="M931,1211.83l140.14,63.91a22.19,22.19,0,0,1,11.66,24.9H835.61l9.18-89.84Z" transform="translate(-167.6 -4.96)"/><rect class="cls-9" x="831.24" y="1300.64" width="254.71" height="26.59" transform="translate(1749.59 2622.91) rotate(180)"/><path class="cls-10" d="M864.94,1252.56a21.84,21.84,0,1,0,21.48-22.19A21.85,21.85,0,0,0,864.94,1252.56Z" transform="translate(-167.6 -4.96)"/><line class="cls-10" x1="808.98" y1="1219.58" x2="791.36" y2="1235.78"/><line class="cls-10" x1="827.08" y1="1228.34" x2="809.35" y2="1244.65"/><line class="cls-10" x1="846.19" y1="1238.16" x2="827.59" y2="1255.24"/><path class="cls-11" d="M1022.57,815.87,972.5,1139,819,1141l49.91-440.14h50C981,700.89,1029.32,754.5,1022.57,815.87Z" transform="translate(-167.6 -4.96)"/><polygon class="cls-12" points="718.87 1058.53 691.51 1225.4 612.71 1222.09 625.09 1053.1 718.87 1058.53"/><path class="cls-13" d="M865.28,1211.83l140.15,63.91a22.19,22.19,0,0,1,11.66,24.9H769.89l9.19-89.84Z" transform="translate(-167.6 -4.96)"/><rect class="cls-11" x="765.53" y="1300.64" width="254.71" height="26.59" transform="translate(1618.17 2622.91) rotate(180)"/><path class="cls-14" d="M799.23,1252.56a21.84,21.84,0,1,0,21.48-22.19A21.84,21.84,0,0,0,799.23,1252.56Z" transform="translate(-167.6 -4.96)"/><line class="cls-10" x1="743.27" y1="1220.11" x2="725.65" y2="1235.78"/><line class="cls-10" x1="761.37" y1="1228.87" x2="743.63" y2="1244.65"/><line class="cls-10" x1="780.48" y1="1238.7" x2="761.87" y2="1255.24"/><path class="cls-15" d="M444.11,697.68,840,700h13.65c1.31,0,2.58.16,3.88.2l9.47.11s92.43,4.3,90.46,97.53c0,.55-.11,1.09-.13,1.63a104.9,104.9,0,0,1-.47,14.56l-50.07,340.71-153.47,2.08,33.06-303.62H557l-10.59-.05C458.14,852.72,426.61,787.47,444.11,697.68Z" transform="translate(-167.6 -4.96)"/><path class="cls-16" d="M793.61,306.84A25.11,25.11,0,1,0,770.38,280,25.14,25.14,0,0,0,793.61,306.84Zm3-42.07a17.07,17.07,0,1,1-18.27,15.79A17.1,17.1,0,0,1,796.66,264.77Z" transform="translate(-167.6 -4.96)"/><path class="cls-17" d="M708.25,245.78s-14.47,69.81,38.46,74.66,43.62-71.84,43.62-71.84Z" transform="translate(-167.6 -4.96)"/><path class="cls-18" d="M773.67,242.77S807.83,221.5,776,190s-9.52-27.23,13.61-55.41-12.74-61.08-12.74-61.08" transform="translate(-167.6 -4.96)"/><path class="cls-18" d="M737.12,239.81s34-26.72,2.14-58.24-9.52-27.23,13.61-55.41-12.73-61.08-12.73-61.08" transform="translate(-167.6 -4.96)"/><path class="cls-12" d="M802.16,339l51,17.89,4.19,96.46c-23-3-42-5.64-65.11-7.47Z" transform="translate(-167.6 -4.96)"/><path class="cls-12" d="M792.64,367.15a53.79,53.79,0,1,0-13.74-74.83A53.79,53.79,0,0,0,792.64,367.15Z" transform="translate(-167.6 -4.96)"/><path class="cls-12" d="M814.8,269.76s7.36-23.4,31.76-9.2,48.06,46,20.9,92.85Z" transform="translate(-167.6 -4.96)"/><path class="cls-19" d="M600.77,316s72.66,6.58,106.5,85.53,64.44,81.83,64.44,81.83l9.67-97.05h102.3s-4.84,26.19,0,72.91,13.08,153.56-62.24,155.12c-77.84,1.61-162.51-62-162.51-62Z" transform="translate(-167.6 -4.96)"/><path class="cls-19" d="M684,393c-2-28.95-21.61-53.63-47.44-66.84-20-10.22-43.56-19.38-62.06-18.05-24.91,1.79-48.9-.75-78.46,1.33-38.7,2.72-73.94,29.51-89.34,59.19h0c-11.48,22.12-2.21,58.38,1,83.09l32.27,246L699,699.41Z" transform="translate(-167.6 -4.96)"/><path class="cls-20" d="M693.06,577.1C681.7,441,674.29,391.54,674.29,391.54l57.24,202.18Z" transform="translate(-167.6 -4.96)"/><path class="cls-20" d="M462.1,697.35c-11.36-136.06,36.28-316.54,36.28-316.54,29.19,116.9,65.85,225.08,115.78,317.72Z" transform="translate(-167.6 -4.96)"/><path class="cls-19" d="M451.57,333.25s-41.52-.72-69.74,87.56C351.27,516.44,336,535.35,327.55,615.15s134.91,8.19,134.91,8.19S509.22,455.55,499,391C499,391,524,319.8,451.57,333.25Z" transform="translate(-167.6 -4.96)"/><path class="cls-12" d="M548.39,570.11l33.47-37.27a26.65,26.65,0,0,1,19.8-8.82h53l-14.06,16.4L619,544.27c-2.82.25-4.84,1.7-4.84,4.53h0c0,3,2.34,4.41,5.35,4.41H714s6.25,28.61-42.18,47.36-78.12,0-123.43,14.84Z" transform="translate(-167.6 -4.96)"/><path class="cls-21" d="M630.41,553.21,663.82,511a4.16,4.16,0,0,1,3.48-1.58l61.7,2.88a4.18,4.18,0,0,1,3.3,6.48l-22.58,34.42Z" transform="translate(-167.6 -4.96)"/><path class="cls-19" d="M552.09,553.23c4.27-1.32,25.3,101.21,25.3,101.21s-103.22,57.87-184.56,47.62c-89.69-11.3-60.78-114.38-60.78-114.38l72.21-16.3S452.29,584,552.09,553.23Z" transform="translate(-167.6 -4.96)"/><path class="cls-7" d="M608.43,198.87c-1.64,16.31,9.84,30.87,25.63,32.53s29.91-10.22,31.55-26.53S655.77,174,640,172.34,610.06,182.57,608.43,198.87Z" transform="translate(-167.6 -4.96)"/><path class="cls-12" d="M596.67,249.63l-2.38,62.65c-.79,24.88-16.06,37.66-39.78,36.62h0c-20.24-.88-42.16-11.45-40.53-33.36l.42-102.75Z" transform="translate(-167.6 -4.96)"/><path class="cls-7" d="M594.81,310.32S551,327.6,522.35,267c-9.07-19.22,74.7-12.78,74.7-12.78Z" transform="translate(-167.6 -4.96)"/><path class="cls-12" d="M575.53,290.48h0c40.46,1.45,75-30.37,77.29-64.45l4.48-71.33c2.91-42.71-27.51-80-68.76-84.37h0c-42.22-4.43-87.4,26.56-91.78,70.17L494,196.13C491.35,246.2,527.23,285.42,575.53,290.48Z" transform="translate(-167.6 -4.96)"/><path class="cls-21" d="M507.67,189.27h13.5V159.21s35.39-12.48,34.07-49.91l-31-42.12s-56.14-4.55-60,39.13,23.84,79.93,23.84,79.93Z" transform="translate(-167.6 -4.96)"/><path class="cls-12" d="M456.8,194.44c-1.62,16.15,9.74,30.57,25.38,32.2s29.62-10.12,31.24-26.27S503.68,169.8,488,168.16,458.42,178.29,456.8,194.44Z" transform="translate(-167.6 -4.96)"/><path class="cls-21" d="M593.89,48.43c8.09,2.46,16.47,5,24.69,7.82a44,44,0,0,1,22.16-6.13,44.22,44.22,0,0,1,34.41,72.3c-3.24,5-8.39,9.64-16.4,12.75-1.21.54-2.49.9-3.76,1.33l-.44.14a43.87,43.87,0,0,1-13.81,2.41c-.51,0-1-.14-1.48-.15a112.66,112.66,0,0,1-16.47-.51c-54.16-5.55-81.27-32.66-81.27-32.66L524.29,67.18S543.84,33.2,593.89,48.43Z" transform="translate(-167.6 -4.96)"/><path class="cls-16" d="M1242.32,5H900.9A17.12,17.12,0,0,0,883.83,22V195.22a17.12,17.12,0,0,0,17.07,17.07h28.87l-13.94,58.86,87.49-58.86h239a17.12,17.12,0,0,0,17.07-17.07V22A17.13,17.13,0,0,0,1242.32,5Z" transform="translate(-167.6 -4.96)"/><path class="cls-17" d="M1222.76,82.14H921.17a7.49,7.49,0,0,0-7.47,7.47h0a7.49,7.49,0,0,0,7.47,7.46h301.59a7.49,7.49,0,0,0,7.47-7.46h0A7.49,7.49,0,0,0,1222.76,82.14Z" transform="translate(-167.6 -4.96)"/><path class="cls-17" d="M1222.76,115.57H921.17a7.47,7.47,0,1,0,0,14.94h301.59a7.47,7.47,0,1,0,0-14.94Z" transform="translate(-167.6 -4.96)"/><path class="cls-17" d="M1222.76,149H921.17a7.47,7.47,0,1,0,0,14.94h301.59a7.47,7.47,0,1,0,0-14.94Z" transform="translate(-167.6 -4.96)"/><path class="cls-17" d="M930.41,45.15h128a8.89,8.89,0,0,0,0-17.78h-128a8.89,8.89,0,1,0,0,17.78Z" transform="translate(-167.6 -4.96)"/><rect class="cls-17" x="916.81" y="22.4" width="91.1" height="17.78" rx="7.03"/></g></svg>