<?xml version="1.0" encoding="UTF-8"?>
<svg width="104px" height="119px" viewBox="0 0 104 119" version="1.1" xmlns="http://www.w3.org/2000/svg" xmlns:xlink="http://www.w3.org/1999/xlink">
    <!-- Generator: Sketch 40.2 (33826) - http://www.bohemiancoding.com/sketch -->
    <title>groups</title>
    <desc>Created with Sketch.</desc>
    <defs>
        <path d="M47.993577,1.47949134 C49.1016938,0.834700243 50.899765,0.835549072 52.006423,1.47949134 L97.993577,28.2384993 C99.1016938,28.8832904 100,30.4406544 100,31.7229433 L100,85.2770567 C100,86.5566709 99.100235,88.1175584 97.993577,88.7615007 L52.006423,115.520509 C50.8983062,116.1653 49.100235,116.164451 47.993577,115.520509 L2.00642302,88.7615007 C0.898306184,88.1167096 2.75618954e-14,86.5593456 2.68692932e-14,85.2770567 L-2.05687145e-15,31.7229433 C-2.748029e-15,30.4433291 0.899764954,28.8824416 2.00642302,28.2384993 L47.993577,1.47949134 Z" id="path-1"></path>
        <mask id="mask-2" maskContentUnits="userSpaceOnUse" maskUnits="objectBoundingBox" x="-2" y="-2" width="104" height="119.007567">
            <rect x="-2" y="-1.00378373" width="104" height="119.007567" fill="white"></rect>
            <use xlink:href="#path-1" fill="black"></use>
        </mask>
        <path d="M0.445836831,17.893844 C0.539084983,16.8441615 1.41878221,15.7244104 2.43272745,15.4005889 C2.43272745,15.4005889 6.37329542,14 8.61744386,14 C10.8518458,14 14.7963786,15.4059729 14.7963786,15.4059729 C15.7875045,15.7303036 16.6422587,16.8430523 16.7056752,17.893844 L16.9842621,22.5099439 C17.2672443,27.1988724 13.700339,31 9.00238073,31 L7.77582233,31 C3.08456879,31 -0.382040849,27.2131572 0.0338292711,22.5317604 L0.445836831,17.893844 Z" id="path-3"></path>
        <mask id="mask-4" maskContentUnits="userSpaceOnUse" maskUnits="objectBoundingBox" x="-2" y="-2" width="21" height="21">
            <rect x="-2" y="12" width="21" height="21" fill="white"></rect>
            <use xlink:href="#path-3" fill="black"></use>
        </mask>
        <path d="M6,8.50594045 C6,7.12194776 7.10966206,6 8.5,6 L8.5,6 C9.88071187,6 11,7.11577769 11,8.50594045 L11,13.737962 C11,15.1219547 10.083288,16.8878367 8.95853853,17.6779046 L8.5,18 L8.04146147,17.6779046 C6.91399343,16.8859271 6,15.1281248 6,13.737962 L6,8.50594045 Z" id="path-5"></path>
        <mask id="mask-6" maskContentUnits="userSpaceOnUse" maskUnits="objectBoundingBox" x="-1" y="-1" width="7" height="14">
            <rect x="5" y="5" width="7" height="14" fill="white"></rect>
            <use xlink:href="#path-5" fill="black"></use>
        </mask>
        <path d="M8.5,13 C12.4733027,12.9999999 13,7.87860279 13,6.5 C13,2.91014913 10.9852814,0 8.5,0 C6.01471863,0 4,2.91014913 4,6.5 C4,7.90016546 4.52669731,13.0000001 8.5,13 Z" id="path-7"></path>
        <mask id="mask-8" maskContentUnits="userSpaceOnUse" maskUnits="objectBoundingBox" x="-2" y="-2" width="13" height="17">
            <rect x="2" y="-2" width="13" height="17" fill="white"></rect>
            <use xlink:href="#path-7" fill="black"></use>
        </mask>
        <path d="M0.445836831,17.893844 C0.539084983,16.8441615 1.41878221,15.7244104 2.43272745,15.4005889 C2.43272745,15.4005889 6.37329542,14 8.61744386,14 C10.8518458,14 14.7963786,15.4059729 14.7963786,15.4059729 C15.7875045,15.7303036 16.6422587,16.8430523 16.7056752,17.893844 L16.9842621,22.5099439 C17.2672443,27.1988724 13.700339,31 9.00238073,31 L7.77582233,31 C3.08456879,31 -0.382040849,27.2131572 0.0338292711,22.5317604 L0.445836831,17.893844 Z" id="path-9"></path>
        <mask id="mask-10" maskContentUnits="userSpaceOnUse" maskUnits="objectBoundingBox" x="-2" y="-2" width="21" height="21">
            <rect x="-2" y="12" width="21" height="21" fill="white"></rect>
            <use xlink:href="#path-9" fill="black"></use>
        </mask>
        <path d="M6,8.50594045 C6,7.12194776 7.10966206,6 8.5,6 L8.5,6 C9.88071187,6 11,7.11577769 11,8.50594045 L11,13.737962 C11,15.1219547 10.083288,16.8878367 8.95853853,17.6779046 L8.5,18 L8.04146147,17.6779046 C6.91399343,16.8859271 6,15.1281248 6,13.737962 L6,8.50594045 Z" id="path-11"></path>
        <mask id="mask-12" maskContentUnits="userSpaceOnUse" maskUnits="objectBoundingBox" x="-1" y="-1" width="7" height="14">
            <rect x="5" y="5" width="7" height="14" fill="white"></rect>
            <use xlink:href="#path-11" fill="black"></use>
        </mask>
        <path d="M8.5,13 C12.4733027,12.9999999 13,7.87860279 13,6.5 C13,2.91014913 10.9852814,0 8.5,0 C6.01471863,0 4,2.91014913 4,6.5 C4,7.90016546 4.52669731,13.0000001 8.5,13 Z" id="path-13"></path>
        <mask id="mask-14" maskContentUnits="userSpaceOnUse" maskUnits="objectBoundingBox" x="-2" y="-2" width="13" height="17">
            <rect x="2" y="-2" width="13" height="17" fill="white"></rect>
            <use xlink:href="#path-13" fill="black"></use>
        </mask>
        <path d="M0.445836831,17.893844 C0.539084983,16.8441615 1.41878221,15.7244104 2.43272745,15.4005889 C2.43272745,15.4005889 6.37329542,14 8.61744386,14 C10.8518458,14 14.7963786,15.4059729 14.7963786,15.4059729 C15.7875045,15.7303036 16.6422587,16.8430523 16.7056752,17.893844 L16.9842621,22.5099439 C17.2672443,27.1988724 13.700339,31 9.00238073,31 L7.77582233,31 C3.08456879,31 -0.382040849,27.2131572 0.0338292711,22.5317604 L0.445836831,17.893844 Z" id="path-15"></path>
        <mask id="mask-16" maskContentUnits="userSpaceOnUse" maskUnits="objectBoundingBox" x="-2" y="-2" width="21" height="21">
            <rect x="-2" y="12" width="21" height="21" fill="white"></rect>
            <use xlink:href="#path-15" fill="black"></use>
        </mask>
        <path d="M6,8.50594045 C6,7.12194776 7.10966206,6 8.5,6 L8.5,6 C9.88071187,6 11,7.11577769 11,8.50594045 L11,13.737962 C11,15.1219547 10.083288,16.8878367 8.95853853,17.6779046 L8.5,18 L8.04146147,17.6779046 C6.91399343,16.8859271 6,15.1281248 6,13.737962 L6,8.50594045 Z" id="path-17"></path>
        <mask id="mask-18" maskContentUnits="userSpaceOnUse" maskUnits="objectBoundingBox" x="-1" y="-1" width="7" height="14">
            <rect x="5" y="5" width="7" height="14" fill="white"></rect>
            <use xlink:href="#path-17" fill="black"></use>
        </mask>
        <path d="M8.5,13 C12.4733027,12.9999999 13,7.87860279 13,6.5 C13,2.91014913 10.9852814,0 8.5,0 C6.01471863,0 4,2.91014913 4,6.5 C4,7.90016546 4.52669731,13.0000001 8.5,13 Z" id="path-19"></path>
        <mask id="mask-20" maskContentUnits="userSpaceOnUse" maskUnits="objectBoundingBox" x="-2" y="-2" width="13" height="17">
            <rect x="2" y="-2" width="13" height="17" fill="white"></rect>
            <use xlink:href="#path-19" fill="black"></use>
        </mask>
        <path d="M0.445836831,17.893844 C0.539084983,16.8441615 1.41878221,15.7244104 2.43272745,15.4005889 C2.43272745,15.4005889 6.37329542,14 8.61744386,14 C10.8518458,14 14.7963786,15.4059729 14.7963786,15.4059729 C15.7875045,15.7303036 16.6422587,16.8430523 16.7056752,17.893844 L16.9842621,22.5099439 C17.2672443,27.1988724 13.700339,31 9.00238073,31 L7.77582233,31 C3.08456879,31 -0.382040849,27.2131572 0.0338292711,22.5317604 L0.445836831,17.893844 Z" id="path-21"></path>
        <mask id="mask-22" maskContentUnits="userSpaceOnUse" maskUnits="objectBoundingBox" x="-2" y="-2" width="21" height="21">
            <rect x="-2" y="12" width="21" height="21" fill="white"></rect>
            <use xlink:href="#path-21" fill="black"></use>
        </mask>
        <path d="M6,8.50594045 C6,7.12194776 7.10966206,6 8.5,6 L8.5,6 C9.88071187,6 11,7.11577769 11,8.50594045 L11,13.737962 C11,15.1219547 10.083288,16.8878367 8.95853853,17.6779046 L8.5,18 L8.04146147,17.6779046 C6.91399343,16.8859271 6,15.1281248 6,13.737962 L6,8.50594045 Z" id="path-23"></path>
        <mask id="mask-24" maskContentUnits="userSpaceOnUse" maskUnits="objectBoundingBox" x="-1" y="-1" width="7" height="14">
            <rect x="5" y="5" width="7" height="14" fill="white"></rect>
            <use xlink:href="#path-23" fill="black"></use>
        </mask>
        <path d="M8.5,13 C12.4733027,12.9999999 13,7.87860279 13,6.5 C13,2.91014913 10.9852814,0 8.5,0 C6.01471863,0 4,2.91014913 4,6.5 C4,7.90016546 4.52669731,13.0000001 8.5,13 Z" id="path-25"></path>
        <mask id="mask-26" maskContentUnits="userSpaceOnUse" maskUnits="objectBoundingBox" x="-2" y="-2" width="13" height="17">
            <rect x="2" y="-2" width="13" height="17" fill="white"></rect>
            <use xlink:href="#path-25" fill="black"></use>
        </mask>
    </defs>
    <g id="Features" stroke="none" stroke-width="1" fill="none" fill-rule="evenodd">
        <g id="Forums" transform="translate(-980.000000, -4353.000000)">
            <g id="groups" transform="translate(982.000000, 4354.000000)">
                <g id="Polygon-1-Copy-21">
                    <use fill="#FFFFFF" fill-rule="evenodd" xlink:href="#path-1"></use>
                    <use stroke="#226E88" mask="url(#mask-2)" stroke-width="4" xlink:href="#path-1"></use>
                </g>
                <g id="Group-87" transform="translate(11.000000, 15.000000)">
                    <path d="M39,72 C53.9116882,72 66,59.9116882 66,45 C66,30.0883118 53.9116882,18 39,18 C24.0883118,18 12,30.0883118 12,45 C12,59.9116882 24.0883118,72 39,72 Z" id="Oval-155" stroke="#226E88" stroke-linecap="round"></path>
                    <g id="Group-3" transform="translate(30.000000, 54.000000)">
                        <g id="Rectangle-561">
                            <use fill="#FFFFFF" fill-rule="evenodd" xlink:href="#path-3"></use>
                            <use stroke="#226E88" mask="url(#mask-4)" stroke-width="4" xlink:href="#path-3"></use>
                        </g>
                        <g id="Rectangle-254">
                            <use fill="#FFFFFF" fill-rule="evenodd" xlink:href="#path-5"></use>
                            <use stroke="#226E88" mask="url(#mask-6)" stroke-width="2" xlink:href="#path-5"></use>
                        </g>
                        <g id="Oval-353">
                            <use fill="#FFFFFF" fill-rule="evenodd" xlink:href="#path-7"></use>
                            <use stroke="#226E88" mask="url(#mask-8)" stroke-width="4" xlink:href="#path-7"></use>
                        </g>
                    </g>
                    <g id="Group-3-Copy-3" transform="translate(30.000000, 0.000000)">
                        <g id="Rectangle-561">
                            <use fill="#FFFFFF" fill-rule="evenodd" xlink:href="#path-9"></use>
                            <use stroke="#226E88" mask="url(#mask-10)" stroke-width="4" xlink:href="#path-9"></use>
                        </g>
                        <g id="Rectangle-254">
                            <use fill="#FFFFFF" fill-rule="evenodd" xlink:href="#path-11"></use>
                            <use stroke="#226E88" mask="url(#mask-12)" stroke-width="2" xlink:href="#path-11"></use>
                        </g>
                        <g id="Oval-353">
                            <use fill="#FFFFFF" fill-rule="evenodd" xlink:href="#path-13"></use>
                            <use stroke="#226E88" mask="url(#mask-14)" stroke-width="4" xlink:href="#path-13"></use>
                        </g>
                    </g>
                    <g id="Group-3-Copy" transform="translate(60.000000, 30.000000)">
                        <g id="Rectangle-561">
                            <use fill="#FFFFFF" fill-rule="evenodd" xlink:href="#path-15"></use>
                            <use stroke="#226E88" mask="url(#mask-16)" stroke-width="4" xlink:href="#path-15"></use>
                        </g>
                        <g id="Rectangle-254">
                            <use fill="#FFFFFF" fill-rule="evenodd" xlink:href="#path-17"></use>
                            <use stroke="#226E88" mask="url(#mask-18)" stroke-width="2" xlink:href="#path-17"></use>
                        </g>
                        <g id="Oval-353">
                            <use fill="#FFFFFF" fill-rule="evenodd" xlink:href="#path-19"></use>
                            <use stroke="#226E88" mask="url(#mask-20)" stroke-width="4" xlink:href="#path-19"></use>
                        </g>
                    </g>
                    <g id="Group-3-Copy-2" transform="translate(0.000000, 30.000000)">
                        <g id="Rectangle-561">
                            <use fill="#FFFFFF" fill-rule="evenodd" xlink:href="#path-21"></use>
                            <use stroke="#226E88" mask="url(#mask-22)" stroke-width="4" xlink:href="#path-21"></use>
                        </g>
                        <g id="Rectangle-254">
                            <use fill="#FFFFFF" fill-rule="evenodd" xlink:href="#path-23"></use>
                            <use stroke="#226E88" mask="url(#mask-24)" stroke-width="2" xlink:href="#path-23"></use>
                        </g>
                        <g id="Oval-353">
                            <use fill="#FFFFFF" fill-rule="evenodd" xlink:href="#path-25"></use>
                            <use stroke="#226E88" mask="url(#mask-26)" stroke-width="4" xlink:href="#path-25"></use>
                        </g>
                    </g>
                </g>
            </g>
        </g>
    </g>
</svg>