<svg id="Layer_1" data-name="Layer 1" xmlns="http://www.w3.org/2000/svg" xmlns:xlink="http://www.w3.org/1999/xlink" viewBox="0 0 1910.51 1610.44"><defs><style>.cls-1,.cls-2,.cls-25,.cls-28,.cls-3,.cls-30,.cls-31,.cls-4{fill:none;}.cls-2,.cls-3,.cls-4{stroke:#fc9;stroke-width:3px;}.cls-2,.cls-25,.cls-3,.cls-31,.cls-4{stroke-miterlimit:10;}.cls-3{stroke-dasharray:11.95 11.95 9.96 11.95;}.cls-4{stroke-dasharray:11.95 9.96 11.95 11.95 9.96 11.95;}.cls-22,.cls-5{fill:#fc9;}.cls-6{fill:#f96;}.cls-7{fill:#ff7900;}.cls-19,.cls-8{fill:#c60;}.cls-25,.cls-8{opacity:0.56;}.cls-21,.cls-9{fill:#cc742b;}.cls-10{fill:#696;}.cls-11{fill:#82b378;}.cls-12{fill:#339;}.cls-13{fill:#ea9e6a;}.cls-14{fill:#d88d59;}.cls-15{fill:#f2aa79;}.cls-16{fill:#336;}.cls-17{fill:#233862;}.cls-18{fill:#ffb069;}.cls-20{fill:#ffbd7b;}.cls-21{opacity:0.55;}.cls-22{font-size:88.45px;font-family:MyriadPro-Regular, Myriad Pro;}.cls-23{fill:#c63;}.cls-24{clip-path:url(#clip-path);}.cls-25{stroke:#c60;stroke-width:7px;}.cls-26{fill:#99c;}.cls-27{fill:#006;}.cls-28,.cls-30{stroke:#000;stroke-linecap:round;stroke-linejoin:round;}.cls-28{stroke-width:0.95px;}.cls-29{fill:#ccc;}.cls-30{stroke-width:0.82px;}.cls-31{stroke:#ffc;stroke-width:2px;}.cls-32{fill:#019d83;}.cls-33{fill:#066;}.cls-34{fill:#19243f;}.cls-35{clip-path:url(#clip-path-2);}.cls-36{fill:#ee9849;}.cls-37{fill:#e58638;}.cls-38{fill:#ce6d25;}.cls-39{fill:#d38957;}.cls-40{fill:#2f5791;}.cls-41{fill:#b74b42;}.cls-42{fill:#e49963;}.cls-43{fill:#c65447;}.cls-44{fill:#365da4;}.cls-45{fill:#163560;}.cls-46{fill:#d68d5d;}.cls-47{fill:#c45446;}.cls-48,.cls-53{fill:#e37970;}.cls-49{fill:#466aa5;}.cls-50{fill:#699dee;}.cls-51{fill:#3b76ca;}.cls-52{fill:#dde3f2;}.cls-53{opacity:0.2;}</style><clipPath id="clip-path" transform="translate(-9.47 -49.19)"><path class="cls-1" d="M84.56,1531.72c41.6,23.37,109.61,30,186.68,19.19,124.23-17.36,237.25-75.12,260.64-105,18-22.87,22.09-50.4,17.6-79.45-3.47-22.5,6.64-189.09-39.7-252-41.53-56.34-135.26-9.78-212-24.33-58.67-11.12-136.21-4-221.41,61.08-54,41-73.28,98.79-75.25,158.44C-1.51,1386.73,30,1501.08,84.56,1531.72Z"/></clipPath><clipPath id="clip-path-2" transform="translate(-9.47 -49.19)"><path class="cls-1" d="M1410.68,931.12c45.41,22.44,119.64,28.77,203.77,18.42,135.6-16.66,259-72.12,284.5-100.8,19.61-22,24.12-48.38,19.21-76.28-7.18-41-97.53-235.69-274.72-265.24-64-10.68-148.68-3.87-241.68,58.64-59,39.37-80,94.84-82.14,152.11C1316.73,791.93,1351.07,901.71,1410.68,931.12Z"/></clipPath></defs><title>Untitled-4</title><path class="cls-2" d="M339.22,292.09l6,.45" transform="translate(-9.47 -49.19)"/><path class="cls-3" d="M355.12,293.32c9.42.76,22.82,1.85,39.7,3.29" transform="translate(-9.47 -49.19)"/><path class="cls-4" d="M400.77,297.12c271.93,23.39,1352.13,129,1352.13,330.46,0,230.49-56.16,241.44-56.16,241.44-64.18,84.13-1364.57,208-1358.17,479.06,1.69,71.54-18.37,61,67.3,121.94,97.28,69.25,505.85,110.21,659,68.23" transform="translate(-9.47 -49.19)"/><path class="cls-2" d="M1070.62,1536.6c2-.59,3.86-1.19,5.72-1.81" transform="translate(-9.47 -49.19)"/><path class="cls-5" d="M865.18,459.75,194,492.21C109.53,496.3,49,411,81.53,332.92l.91-2.17c22.62-52.89,70.49-102.09,170.45-101.1,214.79,2.13,198.3-114.4,348.65-121.86,61.23-3,98.56,52,87.55,130.51-18,128.05,176.44,43.27,193.07,201.54A18,18,0,0,1,865.18,459.75Z" transform="translate(-9.47 -49.19)"/><rect class="cls-6" x="335.52" y="106.92" width="83.9" height="76.35" rx="10.3"/><polygon class="cls-5" points="343.64 129.04 401.66 124.03 371.36 143.72 343.64 129.04"/><polygon class="cls-7" points="373.34 174.92 401.66 124.03 371.3 143.63 373.34 174.92"/><path class="cls-8" d="M465.78,239.44h-47.4s-21,1.42-13.47,36.7,32.33,106.78,24.79,128.41h52.79Z" transform="translate(-9.47 -49.19)"/><path class="cls-9" d="M572.84,368.55c-6.28-30.8-16.37-82.76-21.73-110.44a23.06,23.06,0,0,0-22.64-18.67H453.92a23.05,23.05,0,0,0-22.71,27l20.64,119a23.07,23.07,0,0,0,25.25,19l75.67-8.34A23.06,23.06,0,0,0,572.84,368.55Z" transform="translate(-9.47 -49.19)"/><path class="cls-10" d="M285.61,402.49s45.75-25.62,24.4-60.39c0,0-17.08-21.36-35.38-26.85,0,0,9.76,51.86,0,53.08s-6.71-58.57-6.71-58.57-48.2-23.18-67.11-21.35c0,0,29.89,50.64,20.13,49.42s-43.31-52.47-43.31-52.47-49.42-9.15-57.35,20.13,4.88,43.93,12.2,45.76,54.3,1.22,53.08,7.32-32.95,15.86-50.64,10.37c0,0,19.52,48.2,45.15,45.76s33.55-18.31,49.41-19.53,27.46,3.05,19.53,7.32-34.78,1.4-47.59,12.29-23.18,17.61.61,22.49,66.5,1.83,75-16.47Z" transform="translate(-9.47 -49.19)"/><path class="cls-11" d="M142.85,314.64S271,356.13,285.61,402.49c0,0-.61,20.75,12.2,44.54v9.15s-13.42-31.11-20.74-35.38C277.07,420.8,305.74,380.53,142.85,314.64Z" transform="translate(-9.47 -49.19)"/><path class="cls-11" d="M309.68,486.54l-7.31.41c-.23-10.59-1.47-22.9-5.08-32h0c-.45-1.14-.94-2.22-1.47-3.26a.08.08,0,0,0,0,0c-1.51-3-2.54-5.16-3.19-6.75h0c-3.74-9.18,5.21,2.1,5.21,2.1A85.86,85.86,0,0,1,309.68,486.54Z" transform="translate(-9.47 -49.19)"/><path class="cls-12" d="M592,272l12.37,130s-14.05,15-69.68,20.15c-1.38.13-2.79.26-4.24.37-31.92,2.58-43.77-38.6-47.92-77A412.53,412.53,0,0,1,481,281.91C555.55,250.53,592,272,592,272Z" transform="translate(-9.47 -49.19)"/><path class="cls-12" d="M713.33,375.4c-11,5.13-76.71,9.43-83,7.62-3.23-.94-16.77-12.86-30.39-27.53h0c-12.89-13.88-25.89-30.21-30.27-42a71.9,71.9,0,0,1-1.27-45.6s16.76-.07,23.59,4.05,45.89,76.06,51.11,78,67.09,5.45,74.17,8.81C717.24,358.74,724.36,370.28,713.33,375.4Z" transform="translate(-9.47 -49.19)"/><path class="cls-13" d="M553.21,267.76l0,4.06s1.13,12.72-14.53,14.6-27.53-4.92-27.12-14.73c1.4-7.6,2.94-12.82,3-19.11A44.67,44.67,0,0,0,514,245l30.34-.66,8.94,1.45Z" transform="translate(-9.47 -49.19)"/><path class="cls-14" d="M553.29,245.76l-.08,22a25.78,25.78,0,0,1-10.93,2.43c-13.95,0-27.83-22.42-28.27-25.22Z" transform="translate(-9.47 -49.19)"/><path class="cls-15" d="M555.08,256.45s-38.85,7.91-43.41-16.36-12.63-39.6,12-45.68,31.19,2.28,34.68,10S565.07,253.76,555.08,256.45Z" transform="translate(-9.47 -49.19)"/><path class="cls-16" d="M565.85,186.38A81.57,81.57,0,0,1,542.22,180c-10.38-4.49-23.46.49-27.7,2.74a6.22,6.22,0,0,1,1-2.56,5.73,5.73,0,0,0-2.19,3.25c-.19.14-.28.24-.23.28a7.24,7.24,0,0,0-3.55.23s1-.14,1.32.49a.64.64,0,0,0,.16.17C494.88,192.46,493.43,218,498.65,224c6.27,7.11,13.81,23.14,13.81,23.14s2.73-3.8,1.59-10.06,4.26-6.27,11.09-9.13,1.12-10.83,7.1-15.68,27.9-2,27.61-5.74C568,203.51,565.86,187.21,565.85,186.38Z" transform="translate(-9.47 -49.19)"/><path class="cls-16" d="M534.65,422.16c-1.38.13-2.79.26-4.24.37-31.92,2.58-43.77-38.6-47.92-77C486.35,347.38,538.69,374,534.65,422.16Z" transform="translate(-9.47 -49.19)"/><path class="cls-13" d="M506.33,386.28s11.26-7.3,15-6.64,19,5.14,21.06,7.63c3.26,3.89,9,10.06,5.74,10.72s-32.27,2.11-35.61,1.82S501.38,396.27,506.33,386.28Z" transform="translate(-9.47 -49.19)"/><path class="cls-12" d="M494.69,277.4s-23.49,5.26-35.26,18.77c-10.69,12.28-41.66,72.23-50.19,93.8-1.35,3.43,2.47,10.9,5.54,12.95,7.7,5.12,23.55,8.84,62.76,2.37l35.05-5.11s2.56-15.74-5.06-19l-56.76-.78s32.51-33.65,38.79-43.32S494.69,277.4,494.69,277.4Z" transform="translate(-9.47 -49.19)"/><path class="cls-17" d="M713.33,375.4c-11,5.13-76.71,9.43-83,7.62-3.23-.94-16.77-12.86-30.39-27.53.67.09,22.1,3.14,35.3,14.55,0,0,7.44,3.31,27.68,1.46S709.14,369,713.33,375.4Z" transform="translate(-9.47 -49.19)"/><path class="cls-7" d="M498.59,275.21s-24.58,5.5-32.65,12.3-6.51,8.66-6.51,8.66,3.1,4.7,15.6-.46,28.86-15.38,28.86-15.38S503.4,275.35,498.59,275.21Z" transform="translate(-9.47 -49.19)"/><path class="cls-7" d="M557.86,264.85s1.48,3.57,3.72,4.06,24.53,6.49,27.45,4.77-5.25-8.68-17-9.18S557.86,264.85,557.86,264.85Z" transform="translate(-9.47 -49.19)"/><path class="cls-7" d="M648.82,393.26H573.75a6,6,0,0,1,6-6h69.09Z" transform="translate(-9.47 -49.19)"/><polygon class="cls-7" points="639.13 262.31 755.19 262.31 727.35 344.07 610.53 344.07 639.13 262.31"/><polygon class="cls-18" points="756.9 262.31 729.06 344.07 612.24 344.07 640.84 262.31 756.9 262.31"/><path class="cls-7" d="M703.8,351.62a7.54,7.54,0,0,1-7,5.66c-3.13,0-5.07-2.53-4.35-5.66a7.55,7.55,0,0,1,7-5.65A4.35,4.35,0,0,1,703.8,351.62Z" transform="translate(-9.47 -49.19)"/><polygon class="cls-7" points="756.9 262.31 729.06 344.07 674.72 344.07 739.81 262.31 756.9 262.31"/><path class="cls-19" d="M793.31,458.87,310.38,486.55l28.31-61a48.94,48.94,0,0,1,46-32.29H748.86a34,34,0,0,1,32.69,24.63Z" transform="translate(-9.47 -49.19)"/><path class="cls-20" d="M866.36,458.87,436.43,480.66l-.88-38.59a46.4,46.4,0,0,1,46.34-48.81H842.08a34,34,0,0,1,32.7,24.63L881,439.48A15.2,15.2,0,0,1,866.36,458.87Z" transform="translate(-9.47 -49.19)"/><path class="cls-21" d="M866.22,458.87,611.89,471.93c-15.28-26.5-29.41-63.45-38.58-78.67H842.08a34,34,0,0,1,32.7,24.63l6.15,21.45A15.31,15.31,0,0,1,866.22,458.87Z" transform="translate(-9.47 -49.19)"/><rect class="cls-7" x="461.22" y="2.49" width="89.47" height="81.41" rx="6.56"/><text class="cls-22" transform="translate(485.91 74.03)">?</text><path class="cls-7" d="M519.6,173.3a1.38,1.38,0,1,0,.72,1.8A1.38,1.38,0,0,0,519.6,173.3Z" transform="translate(-9.47 -49.19)"/><path class="cls-7" d="M509.68,161.94a2.6,2.6,0,1,0,1.38,3.41A2.59,2.59,0,0,0,509.68,161.94Z" transform="translate(-9.47 -49.19)"/><path class="cls-7" d="M503.62,143.15a4.13,4.13,0,1,0,2.18,5.42A4.12,4.12,0,0,0,503.62,143.15Z" transform="translate(-9.47 -49.19)"/><path class="cls-23" d="M703.31,156.8h-109a5.47,5.47,0,0,0-5.45,5.45v55.29a5.46,5.46,0,0,0,5.45,5.45h9.21l-4.45,18.79L627,223h76.29a5.47,5.47,0,0,0,5.46-5.45V162.25A5.48,5.48,0,0,0,703.31,156.8Z" transform="translate(-9.47 -49.19)"/><path class="cls-6" d="M697.07,181.44H600.79a2.4,2.4,0,0,0-2.39,2.39h0a2.39,2.39,0,0,0,2.39,2.38h96.28a2.39,2.39,0,0,0,2.39-2.38h0A2.4,2.4,0,0,0,697.07,181.44Z" transform="translate(-9.47 -49.19)"/><path class="cls-6" d="M697.07,192.11H600.79a2.39,2.39,0,1,0,0,4.77h96.28a2.39,2.39,0,1,0,0-4.77Z" transform="translate(-9.47 -49.19)"/><path class="cls-6" d="M697.07,202.79H600.79a2.39,2.39,0,1,0,0,4.77h96.28a2.39,2.39,0,1,0,0-4.77Z" transform="translate(-9.47 -49.19)"/><path class="cls-6" d="M603.74,169.63h40.88a2.84,2.84,0,0,0,0-5.67H603.74a2.84,2.84,0,1,0,0,5.67Z" transform="translate(-9.47 -49.19)"/><rect class="cls-6" x="643.43" y="114.76" width="29.08" height="5.68" rx="2.24"/><polygon class="cls-7" points="843.04 232.75 934.33 237.84 868.21 194.01 867.45 210.78 846.47 218.45 843.04 232.75"/><polygon class="cls-5" points="934.33 237.84 853.55 198.5 780.26 202.86 934.33 237.84"/><polygon class="cls-5" points="868.21 194.01 934.33 237.84 877.61 163.56 868.21 194.01"/><polygon class="cls-7" points="566.77 1222.66 639.15 1210.87 583.37 1193.91 584.17 1204.69 568.28 1213.01 566.77 1222.66"/><polygon class="cls-5" points="639.15 1210.87 572.2 1199.18 514.8 1214.01 639.15 1210.87"/><polygon class="cls-5" points="583.37 1193.91 639.15 1210.87 588.24 1173.02 583.37 1193.91"/><path class="cls-5" d="M88.93,1535.68c39.55,19.55,104.21,25.06,177.48,16,118.11-14.51,225.55-62.81,247.79-87.79,17.08-19.13,21-42.15,16.74-66.44-6.26-35.69-85-205.28-239.28-231-55.78-9.31-129.49-3.37-210.5,51.07-51.35,34.29-69.67,82.6-71.54,132.48C7.1,1414.45,37,1510.07,88.93,1535.68Z" transform="translate(-9.47 -49.19)"/><g class="cls-24"><line class="cls-25" x1="291.26" y1="1321.19" x2="291.26" y2="1504.31"/><path class="cls-9" d="M200.62,1385H400.84a9.23,9.23,0,0,0,9.23-9.23h0a9.23,9.23,0,0,0-9.23-9.23H200.62a9.22,9.22,0,0,0-9.22,9.23h0A9.22,9.22,0,0,0,200.62,1385Z" transform="translate(-9.47 -49.19)"/><path class="cls-25" d="M116.4,1257.23h63.1a0,0,0,0,1,0,0v208.49a10.18,10.18,0,0,1-10.18,10.18H126.58a10.18,10.18,0,0,1-10.18-10.18V1257.23A0,0,0,0,1,116.4,1257.23Z" transform="translate(286.42 2683.93) rotate(180)"/><line class="cls-25" x1="213.74" y1="1426.71" x2="213.74" y2="1609.82"/><line class="cls-25" x1="123.11" y1="1426.71" x2="123.11" y2="1609.82"/><path class="cls-9" d="M106.71,1487.17H245a11.28,11.28,0,0,0,11.27-11.27h0A11.27,11.27,0,0,0,245,1464.63H106.71a11.26,11.26,0,0,0-11.27,11.27h0A11.27,11.27,0,0,0,106.71,1487.17Z" transform="translate(-9.47 -49.19)"/><polygon class="cls-14" points="322.72 1501.96 311.46 1570.6 279.05 1569.24 284.14 1499.73 322.72 1501.96"/><path class="cls-26" d="M323.47,1612.17l57.65,26.29a9.14,9.14,0,0,1,4.8,10.24H284.24l3.78-37Z" transform="translate(-9.47 -49.19)"/><rect class="cls-27" x="282.44" y="1648.7" width="104.77" height="10.94" transform="translate(660.18 3259.14) rotate(180)"/><path class="cls-28" d="M296.31,1628.92a9,9,0,1,0,8.83-9.13A9,9,0,0,0,296.31,1628.92Z" transform="translate(-9.47 -49.19)"/><line class="cls-28" x1="332.75" y1="1568.21" x2="325.5" y2="1574.87"/><line class="cls-28" x1="340.2" y1="1571.81" x2="332.9" y2="1578.52"/><line class="cls-28" x1="348.06" y1="1575.85" x2="340.4" y2="1582.87"/><path class="cls-16" d="M361.14,1449.3l-20.59,132.9-63.13.85L298,1402h20.57A42.74,42.74,0,0,1,361.14,1449.3Z" transform="translate(-9.47 -49.19)"/><polygon class="cls-15" points="295.69 1501.96 284.43 1570.6 252.02 1569.24 257.11 1499.73 295.69 1501.96"/><path class="cls-29" d="M296.44,1612.17l57.65,26.29a9.13,9.13,0,0,1,4.8,10.24H257.21l3.78-37Z" transform="translate(-9.47 -49.19)"/><rect class="cls-16" x="255.42" y="1648.7" width="104.77" height="10.94" transform="translate(606.12 3259.14) rotate(180)"/><path class="cls-30" d="M269.28,1628.92a9,9,0,1,0,8.83-9.13A9,9,0,0,0,269.28,1628.92Z" transform="translate(-9.47 -49.19)"/><line class="cls-28" x1="305.72" y1="1568.43" x2="298.47" y2="1574.87"/><line class="cls-28" x1="313.17" y1="1572.03" x2="305.87" y2="1578.52"/><line class="cls-28" x1="321.03" y1="1576.07" x2="313.37" y2="1582.87"/><path class="cls-12" d="M123.21,1400.69l162.83,1h5.62c.54,0,1.06.07,1.6.09l3.89,0s38,1.77,37.21,40.12c0,.22-.05.45-.06.67a43.12,43.12,0,0,1-.19,6L313.52,1588.7l-63.13.85L264,1464.67H169.65l-4.35,0C129,1464.46,116,1437.62,123.21,1400.69Z" transform="translate(-9.47 -49.19)"/><path class="cls-23" d="M267,1239.93a10.33,10.33,0,1,0-9.55-11A10.34,10.34,0,0,0,267,1239.93Zm1.26-17.31a7,7,0,1,1-7.52,6.5A7,7,0,0,1,268.22,1222.62Z" transform="translate(-9.47 -49.19)"/><path class="cls-6" d="M231.85,1214.81s-5.95,28.72,15.82,30.71,18-29.55,18-29.55Z" transform="translate(-9.47 -49.19)"/><path class="cls-31" d="M258.76,1213.57s14.05-8.74,1-21.71-3.91-11.2,5.6-22.79-5.24-25.12-5.24-25.12" transform="translate(-9.47 -49.19)"/><path class="cls-31" d="M243.73,1212.36s14-11,.88-24-3.92-11.2,5.6-22.79-5.24-25.12-5.24-25.12" transform="translate(-9.47 -49.19)"/><path class="cls-15" d="M270.48,1253.15l21,7.36,1.73,39.67c-9.45-1.22-17.29-2.31-26.79-3.07Z" transform="translate(-9.47 -49.19)"/><path class="cls-15" d="M266.56,1264.73a22.13,22.13,0,1,0-5.65-30.77A22.13,22.13,0,0,0,266.56,1264.73Z" transform="translate(-9.47 -49.19)"/><path class="cls-15" d="M275.68,1224.68s3-9.63,13.06-3.79,19.77,18.93,8.6,38.19Z" transform="translate(-9.47 -49.19)"/><path class="cls-32" d="M187.64,1243.69s29.89,2.71,43.81,35.18S258,1312.53,258,1312.53l4-39.92H304s-2,10.77,0,30,5.38,63.16-25.6,63.8c-32,.67-66.84-25.48-66.84-25.48Z" transform="translate(-9.47 -49.19)"/><path class="cls-32" d="M221.87,1275.35c-.82-11.91-8.89-22.06-19.51-27.49-8.23-4.21-17.92-8-25.53-7.43-10.25.74-20.11-.3-32.27.55-15.92,1.12-30.41,12.14-36.75,24.35h0c-4.72,9.09-.91,24,.43,34.17l13.27,101.19,106.56.71Z" transform="translate(-9.47 -49.19)"/><path class="cls-33" d="M225.61,1351.09c-4.67-56-7.72-76.32-7.72-76.32l23.54,83.16Z" transform="translate(-9.47 -49.19)"/><path class="cls-33" d="M130.61,1400.55c-4.67-56,14.92-130.2,14.92-130.2,12,48.09,27.08,92.58,47.62,130.69Z" transform="translate(-9.47 -49.19)"/><path class="cls-32" d="M126.28,1250.79s-17.08-.3-28.69,36c-12.57,39.33-18.84,47.11-22.33,79.93s55.5,3.37,55.5,3.37,19.23-69,15-95.55C145.8,1274.56,156.05,1245.26,126.28,1250.79Z" transform="translate(-9.47 -49.19)"/><path class="cls-15" d="M166.1,1348.21l13.77-15.32a10.93,10.93,0,0,1,8.14-3.63H209.8L204,1336l-8.9,1.59c-1.16.1-2,.7-2,1.86h0c0,1.24,1,1.82,2.2,1.82h38.89s2.57,11.76-17.35,19.48-32.13,0-50.77,6.1Z" transform="translate(-9.47 -49.19)"/><path class="cls-34" d="M199.84,1341.27l13.74-17.36a1.69,1.69,0,0,1,1.43-.65l25.38,1.18a1.73,1.73,0,0,1,1.36,2.67l-9.29,14.16Z" transform="translate(-9.47 -49.19)"/><path class="cls-32" d="M167.62,1341.27c1.76-.54,10.41,41.63,10.41,41.63s-42.46,23.8-75.91,19.59c-36.9-4.65-25-47-25-47l29.71-6.7S126.57,1353.92,167.62,1341.27Z" transform="translate(-9.47 -49.19)"/><path class="cls-14" d="M190.79,1195.52a12.09,12.09,0,0,0,10.55,13.38,12.21,12.21,0,1,0-10.55-13.38Z" transform="translate(-9.47 -49.19)"/><path class="cls-15" d="M186,1216.39l-1,25.77c-.32,10.24-6.61,15.5-16.36,15.07h0c-8.33-.37-17.34-4.71-16.68-13.72l.18-42.27Z" transform="translate(-9.47 -49.19)"/><path class="cls-14" d="M185.19,1241.36s-18,7.11-29.8-17.83c-3.73-7.9,30.73-5.25,30.73-5.25Z" transform="translate(-9.47 -49.19)"/><path class="cls-15" d="M177.26,1233.2h0c16.65.59,30.84-12.49,31.79-26.51l1.85-29.34c1.19-17.57-11.32-32.93-28.28-34.7h0c-17.37-1.83-36,10.92-37.75,28.86l-1.16,22.88C142.64,1215,157.4,1231.12,177.26,1233.2Z" transform="translate(-9.47 -49.19)"/><path class="cls-34" d="M149.35,1191.57h5.55V1179.2s14.56-5.13,14-20.53l-12.73-17.32s-23.09-1.87-24.7,16.09,9.81,32.88,9.81,32.88Z" transform="translate(-9.47 -49.19)"/><path class="cls-15" d="M128.43,1193.69a12,12,0,0,0,10.44,13.25,11.83,11.83,0,0,0,12.85-10.81,12,12,0,0,0-10.44-13.24A11.83,11.83,0,0,0,128.43,1193.69Z" transform="translate(-9.47 -49.19)"/><path class="cls-34" d="M184.81,1133.64c3.33,1,6.78,2.07,10.16,3.21a18.18,18.18,0,0,1,23.27,27.22,13.58,13.58,0,0,1-6.75,5.25,15.55,15.55,0,0,1-1.54.54l-.18.06a18.16,18.16,0,0,1-5.68,1c-.21,0-.41-.05-.61-.06a45.79,45.79,0,0,1-6.78-.21c-22.28-2.28-33.43-13.43-33.43-13.43l-7.08-15.86S164.23,1127.38,184.81,1133.64Z" transform="translate(-9.47 -49.19)"/><path class="cls-23" d="M451.53,1115.76H311.1a7,7,0,0,0-7,7V1194a7,7,0,0,0,7,7H323l-5.73,24.21,36-24.21h98.31a7,7,0,0,0,7-7v-71.24A7,7,0,0,0,451.53,1115.76Z" transform="translate(-9.47 -49.19)"/><path class="cls-6" d="M443.48,1147.5h-124a3.08,3.08,0,0,0-3.07,3.07h0a3.09,3.09,0,0,0,3.07,3.08H443.48a3.09,3.09,0,0,0,3.08-3.08h0A3.09,3.09,0,0,0,443.48,1147.5Z" transform="translate(-9.47 -49.19)"/><path class="cls-6" d="M443.48,1161.25h-124a3.08,3.08,0,0,0,0,6.15H443.48a3.08,3.08,0,1,0,0-6.15Z" transform="translate(-9.47 -49.19)"/><path class="cls-6" d="M443.48,1175h-124a3.08,3.08,0,0,0,0,6.15H443.48a3.08,3.08,0,1,0,0-6.15Z" transform="translate(-9.47 -49.19)"/><path class="cls-6" d="M323.23,1132.29H375.9a3.66,3.66,0,1,0,0-7.32H323.23a3.66,3.66,0,0,0,0,7.32Z" transform="translate(-9.47 -49.19)"/><rect class="cls-6" x="377.1" y="1075.78" width="37.47" height="7.31" rx="2.89"/></g><path class="cls-5" d="M1410.68,931.12c45.41,22.44,119.64,28.77,203.77,18.42,135.6-16.66,259-72.12,284.5-100.8,19.61-22,24.12-48.38,19.21-76.28-7.18-41-97.53-235.69-274.72-265.24-64-10.68-148.68-3.87-241.68,58.64-59,39.37-80,94.84-82.14,152.11C1316.73,791.93,1351.07,901.71,1410.68,931.12Z" transform="translate(-9.47 -49.19)"/><g class="cls-35"><path class="cls-36" d="M1328.12,877.34h0a2.18,2.18,0,0,1-2.27-2.07c1.29-80.09-29.68-141.67-30-142.28-.53-1-.43-3.32,2.91-3.61,2.92-.25,4.73.38,5.25,1.41.08.15,7,14.81,14.66,40.28,7.08,23.48,12.45,61.94,11.77,104.26A2.2,2.2,0,0,1,1328.12,877.34Z" transform="translate(-9.47 -49.19)"/><path class="cls-36" d="M1397.19,877.34h0a2.18,2.18,0,0,1-2.26-2.07c1.29-80.09-29.68-141.67-30-142.28-.53-1-.43-3.32,2.91-3.61,2.92-.25,4.73.38,5.25,1.41.08.15,7,14.81,14.66,40.28,7.08,23.48,12.45,61.94,11.76,104.26A2.18,2.18,0,0,1,1397.19,877.34Z" transform="translate(-9.47 -49.19)"/><path class="cls-36" d="M1307.67,757.58a2.23,2.23,0,0,1-2.26-1.69,2.07,2.07,0,0,1,1.87-2.36c2-.3,49-7.31,70-1.46a2,2,0,0,1,1.51,2.55,2.36,2.36,0,0,1-2.88,1.34c-20-5.56-67.37,1.52-67.84,1.59A2.56,2.56,0,0,1,1307.67,757.58Z" transform="translate(-9.47 -49.19)"/><path class="cls-36" d="M1313,771.07a2.23,2.23,0,0,1-2.26-1.7,2.07,2.07,0,0,1,1.87-2.35c2-.3,49-7.31,70-1.46a2,2,0,0,1,1.5,2.55,2.36,2.36,0,0,1-2.88,1.34c-20-5.56-67.36,1.52-67.83,1.59Z" transform="translate(-9.47 -49.19)"/><path class="cls-36" d="M1325.36,877.34h141.55s-3.3-13.68-85.27-11.64C1323.62,867.14,1325.36,877.34,1325.36,877.34Z" transform="translate(-9.47 -49.19)"/><path class="cls-37" d="M1313.84,1000.14c16.41-73,12.19-117.87,12.17-118.44,0-1.12,2.32-2.14,3.59-2.18s6.94-.33,7.6.63c.86,1.26,4.16,56.49-20.3,120Z" transform="translate(-9.47 -49.19)"/><path class="cls-37" d="M1434,1000.14c-16.41-73-12.19-117.87-12.17-118.44,0-1.12-2.31-2.14-3.58-2.18s-7-.33-7.61.63c-.86,1.26-4.16,56.49,20.3,120Z" transform="translate(-9.47 -49.19)"/><path class="cls-38" d="M1472.19,1000.14c-16.41-73-12.19-117.87-12.17-118.44,0-1.12-2.32-2.14-3.58-2.18s-7-.33-7.61.63c-.86,1.26-4.16,56.49,20.3,120Z" transform="translate(-9.47 -49.19)"/><path class="cls-38" d="M1355.39,1000.14c16.42-73,12.2-117.87,12.17-118.44,0-1.12,2.32-2.14,3.59-2.18s6.95-.33,7.6.63c.86,1.26,4.17,56.49-20.29,120Z" transform="translate(-9.47 -49.19)"/><path class="cls-37" d="M1467.71,881.7h-143a2.19,2.19,0,0,1-2.19-2.18h0a2.19,2.19,0,0,1,2.19-2.18h143a2.19,2.19,0,0,1,2.18,2.18h0A2.19,2.19,0,0,1,1467.71,881.7Z" transform="translate(-9.47 -49.19)"/><path class="cls-36" d="M1882.69,877.89h0a2.16,2.16,0,0,0,2.26-2.06c-1.29-80.09,29.69-141.67,30-142.29.52-1,.42-3.31-2.91-3.6-2.92-.25-4.73.38-5.26,1.41-.08.15-7,14.81-14.66,40.28-7.07,23.48-12.44,61.94-11.76,104.26A2.18,2.18,0,0,0,1882.69,877.89Z" transform="translate(-9.47 -49.19)"/><path class="cls-36" d="M1813.62,877.89h0a2.17,2.17,0,0,0,2.27-2.06c-1.29-80.09,29.68-141.67,30-142.29.52-1,.42-3.31-2.91-3.6-2.92-.25-4.73.38-5.25,1.41-.08.15-7,14.81-14.67,40.28-7.07,23.48-12.44,61.94-11.76,104.26A2.18,2.18,0,0,0,1813.62,877.89Z" transform="translate(-9.47 -49.19)"/><path class="cls-36" d="M1903.14,758.14a2.23,2.23,0,0,0,2.26-1.7,2.08,2.08,0,0,0-1.88-2.35c-2-.3-49-7.31-70-1.46a2,2,0,0,0-1.5,2.55,2.36,2.36,0,0,0,2.88,1.34c20-5.56,67.36,1.52,67.84,1.59Z" transform="translate(-9.47 -49.19)"/><path class="cls-36" d="M1897.77,771.63a2.23,2.23,0,0,0,2.26-1.7,2.07,2.07,0,0,0-1.88-2.35c-2-.3-49-7.31-70-1.46a2,2,0,0,0-1.51,2.55,2.34,2.34,0,0,0,2.88,1.33c20-5.55,67.36,1.52,67.84,1.6Z" transform="translate(-9.47 -49.19)"/><path class="cls-36" d="M1885.45,877.9H1743.9s3.29-13.68,85.27-11.64C1887.18,867.7,1885.45,877.9,1885.45,877.9Z" transform="translate(-9.47 -49.19)"/><path class="cls-37" d="M1897,1000.7c-16.42-73.05-12.19-117.88-12.17-118.44,0-1.12-2.32-2.15-3.59-2.18s-7-.33-7.6.63c-.86,1.26-4.17,56.49,20.29,120Z" transform="translate(-9.47 -49.19)"/><path class="cls-37" d="M1776.8,1000.7c16.42-73.05,12.2-117.88,12.18-118.44,0-1.12,2.31-2.15,3.58-2.18s7-.33,7.6.63c.86,1.26,4.17,56.49-20.29,120Z" transform="translate(-9.47 -49.19)"/><path class="cls-38" d="M1738.61,1000.7c16.42-73.05,12.2-117.88,12.18-118.44,0-1.12,2.31-2.15,3.58-2.18s7-.33,7.6.63c.86,1.26,4.17,56.49-20.29,120Z" transform="translate(-9.47 -49.19)"/><path class="cls-38" d="M1855.41,1000.7c-16.41-73.05-12.19-117.88-12.17-118.44,0-1.12-2.31-2.15-3.58-2.18s-7-.33-7.61.63c-.86,1.26-4.16,56.49,20.3,120Z" transform="translate(-9.47 -49.19)"/><path class="cls-37" d="M1743.1,882.26h143a2.19,2.19,0,0,0,2.18-2.18h0a2.19,2.19,0,0,0-2.18-2.18h-143a2.19,2.19,0,0,0-2.18,2.18h0A2.19,2.19,0,0,0,1743.1,882.26Z" transform="translate(-9.47 -49.19)"/><path class="cls-15" d="M1503.34,776s8.27-5.16,11.86-4.38,13.43,3.59,13.74,7.65-14,10.46-24.66,6.87S1503.34,776,1503.34,776Z" transform="translate(-9.47 -49.19)"/><path class="cls-39" d="M1459.47,992a4.24,4.24,0,0,0,2.42,3.91h0c2.82,1.56,7.31.37,12.69.13.68,0,1.75,1.3,2.3,1.3h.77c5.32.13,4.75,1.72,14.87,2.59,11.52,1,15.77-2.55,16.45-4.15.57-1.36-4.38-2.91-9.9-4.68l-.81-.25-2.21-.72c-6.58-2.19-13.06-4.78-14.67-11.44-1.72-7.06,3.44-26.77,3.44-26.77l-18.27-2s-1.76,20.61-2.91,27c-.62,3.43-2.17,6.15-3.08,9.09-.06.21-.13.41-.18.62A19.86,19.86,0,0,0,1459.47,992Z" transform="translate(-9.47 -49.19)"/><path class="cls-40" d="M1509,995.75c-.36.85-1.13,3.37-6,4.39h-18.34l-.16-.08a35.24,35.24,0,0,0-14.68-3,43,43,0,0,1-5.24-.21h0a7.21,7.21,0,0,1-2.38-.74h0l-.31-.19h0l-.27-.16h0a5.52,5.52,0,0,1-.47-.32l-.22-.18-.21-.19-.15-.15a3.48,3.48,0,0,1-.24-.28v0a1.09,1.09,0,0,1-.13-.17l-.13-.2s0,0,0,0v0l-.1-.17h0l-.06-.12-.08-.17-.1-.27-.06-.21a2.29,2.29,0,0,1-.07-.28,1.57,1.57,0,0,1,0-.23,1,1,0,0,1,0-.16,1.94,1.94,0,0,1,0-.24c0-.11,0-.22,0-.33v0a2.81,2.81,0,0,1,0-.29c0-.09,0-.19,0-.28s0-.2,0-.3a1.53,1.53,0,0,1,0-.3c0-.14,0-.29,0-.43v-.08a2.51,2.51,0,0,1,0-.27l.06-.4c0-.24.09-.47.14-.7s.05-.18.07-.28l.15-.66.09-.32c0-.22.11-.44.17-.65l.09-.32c0-.21.12-.41.18-.62,5.5,1.28,13.13,5.11,20.82,6.55l.35.06a33.5,33.5,0,0,0,10.94.08,31.88,31.88,0,0,0,6.4-1.65C1504.61,992.84,1509.56,994.39,1509,995.75Z" transform="translate(-9.47 -49.19)"/><polygon class="cls-40" points="1460.38 950.95 1460.38 949.6 1460.38 948.56 1460.38 947.82 1460.38 947.28 1460.05 947.23 1451.83 945.93 1452.14 946.51 1452.14 946.52 1452.14 946.52 1452.34 946.89 1452.95 948.03 1452.95 948.03 1454.52 950.95 1460.38 950.95"/><path class="cls-41" d="M1365.1,816.3l59.12-5.64s90.5.41,98.93,12.36c0,0,16.16,11.2-2.11,57.49s-39.71,92.55-39.71,92.55a41.71,41.71,0,0,1-13,.92,50.42,50.42,0,0,1-6.95-1.25s4.13-69.08,13.26-96,11.94-21.65-4.22-20.15-68.13,13.43-92,10.45S1365.1,816.3,1365.1,816.3Z" transform="translate(-9.47 -49.19)"/><path class="cls-42" d="M1448.07,992a4.25,4.25,0,0,0,2.42,3.91h0c2.81,1.56,7.3.37,12.68.13.69,0,1.75,1.3,2.31,1.3h.76c5.32.13,4.76,1.72,14.87,2.59,11.53,1,15.77-2.55,16.45-4.15.57-1.36-4.37-2.91-9.9-4.68l-.8-.25-2.21-.72c-6.58-2.19-13.06-4.78-14.68-11.44-1.71-7.06,3.44-26.77,3.44-26.77l-18.26-2s-1.77,20.61-2.91,27c-.62,3.43-2.18,6.15-3.08,9.09-.07.21-.13.41-.19.62A20.26,20.26,0,0,0,1448.07,992Z" transform="translate(-9.47 -49.19)"/><path class="cls-43" d="M1356.83,820.5l55.45-4.69s90.5.4,98.93,12c0,0,13.67,8.56-4.59,53.4s-36.77,94.17-36.77,94.17a46.7,46.7,0,0,1-9,.16c-6.24-.51-8.31-2.53-8.31-2.53s1.29-61.35,10.42-87.38,12.64-23.39-3.52-21.94-61.58,12.78-92.89,6.78C1342.86,865.91,1356.83,820.5,1356.83,820.5Z" transform="translate(-9.47 -49.19)"/><path class="cls-44" d="M1497.64,995.53a.59.59,0,0,1-.05.22c-.33.8-1,3-5,4.15-.3.09-.62.17-1,.24H1473.3a34.86,34.86,0,0,0-3.45-1.35,33,33,0,0,0-7.42-1.57h0c-1.43-.14-2.75-.19-4-.21-3.44,0-6,.09-7.94-1.14h0l-.27-.16h0a5.72,5.72,0,0,1-.48-.32l-.22-.18-.21-.19-.14-.15-.14-.16a.7.7,0,0,1-.13-.17.39.39,0,0,1-.08-.1,1.27,1.27,0,0,1-.13-.19l-.1-.17c0-.1-.11-.2-.15-.3h0c0-.07-.06-.14-.08-.2a1.31,1.31,0,0,1,0-.15,0,0,0,0,1,0,0v0c0-.07,0-.13-.06-.19a1.55,1.55,0,0,1,0-.23.85.85,0,0,1,0-.23l0-.15h0a1.94,1.94,0,0,0,0-.24c0-.11,0-.22,0-.33a19.48,19.48,0,0,1,.94-5.31c0-.21.11-.41.18-.62a108.74,108.74,0,0,1,10.5,3.55,68.76,68.76,0,0,0,10.32,3,33.48,33.48,0,0,0,11.74.06,30.71,30.71,0,0,0,5.94-1.57c1.79.57,3.51,1.12,5,1.65l.84.3.75.28.68.28.32.14.31.13.55.27.24.13c.16.09.31.18.44.27l.28.2.17.15.08.09a.85.85,0,0,1,.24.35.32.32,0,0,1,0,.09h0A.5.5,0,0,1,1497.64,995.53Z" transform="translate(-9.47 -49.19)"/><polygon class="cls-44" points="1448.98 947.28 1448.98 950.95 1443.12 950.95 1440.75 946.52 1440.74 946.52 1440.74 946.51 1440.44 945.93 1448.65 947.23 1448.98 947.28"/><path class="cls-36" d="M1507.38,786.71a5.7,5.7,0,0,1-.45,1.47c-2.34,5.15-51,11.71-57.13,8.43-2.72-1.46-6.68-26-10.22-52.73-4.38-33-8.13-69.32-8.13-69.32s20.22,6.37,22.56,17.15,2.81,77.27,8.9,80.55,31.85.47,40.75,1.87C1503.66,774.13,1508.31,781.5,1507.38,786.71Z" transform="translate(-9.47 -49.19)"/><path class="cls-45" d="M1432.78,598c-3.78-3-9.28-2.67-12.82-2.46a6,6,0,0,1,2.71-1.28c-2.2-.32-7.09,1.85-7.09,1.85S1397,586.65,1388.44,611c0,0,1.48-1.84,3.52-3.93-5,14,0,35.2,15.69,39C1417.81,648.5,1471.57,629.18,1432.78,598Z" transform="translate(-9.47 -49.19)"/><path class="cls-15" d="M1432.9,679.92c.11.05-9.8,5.19-17.25,3.15-7-1.91-11.59-11-11.49-11,3-.59,3.82-4.67,3.76-22.2l1.34.27,22.56,4.47s-.51,7.1-.53,13.79C1431.28,674,1431.62,679.32,1432.9,679.92Z" transform="translate(-9.47 -49.19)"/><path class="cls-46" d="M1431.82,654.59s-.51,7.1-.53,13.79c-12.62-.36-19.3-11.88-22-18.26Z" transform="translate(-9.47 -49.19)"/><path class="cls-45" d="M1406.93,647.66s-6.62-10.45-8.2-19.39c-1.14-6.38,2.11-30,25.88-26.63a32.32,32.32,0,0,1,13.4,5.06c5.16,3.49,12.61,11,4.28,31.66l-2.16,7Z" transform="translate(-9.47 -49.19)"/><path class="cls-15" d="M1436,660.92s-29.87.49-29.89-18.11-3.89-31.08,15.18-32.18,22.78,6,24.3,12.2S1443.81,660.31,1436,660.92Z" transform="translate(-9.47 -49.19)"/><path class="cls-45" d="M1434.93,610.17s-8.18,21.83-20.73,25.06-18-.13-18-.13a35.57,35.57,0,0,0,11.62-21S1428.76,599.78,1434.93,610.17Z" transform="translate(-9.47 -49.19)"/><path class="cls-37" d="M1443.34,702.12c-.52-2.12,4-3.72,5.05-1.83,2,3.54,2.46,8,3.28,11.55,2.34,10.15,0,24,0,24Z" transform="translate(-9.47 -49.19)"/><path class="cls-45" d="M1432.91,612s6.1,4.87,7.59,9.61,2.16,14.49,5,14.16c0,0,6.16-14.84-.77-23.23C1437.4,603.59,1432.91,612,1432.91,612Z" transform="translate(-9.47 -49.19)"/><path class="cls-37" d="M1507.38,786.71a5.7,5.7,0,0,1-.45,1.47c-2.34,5.15-51,11.71-57.13,8.43-2.72-1.46-7.5-32-4.06-59.32,3.68,15.62,4.8,47.66,13.42,49.17C1468.94,788.18,1494.6,784.91,1507.38,786.71Z" transform="translate(-9.47 -49.19)"/><path class="cls-36" d="M1453.49,737.13c-12.1,58.37-2,67.33-8.26,73.06,0,0-5.58,2.43-5.62,2.46-6.56,5.69-6.72-1.2-27.33,7.73-9.81,4.26-22.4,9.89-33.39,13.23a68.07,68.07,0,0,1-11.51,2.58c-6.62.78-11.56-.37-13.17-4.84-4.68-13,17.8-47.51,12.18-71.07-.05-.2-.1-.4-.14-.61a25.74,25.74,0,0,1-.27-7c1-13.14,9.35-32.23,17.94-48.54,9.5-18,19.35-32.58,20.24-32.06,25,14.86,27.29,2.51,27.29,2.51S1457.62,717.23,1453.49,737.13Z" transform="translate(-9.47 -49.19)"/><path class="cls-37" d="M1441.6,811.83h0c-6.56,5.69-8.71-.38-29.32,8.55-9.81,4.26-22.4,9.89-33.39,13.23-5.62,1-9.8,1.84-11.51,2.58-6.62.78-11.56-.37-13.17-4.84-4.68-13,17.8-47.51,12.18-71.07-.05-.2-.1-.4-.14-.61a21.75,21.75,0,0,1-.27-7c1.18-10,8.53-20.81,16.84-36.59,5.57,5.88,47.35-.94,37.47,57.14C1417.26,791,1439,798,1441.6,811.83Z" transform="translate(-9.47 -49.19)"/><path class="cls-47" d="M1512.39,785.65h0a9.81,9.81,0,0,0,17.18-6.48v-3.82a9.9,9.9,0,0,0-.08-1.23H1510a70.5,70.5,0,0,0,.43,7.27A9,9,0,0,0,1512.39,785.65Z" transform="translate(-9.47 -49.19)"/><path class="cls-48" d="M1527.89,774.12h-2.64a9.9,9.9,0,0,1,.08,1.23v3.82a9.83,9.83,0,0,1-8.49,9.72,8.2,8.2,0,0,0,1.32.1,9.85,9.85,0,0,0,9.81-9.82v-3.82A9.9,9.9,0,0,0,1527.89,774.12Z" transform="translate(-9.47 -49.19)"/><rect class="cls-47" x="1515.75" y="788.13" width="8.01" height="1.2" transform="translate(3030.03 1528.28) rotate(180)"/><path class="cls-15" d="M1439.57,814.8s9.21-2.19,13.42-.47,12.65,6.09,11.87,8.43-10.77,3.59-15,1.25-7.33.62-12.49-1.09S1439.57,814.8,1439.57,814.8Z" transform="translate(-9.47 -49.19)"/><path class="cls-36" d="M1404.16,672.05s-34,.46-40.06,16.85-4.22,74,4.68,91.32,59.48,40.74,65.1,41.68,9.13-7.73,8.89-8.66-53.15-43.79-52.92-48.24S1404.16,672.05,1404.16,672.05Z" transform="translate(-9.47 -49.19)"/><path class="cls-15" d="M1660.65,740.08s-8.68-10.52-10.55-11.76-10.06-3.42-10.53-3-.49,1.07.52,2,4.9,3.16,4.34,3.41-12.25-5.57-13.93-3.61,1,10,5.46,13.92,18,5.53,18.8,6.07C1661.94,751.68,1660.65,740.08,1660.65,740.08Z" transform="translate(-9.47 -49.19)"/><path class="cls-42" d="M1742,992.29a4.08,4.08,0,0,1-2.42,3.78h0c-2.82,1.5-7.76,1.65-13.14,1.42-.68,0-1.3,0-1.85,0h-.77c-5.32.12-4.76,1.67-14.87,2.51-11.52.95-15.77-2.47-16.45-4-.57-1.32,4.37-2.82,9.9-4.53l.81-.25,2.21-.69c6.58-2.12,13-4.64,14.67-11.09,1.71-6.84-3.44-25.93-3.44-25.93l18.27-1.91s1.76,20,2.9,26.18c.62,3.32,2.18,6,3.09,8.8l.18.6A18.72,18.72,0,0,1,1742,992.29Z" transform="translate(-9.47 -49.19)"/><path class="cls-43" d="M1742,992.29a4.08,4.08,0,0,1-2.42,3.78h0c-3,1.34-7.86,1.54-13.13,1.39-.68,0-1.3,0-1.86,0h-.77c-5.32.12-4.76,1.67-14.87,2.51-11.52.95-15.77-2.47-16.45-4-.57-1.32,4.37-2.82,9.9-4.53a35.13,35.13,0,0,0,17.68,1.46c7.69-1.4,15.33-5.11,20.83-6.35l.18.6A18.72,18.72,0,0,1,1742,992.29Z" transform="translate(-9.47 -49.19)"/><path class="cls-42" d="M1623.47,970.29c-1,5.07-8.24,4.23-16.32,2.25s-6.16.37-17.65-.9-15-5.56-15.34-7.27c-.31-1.51,5.37-2,11.46-2.75l2.31-.28c6.88-.86,11.92-5.3,18.17-8.94,5.92-3.46,14.75-17.53,14.75-17.53l15.77,1.25s-8.28,12.57-11.48,18c-1.88,3.22-1.78,7.47-1.55,10.75A19.88,19.88,0,0,1,1623.47,970.29Z" transform="translate(-9.47 -49.19)"/><path class="cls-43" d="M1607.15,972.54c-8.08-2-6.16.37-17.65-.9s-15-5.56-15.34-7.27c-.31-1.51,5.37-2,11.46-2.75l.06.12a32.38,32.38,0,0,0,16.47,5.11c7.8.19,16.06-2,21.44-2a19.88,19.88,0,0,1-.12,5.39C1622.46,975.36,1615.23,974.52,1607.15,972.54Z" transform="translate(-9.47 -49.19)"/><path class="cls-44" d="M1683.9,869.47l34,91.45a30.89,30.89,0,0,0,10.22-.94,43.77,43.77,0,0,0,9.89-4.81s-8.43-87.81-23.89-106.07S1683.9,869.47,1683.9,869.47Z" transform="translate(-9.47 -49.19)"/><path class="cls-49" d="M1818.3,832.48s-97.64-33-119.42-26-87.16,137.1-87.16,137.1,1.48,2,5.51,3.48c3.74,1.4,12.81,1.31,12.81,1.31s59-50.58,66-65.33,9.84-28.8,16.86-27.39,90.62,34.42,109.58,14.75,14-45.23,14-45.23Z" transform="translate(-9.47 -49.19)"/><path class="cls-41" d="M1758.63,678.88c-1.56-3.21-3.3-8.93-4.16-19.13.14,1,1.89,13.87,6.84,21.15,20.3,13.33,59.22,57.85,58.45,66.28,0,0,13.71-23.25,14-23.39,0,0,25.29-32.16-4.68-50.58-15.24-9.36-15.16-21.38-14.52-31.81s-4.16-55.37-34.67-43.62c0,0-4.9-2.17-7.09-1.85a6,6,0,0,1,2.7,1.29c-3.54-.21-8.6,0-12.82,2.45C1751.45,606,1741.43,663.06,1758.63,678.88Z" transform="translate(-9.47 -49.19)"/><path class="cls-15" d="M1762.51,681.56c-.1.05,9.8,5.19,17.25,3.15,7-1.91,11.59-11,11.5-11-3-.58-3.83-4.66-3.77-22.19l-1.34.26-22.56,4.47s.51,7.1.53,13.79C1764.13,675.64,1763.79,681,1762.51,681.56Z" transform="translate(-9.47 -49.19)"/><path class="cls-46" d="M1763.59,656.23s.51,7.1.53,13.79c12.62-.36,19.3-11.87,22-18.26Z" transform="translate(-9.47 -49.19)"/><path class="cls-41" d="M1788.48,649.31s6.62-10.46,8.21-19.4c1.13-6.38-2.12-30-25.89-26.63a32.26,32.26,0,0,0-13.4,5.07c-5.16,3.48-12.61,11-4.28,31.65l2.17,7Z" transform="translate(-9.47 -49.19)"/><path class="cls-15" d="M1759.37,662.56s29.88.5,29.9-18.11,3.89-31.08-15.18-32.18-22.79,6-24.31,12.21S1751.6,662,1759.37,662.56Z" transform="translate(-9.47 -49.19)"/><path class="cls-41" d="M1760.48,611.82s8.18,21.83,20.73,25,18-.13,18-.13a35.56,35.56,0,0,1-11.63-21S1766.65,601.43,1760.48,611.82Z" transform="translate(-9.47 -49.19)"/><path class="cls-41" d="M1762.51,613.59s-6.11,4.87-7.6,9.61-2.16,14.49-5,14.16c0,0-6.16-14.84.76-23.23C1758,605.23,1762.51,613.59,1762.51,613.59Z" transform="translate(-9.47 -49.19)"/><path class="cls-50" d="M1829,761.93c2.94-12.36-7.08-36.33-17.54-56.18-9.5-18-19.35-32.58-20.23-32.06-25,14.87-27.3,2.51-27.3,2.51s-22.74,3-29.18,14.11c-8.91,15.32-18.61,61.32-28.14,60.64-4.38-.31-48.4-16.86-48.4-16.86s-7.33,6.88-5.93,15.3c0,0,21.74,14.56,40.12,23.85,9.72,4.91,18.51,8.35,22.64,7.37,8.37-2,21.45-21.38,28.52-32.81l.05-.07c9,51.06-3.25,62.68,3,68.07,6.56,5.68,15.92-2.71,36.53,6.22,13.52,5.87,32.27,14.34,44.9,15.82,6.62.78,11.56-.38,13.17-4.85C1845.89,820,1823.41,785.48,1829,761.93Z" transform="translate(-9.47 -49.19)"/><path class="cls-51" d="M1841.2,833c-1.61,4.47-6.55,5.63-13.17,4.85-8.74-3.81-40.4-18.44-40-28.34.63-14.68,7.26-15.15,2.58-33.26-3.77-14.54,25-41.58,30.59-47.45,10.46,19.84,10.75,20.78,7.81,33.14C1823.41,785.48,1845.89,820,1841.2,833Z" transform="translate(-9.47 -49.19)"/><path class="cls-51" d="M1743.59,747.8c-7.07,11.43-20.15,30.84-28.52,32.81-4.13,1-12.92-2.46-22.64-7.37a58.74,58.74,0,0,0,20.69,1.13c7.25-.7,9.36-9.6,20.84-23C1741.4,742.77,1743.22,745,1743.59,747.8Z" transform="translate(-9.47 -49.19)"/><path class="cls-47" d="M1767.89,774.81c-.92-.57-2.71-.35-4-.07v-1.88a9.9,9.9,0,0,0-.08-1.23h-19.48a9.9,9.9,0,0,0-.08,1.23v3.82a9.8,9.8,0,0,0,17.18,6.47h0s4.63-1.14,6.09-2.86S1769.44,775.76,1767.89,774.81Zm-1,3.53c-.49,1.27-2.7,2-3.79,2.22a9.45,9.45,0,0,0,.78-3.23,2.9,2.9,0,0,1,2.52-1.32C1767.06,776.14,1767.48,776.74,1766.86,778.34Z" transform="translate(-9.47 -49.19)"/><path class="cls-48" d="M1745.84,772.85v3.83a9.84,9.84,0,0,0,9.81,9.82,8.2,8.2,0,0,0,1.32-.1,9.84,9.84,0,0,1-8.5-9.72v-3.83a9.87,9.87,0,0,1,.08-1.22h-2.63A8.24,8.24,0,0,0,1745.84,772.85Z" transform="translate(-9.47 -49.19)"/><rect class="cls-47" x="1740.57" y="736.45" width="8.01" height="1.2"/><path class="cls-15" d="M1778.56,775.89s-6.32-4.91-12.29-3.74-8.9,5.26-8.66,7.14,3.39,7.14,8,7.61,17.56-2.81,17.56-2.81Z" transform="translate(-9.47 -49.19)"/><path class="cls-50" d="M1791.26,673.69s24.34,1.5,32.77,13.26c11.87,16.55,32.47,84.1,26.85,99.56,0,0-23.11,2.43-39.62,2.43-8.61,0-34.45-2.74-34.45-2.74s-1.8-8.39.7-12.45,43.09-10.62,45-12.49-23.42-36.53-23.42-42.15S1791.26,673.69,1791.26,673.69Z" transform="translate(-9.47 -49.19)"/><path class="cls-19" d="M1779.94,792.72h-331.2a6.44,6.44,0,0,0-6.42,6.42v8.38a6.44,6.44,0,0,0,6.42,6.42h160V976.21c-28.15,1.13-52.13,10.79-61.91,23.93h134.53c-9.71-13.19-33.32-22.79-61.48-23.92V813.94h160a6.44,6.44,0,0,0,6.43-6.42v-8.38A6.44,6.44,0,0,0,1779.94,792.72Z" transform="translate(-9.47 -49.19)"/><polygon class="cls-47" points="1592.93 719.49 1592.67 725.43 1592.13 737.85 1591.88 743.57 1576.12 743.57 1575.76 737.85 1574.99 725.43 1574.62 719.49 1592.93 719.49"/><polygon class="cls-52" points="1593.23 715.47 1574.56 715.47 1573.79 719.49 1593.76 719.49 1593.23 715.47"/><polygon class="cls-48" points="1592.67 725.43 1592.13 737.85 1575.76 737.85 1574.99 725.43 1592.67 725.43"/><path class="cls-48" d="M1631.15,770.38l-.11,2.44-.08,1.8-.5,11.44,0,1-.25,5.72H1614.4l-.35-5.72-.06-1-.72-11.44-.11-1.8-.2-3.24,0-.1s3.68-.67,5.88.74,4.62-1.34,6.62-.54,2.15,1.8,3.75,1.14A8.09,8.09,0,0,1,1631.15,770.38Z" transform="translate(-9.47 -49.19)"/><polygon class="cls-53" points="1621.74 719.49 1621.67 721.19 1621.56 723.63 1621.48 725.43 1620.99 736.87 1620.94 737.85 1620.69 743.57 1604.93 743.57 1604.57 737.85 1604.51 736.87 1603.8 725.43 1603.69 723.63 1603.49 720.39 1603.43 719.49 1621.74 719.49"/><path class="cls-53" d="M1631.31,768.68a2.72,2.72,0,0,0,0-.28,9.18,9.18,0,1,0-18.35,0c0,.09,0,.18,0,.28Z" transform="translate(-9.47 -49.19)"/><path class="cls-47" d="M1620.56,791.31l-.8-.1c0-.51,2.61-34.45,3-36.71a4.36,4.36,0,0,1,3-3.26h0l12.84-2.27.13.79L1625.93,752a3.56,3.56,0,0,0-2.37,2.62C1623.17,756.87,1620.57,791.18,1620.56,791.31Z" transform="translate(-9.47 -49.19)"/><polygon class="cls-47" points="1621.56 723.63 1621.48 725.43 1620.99 736.87 1604.51 736.87 1603.8 725.43 1603.69 723.63 1621.56 723.63"/></g><polygon class="cls-7" points="1363.29 501.99 1265.81 533.86 1324.2 476.94 1330.13 490.85 1355.22 490.97 1363.29 501.99"/><polygon class="cls-5" points="1265.81 533.86 1341.47 476.3 1422.3 457.84 1265.81 533.86"/><polygon class="cls-5" points="1324.2 476.94 1265.81 533.86 1304.73 454.13 1324.2 476.94"/></svg>