<svg id="Layer_1" data-name="Layer 1" xmlns="http://www.w3.org/2000/svg" viewBox="0 0 1157.74 388.62"><defs><style>.cls-1{fill:#6c3506;}.cls-2{fill:#603813;}</style></defs><title>logo</title><path class="cls-1" d="M309.68,326.84,326,323.42c10.87-2.26,22.53-7.19,33.71-14.24,13.1-8.26,23.84-18.45,30.23-28.7,6.5-10.43,7.74-19.76,3.48-26.26-5.72-8.73-20.6-11.42-39.23-6.22l-3.58,1-.84,3a185,185,0,0,1-31.19,63.09Zm52.43-69.22c9.68-2.16,17.39-1.22,19.4,1.84,1.5,2.3,1.46,7.85-3.61,16-5.5,8.81-14.88,17.68-26.42,25a107.67,107.67,0,0,1-11.46,6.3A195.88,195.88,0,0,0,362.11,257.62Z" transform="translate(-5.39 -4.38)"/><path class="cls-1" d="M62.7,341c34,33.54,78.32,52,124.93,52,44.58,0,87.29-17,120.64-47.92,2.52.1,5,.06,7.55-.09,17.56-1.05,37.05-7.82,54.89-19.06,39.06-24.64,57.1-60.67,42-83.82h0c-8-12.24-24-18.31-43.83-17,.4-3.25.73-6.51,1-9.73A18.52,18.52,0,0,0,363.27,200a22,22,0,0,0-14.5-5.32H26.5A22,22,0,0,0,12,200a18.65,18.65,0,0,0-6.58,15.49C9,263.43,29.33,308,62.7,341ZM21.89,207.57a7,7,0,0,1,4.61-1.81H348.77a7,7,0,0,1,4.62,1.82,8.61,8.61,0,0,1,2.89,7.15c-.41,5.37-1,10.84-1.91,16.25l-1.24,7.76,9.35-1.61c18-3.12,31.94.61,38.24,10.22h0c11.66,17.82-5.51,49.12-38.28,69.79-15.76,9.93-32.66,15.89-47.61,16.78a57.11,57.11,0,0,1-8.68-.11l-3.57-.33-2.33,2.24C269.19,365.5,229.2,381.9,187.63,381.9,100,381.9,25.9,308.49,19,214.77A8.72,8.72,0,0,1,21.89,207.57Z" transform="translate(-5.39 -4.38)"/><path class="cls-1" d="M135.87,359.5a3.74,3.74,0,0,0,2.43-.82,2.48,2.48,0,0,0,1-1.93,2.59,2.59,0,0,0-1-2,4.05,4.05,0,0,0-4.8,0,2.59,2.59,0,0,0-1,2,2.49,2.49,0,0,0,1,1.93A3.8,3.8,0,0,0,135.87,359.5Z" transform="translate(-5.39 -4.38)"/><path class="cls-1" d="M161.91,348.92a3.74,3.74,0,0,0,2.43-.82,2.49,2.49,0,0,0,1-1.93,2.61,2.61,0,0,0-1-2,4,4,0,0,0-4.79,0,2.59,2.59,0,0,0-1,2,2.49,2.49,0,0,0,1,1.93A3.86,3.86,0,0,0,161.91,348.92Z" transform="translate(-5.39 -4.38)"/><path class="cls-1" d="M253.47,324.56a3.65,3.65,0,0,0,2.31-.79,2.47,2.47,0,0,0,1.11-2,2.77,2.77,0,0,0-1-2,4.11,4.11,0,0,0-2.54-.75,3.62,3.62,0,0,0-2.23.77,2.61,2.61,0,0,0-1.06,2,2.66,2.66,0,0,0,1,1.94A3.87,3.87,0,0,0,253.47,324.56Z" transform="translate(-5.39 -4.38)"/><path class="cls-1" d="M220.05,337.15a3.67,3.67,0,0,0,2.36-.81,2.68,2.68,0,0,0,1.06-2,2.36,2.36,0,0,0-1.06-1.94,3.92,3.92,0,0,0-4.77,0,2.49,2.49,0,0,0-1,1.94,2.56,2.56,0,0,0,1,1.89A3.55,3.55,0,0,0,220.05,337.15Z" transform="translate(-5.39 -4.38)"/><path class="cls-1" d="M242.57,354.34a4.3,4.3,0,0,0,2.43-.82,2.59,2.59,0,0,0,1-2,2.37,2.37,0,0,0-1-1.92,3.93,3.93,0,0,0-4.7-.1,2.47,2.47,0,0,0-1.1,2,2.39,2.39,0,0,0,1,1.93A3.86,3.86,0,0,0,242.57,354.34Z" transform="translate(-5.39 -4.38)"/><path class="cls-1" d="M253.54,331.6a3.51,3.51,0,0,0-2.36.73,2.47,2.47,0,0,0-1.1,2,2.39,2.39,0,0,0,1,1.93,3.8,3.8,0,0,0,2.36.87,4.29,4.29,0,0,0,2.43-.81,2.61,2.61,0,0,0,1-2,2.33,2.33,0,0,0-1-1.91A3.59,3.59,0,0,0,253.54,331.6Z" transform="translate(-5.39 -4.38)"/><path class="cls-1" d="M190.51,361.57a3.85,3.85,0,0,0,2.42-.81,2.59,2.59,0,0,0,1-2,2.55,2.55,0,0,0-1-1.93,4.2,4.2,0,0,0-4.78,0,2.42,2.42,0,0,0,0,3.92A3.79,3.79,0,0,0,190.51,361.57Z" transform="translate(-5.39 -4.38)"/><path class="cls-1" d="M170.36,373.17a3.71,3.71,0,0,0,2.36-.81,2.61,2.61,0,0,0,1-2,2.8,2.8,0,0,0-1-2,4.13,4.13,0,0,0-4.83,0,2.54,2.54,0,0,0-.93,2,2.64,2.64,0,0,0,1,2A4,4,0,0,0,170.36,373.17Z" transform="translate(-5.39 -4.38)"/><path class="cls-1" d="M191.13,370.48a2.49,2.49,0,0,0-.92,2,2.61,2.61,0,0,0,1,2,4,4,0,0,0,2.39.79,3.7,3.7,0,0,0,2.36-.82,2.59,2.59,0,0,0,1-2,2.78,2.78,0,0,0-.95-2A4.13,4.13,0,0,0,191.13,370.48Z" transform="translate(-5.39 -4.38)"/><path class="cls-1" d="M217.55,371.08a3.75,3.75,0,0,0,2.37-.82,2.61,2.61,0,0,0,1-2,2.81,2.81,0,0,0-.94-2,4.13,4.13,0,0,0-4.83,0,2.5,2.5,0,0,0-.93,2,2.64,2.64,0,0,0,1,2A4,4,0,0,0,217.55,371.08Z" transform="translate(-5.39 -4.38)"/><path class="cls-1" d="M221.78,349.47a2.66,2.66,0,0,0,1,2,4,4,0,0,0,2.39.78,3.75,3.75,0,0,0,2.37-.82,2.61,2.61,0,0,0,1-2,2.81,2.81,0,0,0-.94-2,4.13,4.13,0,0,0-4.83,0A2.5,2.5,0,0,0,221.78,349.47Z" transform="translate(-5.39 -4.38)"/><path class="cls-1" d="M288.58,296.59a3.64,3.64,0,0,0,2.31-.78,2.41,2.41,0,0,0,1-2,2.61,2.61,0,0,0-1-2,3.88,3.88,0,0,0-2.49-.78,3.58,3.58,0,0,0-2.3.78,2.61,2.61,0,0,0-1,2,2.54,2.54,0,0,0,1,1.93A3.85,3.85,0,0,0,288.58,296.59Z" transform="translate(-5.39 -4.38)"/><path class="cls-1" d="M286,320.44a3.71,3.71,0,0,0,2.39-.84,2.66,2.66,0,0,0,1-2,2.37,2.37,0,0,0-1-1.92,3.68,3.68,0,0,0-2.35-.83,3.76,3.76,0,0,0-2.39.76,2.68,2.68,0,0,0-1.06,2,2.47,2.47,0,0,0,.95,1.9A3.63,3.63,0,0,0,286,320.44Z" transform="translate(-5.39 -4.38)"/><path class="cls-1" d="M274.34,344.78a3.62,3.62,0,0,0,2.27-.75,2.35,2.35,0,0,0,1.15-2,2.6,2.6,0,0,0-1-2,4,4,0,0,0-2.54-.75A3.55,3.55,0,0,0,272,340a2.61,2.61,0,0,0-1,2,2.57,2.57,0,0,0,.92,1.93A3.89,3.89,0,0,0,274.34,344.78Z" transform="translate(-5.39 -4.38)"/><path class="cls-1" d="M308,253.57a3.57,3.57,0,0,0,2.26-.76,2.32,2.32,0,0,0,1.16-2,2.63,2.63,0,0,0-1-2,4.1,4.1,0,0,0-2.53-.75,3.62,3.62,0,0,0-2.23.77,2.47,2.47,0,0,0-.07,3.92A3.87,3.87,0,0,0,308,253.57Z" transform="translate(-5.39 -4.38)"/><path class="cls-1" d="M327.21,267.38a3.7,3.7,0,0,0,2.35-.81,2.59,2.59,0,0,0,1-2,2.45,2.45,0,0,0-1-1.92,3.67,3.67,0,0,0-2.4-.82h0a3.68,3.68,0,0,0-2.39.8,2.48,2.48,0,0,0-1,1.94,2.28,2.28,0,0,0,.91,1.86A3.41,3.41,0,0,0,327.21,267.38Z" transform="translate(-5.39 -4.38)"/><path class="cls-1" d="M320.1,290.08a3.72,3.72,0,0,0,2.36-.87,2.51,2.51,0,0,0,1-1.93,2.37,2.37,0,0,0-1-1.92,3.58,3.58,0,0,0-2.33-.81,3.52,3.52,0,0,0-2.4.74,2.66,2.66,0,0,0-1.07,2,2.41,2.41,0,0,0,1,1.93A4,4,0,0,0,320.1,290.08Z" transform="translate(-5.39 -4.38)"/><path class="cls-1" d="M207.79,60.05a71.47,71.47,0,0,1-9.42,8.14c-3.65,2.75-7.61,5.54-11.77,8.46-8.14,5.91-17.21,12.64-24,21.93s-9.93,21-8,31.38c1.64,10.49,7,19.76,14.05,27.42a76.31,76.31,0,0,0,25.83,18.19c-11.91-15.23-19.68-31.75-18.6-46.47A31.3,31.3,0,0,1,184.18,110c5-5.64,12.2-10.93,20.28-16.66C220,82.54,242,65.19,239.19,40.94a28.16,28.16,0,0,0-8.45-16,47.6,47.6,0,0,0-15.17-9.43C205,11.24,195.09,9.18,185.51,4.38c5.28,8.32,15.38,14,22.44,19.94,7.52,5.89,10.89,11.73,10,17.6C217.42,47.81,213.38,54.3,207.79,60.05Z" transform="translate(-5.39 -4.38)"/><path class="cls-1" d="M135.16,163.29c-8.92-9.83-15.4-20.58-17-31.5s2.5-21.31,11.2-29.27c9-8.24,21.27-16.26,29.92-27,4.3-5.33,8.11-11.72,7.92-18.81-.39-7.19-5.93-12.93-12.19-16.12,4.33,5.06,6.94,10.68,5.59,15.81S155.3,66,150.86,70.28c-9.27,8.57-20.77,15.4-31.73,25-5.31,5.15-9.58,11.31-11.63,18a33.78,33.78,0,0,0,.25,20.18C111.89,146.36,122.42,156.84,135.16,163.29Z" transform="translate(-5.39 -4.38)"/><path class="cls-1" d="M220.9,110.45a31.82,31.82,0,0,0-4.48,34.35c4.86,10.79,14.24,19.51,25.53,24.91-7.43-8.76-13.08-17.94-15.37-27.3a28.74,28.74,0,0,1,5.62-25.84c6.05-7.4,16.3-13.92,25.1-22.11,4.43-4.08,8.54-8.84,10.9-14.29a20.1,20.1,0,0,0-.09-16.47c-.82,11-8.79,18.31-18.19,24.61C240.62,94.79,229.35,100.42,220.9,110.45Z" transform="translate(-5.39 -4.38)"/><path class="cls-2" d="M519.91,217.28l-4.37-2.55a17.4,17.4,0,0,1-6.76-7.24,23.61,23.61,0,0,1-2.39-10.86V181.44a23.66,23.66,0,0,1,2.39-10.86,17.48,17.48,0,0,1,6.76-7.25,19.5,19.5,0,0,1,10.12-2.57,19,19,0,0,1,8.76,2,18.41,18.41,0,0,1,6.68,5.77,21.69,21.69,0,0,1,3.64,8.64h-8a12.31,12.31,0,0,0-2.42-4.63,12,12,0,0,0-4-3.14,11.2,11.2,0,0,0-10.66.53,10.93,10.93,0,0,0-4,4.59,15.8,15.8,0,0,0-1.4,6.88v15.19a15.83,15.83,0,0,0,1.4,6.86,10.7,10.7,0,0,0,4,4.59,10.84,10.84,0,0,0,5.94,1.62,11.22,11.22,0,0,0,8.7-4.08,12,12,0,0,0,2.42-4.8h8a21.62,21.62,0,0,1-3.66,8.65,18.65,18.65,0,0,1-6.7,5.77,18.94,18.94,0,0,1-8.72,2Z" transform="translate(-5.39 -4.38)"/><path class="cls-2" d="M561.38,215.26a13.34,13.34,0,0,1-5.58-5.88,20.8,20.8,0,0,1-1.92-9.32v-6.43a20.32,20.32,0,0,1,1.92-9.2,13.22,13.22,0,0,1,5.58-5.83,20.36,20.36,0,0,1,17.6,0,13.33,13.33,0,0,1,5.58,5.83,20.32,20.32,0,0,1,1.92,9.2v6.55a20.4,20.4,0,0,1-1.92,9.23,13.49,13.49,0,0,1-5.58,5.85,20.18,20.18,0,0,1-17.6,0Zm15.1-7.92q2.24-2.55,2.23-7.16v-6.55c0-3.08-.74-5.45-2.23-7.13a9.16,9.16,0,0,0-12.6,0c-1.49,1.68-2.23,4.05-2.23,7.13v6.55q0,4.6,2.23,7.16a9.06,9.06,0,0,0,12.6,0Z" transform="translate(-5.39 -4.38)"/><path class="cls-2" d="M605.29,206.5a3.48,3.48,0,0,0,.63,2.23,2.15,2.15,0,0,0,1.77.78h3.66v7.39h-4.57a8.64,8.64,0,0,1-6.84-2.75q-2.41-2.73-2.41-7.73V161.33h7.76Z" transform="translate(-5.39 -4.38)"/><path class="cls-2" d="M627.88,206.5a3.48,3.48,0,0,0,.63,2.23,2.15,2.15,0,0,0,1.77.78h3.65v7.39h-4.57a8.62,8.62,0,0,1-6.83-2.75q-2.41-2.73-2.42-7.73V161.33h7.77Z" transform="translate(-5.39 -4.38)"/><path class="cls-2" d="M653.4,217.28l-3.89-2.06a13.72,13.72,0,0,1-5.92-6,20.83,20.83,0,0,1-2-9.61v-4.46a23.44,23.44,0,0,1,2-10,14.09,14.09,0,0,1,5.7-6.32,17.65,17.65,0,0,1,9-2.17,14.25,14.25,0,0,1,8.45,2.48,15.31,15.31,0,0,1,5.35,7.16,30.64,30.64,0,0,1,1.85,11.23v2.59H647.19v-6.24h19.27a13.36,13.36,0,0,0-2.49-7.53,7,7,0,0,0-5.77-2.68,8.41,8.41,0,0,0-6.84,2.89q-2.42,2.9-2.42,8.19v5q0,4.92,2.59,7.54t7.35,2.63a12.36,12.36,0,0,0,4.69-.95,13.66,13.66,0,0,0,4.15-2.67l5.1,5.1a21.26,21.26,0,0,1-6.59,4.36,18.77,18.77,0,0,1-7.35,1.55Z" transform="translate(-5.39 -4.38)"/><path class="cls-2" d="M689.64,215.51A11.88,11.88,0,0,1,685,210a21.29,21.29,0,0,1-1.6-8.68V192.6a22,22,0,0,1,1.56-8.72,11.84,11.84,0,0,1,4.55-5.51,13.27,13.27,0,0,1,7.18-1.88,11.82,11.82,0,0,1,6.42,1.83,13.39,13.39,0,0,1,4.7,5.14l-.8,8.07a9.35,9.35,0,0,0-.91-4.3,6.24,6.24,0,0,0-2.65-2.73,8.76,8.76,0,0,0-4.21-.93,7.53,7.53,0,0,0-6,2.4,9.91,9.91,0,0,0-2.11,6.74v8.61a9.6,9.6,0,0,0,2.11,6.64,7.6,7.6,0,0,0,6,2.35,8.54,8.54,0,0,0,4.21-1,6.41,6.41,0,0,0,2.65-2.8,9.7,9.7,0,0,0,.91-4.38l.54,8.34a11.3,11.3,0,0,1-3.87,4.91,10.82,10.82,0,0,1-6.61,2A13.91,13.91,0,0,1,689.64,215.51Zm3.67,17.27-3.52-1.66a12.85,12.85,0,0,1-5.47-4.66l5.26-4.76a10.85,10.85,0,0,0,3.64,3.23,9.2,9.2,0,0,0,4.43,1.15,9.3,9.3,0,0,0,6.9-2.46,9.47,9.47,0,0,0,2.43-7v-39.5h7.77v38.36a20.08,20.08,0,0,1-2,9.33,13.5,13.5,0,0,1-5.8,5.9,19.33,19.33,0,0,1-9.18,2Z" transform="translate(-5.39 -4.38)"/><path class="cls-2" d="M737.26,217.28l-3.88-2.06a13.67,13.67,0,0,1-5.92-6,20.83,20.83,0,0,1-2-9.61v-4.46a23.29,23.29,0,0,1,2-10,14.07,14.07,0,0,1,5.69-6.32,17.68,17.68,0,0,1,9-2.17,14.31,14.31,0,0,1,8.46,2.48,15.37,15.37,0,0,1,5.35,7.16,30.65,30.65,0,0,1,1.84,11.23v2.59H731.05v-6.24h19.28a13.29,13.29,0,0,0-2.5-7.53,7,7,0,0,0-5.77-2.68,8.43,8.43,0,0,0-6.84,2.89q-2.41,2.9-2.41,8.19v5q0,4.92,2.59,7.54t7.35,2.63a12.35,12.35,0,0,0,4.68-.95,13.66,13.66,0,0,0,4.15-2.67l5.11,5.1a21.38,21.38,0,0,1-6.59,4.36,18.77,18.77,0,0,1-7.35,1.55Z" transform="translate(-5.39 -4.38)"/><path class="cls-2" d="M802.47,217.28l-4.36-2.55a17.36,17.36,0,0,1-6.77-7.24A23.61,23.61,0,0,1,789,196.63V181.44a23.66,23.66,0,0,1,2.39-10.86,17.44,17.44,0,0,1,6.77-7.25,19.44,19.44,0,0,1,10.11-2.57,19,19,0,0,1,8.76,2,18.41,18.41,0,0,1,6.68,5.77,21.69,21.69,0,0,1,3.64,8.64h-8a12.31,12.31,0,0,0-2.42-4.63,12,12,0,0,0-4-3.14,11.2,11.2,0,0,0-10.66.53,10.93,10.93,0,0,0-4,4.59,15.94,15.94,0,0,0-1.4,6.88v15.19a16,16,0,0,0,1.4,6.86,10.7,10.7,0,0,0,4,4.59,10.84,10.84,0,0,0,5.94,1.62,11.22,11.22,0,0,0,8.7-4.08,12,12,0,0,0,2.42-4.8h8a21.62,21.62,0,0,1-3.66,8.65,18.65,18.65,0,0,1-6.7,5.77,18.91,18.91,0,0,1-8.72,2Z" transform="translate(-5.39 -4.38)"/><path class="cls-2" d="M839.29,214.25q-3.62-3-3.61-9.2,0-5.87,3.31-8.8t10-2.93h11.23l.53,6.25H849a6.65,6.65,0,0,0-4.55,1.35,5.29,5.29,0,0,0-1.5,4.13,5.12,5.12,0,0,0,2,4.46c1.33,1,3.36,1.45,6.07,1.45a17.45,17.45,0,0,0,6.65-1,3.13,3.13,0,0,0,2.19-3l.8,5.56a9.08,9.08,0,0,1-2.53,2.63,11,11,0,0,1-3.49,1.54,17.4,17.4,0,0,1-4.46.52Q842.92,217.28,839.29,214.25Zm20.61-22.6a8.31,8.31,0,0,0-2.08-6,7.76,7.76,0,0,0-5.88-2.15,15.18,15.18,0,0,0-4.63.72,13.79,13.79,0,0,0-4,2l-5.67-3.89a14.82,14.82,0,0,1,5.92-4.2,21.23,21.23,0,0,1,8.17-1.51,18.9,18.9,0,0,1,8.42,1.73,12.13,12.13,0,0,1,5.33,5,16.15,16.15,0,0,1,1.83,7.94v25.41H859.9Z" transform="translate(-5.39 -4.38)"/><path class="cls-2" d="M876.05,177.17h19.76v6.63H876.05Zm4.19-5.37q0-5.25,2.41-7.86t7.45-2.61h5.71v7.39h-5.56a1.89,1.89,0,0,0-1.67.84,3.76,3.76,0,0,0-.57,2.17v45h-7.77Z" transform="translate(-5.39 -4.38)"/><path class="cls-2" d="M913.37,217.28l-3.88-2.06a13.74,13.74,0,0,1-5.93-6,21,21,0,0,1-2-9.61v-4.46a23.29,23.29,0,0,1,2-10,14.07,14.07,0,0,1,5.69-6.32,17.68,17.68,0,0,1,9-2.17,14.31,14.31,0,0,1,8.46,2.48,15.37,15.37,0,0,1,5.35,7.16,30.65,30.65,0,0,1,1.84,11.23v2.59H907.16v-6.24h19.28a13.29,13.29,0,0,0-2.5-7.53,7,7,0,0,0-5.77-2.68,8.43,8.43,0,0,0-6.84,2.89q-2.42,2.9-2.41,8.19v5q0,4.92,2.59,7.54t7.35,2.63a12.35,12.35,0,0,0,4.68-.95,13.66,13.66,0,0,0,4.15-2.67l5.11,5.1a21.49,21.49,0,0,1-6.59,4.36,18.77,18.77,0,0,1-7.35,1.55Z" transform="translate(-5.39 -4.38)"/><path class="cls-2" d="M953.36,214.74a17.22,17.22,0,0,1-6.83-7.16,22.69,22.69,0,0,1-2.42-10.72V181.17a22.74,22.74,0,0,1,2.42-10.72,17.34,17.34,0,0,1,6.83-7.16,21.87,21.87,0,0,1,20.42,0,17.34,17.34,0,0,1,6.83,7.16A22.86,22.86,0,0,1,983,181.17v15.69a22.81,22.81,0,0,1-2.42,10.72,17.22,17.22,0,0,1-6.83,7.16,21.79,21.79,0,0,1-20.42,0Zm16.25-6.66a10.43,10.43,0,0,0,4-4.38,14.32,14.32,0,0,0,1.43-6.57V180.91a14.32,14.32,0,0,0-1.43-6.57,10.31,10.31,0,0,0-4-4.38,12.54,12.54,0,0,0-12.08,0,10.25,10.25,0,0,0-4,4.38,14.32,14.32,0,0,0-1.43,6.57v16.22a14.32,14.32,0,0,0,1.43,6.57,10.36,10.36,0,0,0,4,4.38,12.61,12.61,0,0,0,12.08,0Zm-6.15-6.72,4-5.14,20.64,16.22-4,5.18Z" transform="translate(-5.39 -4.38)"/><path class="cls-2" d="M1003.14,201.21a9.09,9.09,0,0,0,2.11,6.41,7.76,7.76,0,0,0,6,2.27,8.16,8.16,0,0,0,5.91-2,7.64,7.64,0,0,0,2.09-5.75l.54,8.26a11.48,11.48,0,0,1-4,4.92,11.23,11.23,0,0,1-6.75,2q-6.54,0-10.11-4.21t-3.56-11.86v-24h7.77Zm16.07-24h7.73v39.54h-7.73Z" transform="translate(-5.39 -4.38)"/><path class="cls-2" d="M1049.45,217.28l-3.88-2.06a13.74,13.74,0,0,1-5.93-6,21,21,0,0,1-2-9.61v-4.46a23.29,23.29,0,0,1,2-10,14.07,14.07,0,0,1,5.69-6.32,17.68,17.68,0,0,1,9-2.17,14.31,14.31,0,0,1,8.46,2.48,15.37,15.37,0,0,1,5.35,7.16,30.65,30.65,0,0,1,1.84,11.23v2.59h-26.66v-6.24h19.28a13.29,13.29,0,0,0-2.5-7.53,7,7,0,0,0-5.77-2.68,8.43,8.43,0,0,0-6.84,2.89q-2.42,2.9-2.41,8.19v5q0,4.92,2.59,7.54t7.35,2.63a12.35,12.35,0,0,0,4.68-.95,13.66,13.66,0,0,0,4.15-2.67l5.11,5.1a21.49,21.49,0,0,1-6.59,4.36,18.77,18.77,0,0,1-7.35,1.55Z" transform="translate(-5.39 -4.38)"/><path class="cls-2" d="M1080.57,177.17h7.77v39.54h-7.77Zm19.16,7.47a9.47,9.47,0,0,0-3.62-.65,7.72,7.72,0,0,0-5.73,2,7.63,7.63,0,0,0-2,5.65l-.8-7.61a14.57,14.57,0,0,1,4.72-5.51,11.21,11.21,0,0,1,6.4-2,14.5,14.5,0,0,1,4.89.78,10.88,10.88,0,0,1,3.83,2.31l-5.06,6.85A6.5,6.5,0,0,0,1099.73,184.64Z" transform="translate(-5.39 -4.38)"/><path class="cls-2" d="M1113.86,161.33h7.77v7.77h-7.77Zm0,15.84h7.77v39.54h-7.77Z" transform="translate(-5.39 -4.38)"/><path class="cls-2" d="M1135.15,214.25q-3.63-3-3.62-9.2,0-5.87,3.31-8.8t10-2.93h11.23l.54,6.25H1144.9a6.66,6.66,0,0,0-4.56,1.35,5.29,5.29,0,0,0-1.5,4.13,5.15,5.15,0,0,0,2,4.46c1.33,1,3.36,1.45,6.07,1.45a17.45,17.45,0,0,0,6.65-1,3.13,3.13,0,0,0,2.19-3l.8,5.56a9.08,9.08,0,0,1-2.53,2.63,11,11,0,0,1-3.49,1.54,17.37,17.37,0,0,1-4.45.52Q1138.76,217.28,1135.15,214.25Zm20.6-22.6a8.31,8.31,0,0,0-2.08-6,7.76,7.76,0,0,0-5.88-2.15,15.23,15.23,0,0,0-4.63.72,13.79,13.79,0,0,0-4,2l-5.67-3.89a14.82,14.82,0,0,1,5.92-4.2,21.27,21.27,0,0,1,8.17-1.51,18.9,18.9,0,0,1,8.42,1.73,12.13,12.13,0,0,1,5.33,5,16.15,16.15,0,0,1,1.83,7.94v25.41h-7.39Z" transform="translate(-5.39 -4.38)"/></svg>