<svg id="Layer_1" data-name="Layer 1" xmlns="http://www.w3.org/2000/svg" viewBox="0 0 966.19 363.62"><defs><style>.cls-1{fill:#6c3506;}.cls-2{fill:#603813;}</style></defs><title>Untitled-2</title><path class="cls-1" d="M623.68,298.84,640,295.42c10.87-2.26,22.53-7.19,33.71-14.24,13.1-8.26,23.84-18.45,30.23-28.7,6.5-10.43,7.74-19.76,3.48-26.26-5.72-8.73-20.6-11.42-39.23-6.22l-3.58,1-.84,3a185,185,0,0,1-31.19,63.09Zm52.43-69.22c9.68-2.16,17.39-1.22,19.4,1.84,1.5,2.3,1.46,7.85-3.61,16-5.5,8.81-14.88,17.68-26.42,25a107.67,107.67,0,0,1-11.46,6.3A195.88,195.88,0,0,0,676.11,229.62Z" transform="translate(-17.36 -0.38)"/><path class="cls-1" d="M377.7,312c33.95,33.54,78.32,52,124.93,52,44.58,0,87.29-17,120.64-47.92,2.52.1,5,.06,7.55-.09,17.56-1.05,37-7.82,54.89-19.06,39.06-24.64,57.1-60.67,41.95-83.82h0c-8-12.24-24-18.31-43.83-17,.4-3.25.73-6.51,1-9.73A18.52,18.52,0,0,0,678.27,171a22,22,0,0,0-14.5-5.32H341.5A22,22,0,0,0,327,171a18.65,18.65,0,0,0-6.58,15.49C324,234.43,344.33,279,377.7,312ZM336.89,178.57a7,7,0,0,1,4.61-1.81H663.77a7,7,0,0,1,4.62,1.82,8.61,8.61,0,0,1,2.89,7.15c-.41,5.37-1,10.84-1.91,16.25l-1.24,7.76,9.35-1.61c18-3.12,31.94.61,38.24,10.22h0c11.66,17.82-5.51,49.12-38.28,69.79-15.76,9.93-32.66,15.89-47.61,16.78a57.11,57.11,0,0,1-8.68-.11l-3.57-.33-2.33,2.24c-31.06,29.78-71,46.18-112.62,46.18C415,352.9,340.9,279.49,334,185.77A8.72,8.72,0,0,1,336.89,178.57Z" transform="translate(-17.36 -0.38)"/><path class="cls-1" d="M449.87,337.5a3.74,3.74,0,0,0,2.43-.82,2.48,2.48,0,0,0,1-1.93,2.59,2.59,0,0,0-1-2,4.05,4.05,0,0,0-4.8,0,2.59,2.59,0,0,0-1,2,2.49,2.49,0,0,0,1,1.93A3.8,3.8,0,0,0,449.87,337.5Z" transform="translate(-17.36 -0.38)"/><path class="cls-1" d="M475.91,326.92a3.74,3.74,0,0,0,2.43-.82,2.49,2.49,0,0,0,1-1.93,2.61,2.61,0,0,0-1-2,4,4,0,0,0-4.79,0,2.59,2.59,0,0,0-1,2,2.49,2.49,0,0,0,1,1.93A3.86,3.86,0,0,0,475.91,326.92Z" transform="translate(-17.36 -0.38)"/><path class="cls-1" d="M567.47,302.56a3.65,3.65,0,0,0,2.31-.79,2.47,2.47,0,0,0,1.11-2,2.77,2.77,0,0,0-1-2,4.11,4.11,0,0,0-2.54-.75,3.62,3.62,0,0,0-2.23.77,2.61,2.61,0,0,0-1.06,2,2.66,2.66,0,0,0,1,1.94A3.87,3.87,0,0,0,567.47,302.56Z" transform="translate(-17.36 -0.38)"/><path class="cls-1" d="M534.05,315.15a3.67,3.67,0,0,0,2.36-.81,2.68,2.68,0,0,0,1.06-2,2.36,2.36,0,0,0-1.06-1.94,3.92,3.92,0,0,0-4.77,0,2.49,2.49,0,0,0-1,1.94,2.56,2.56,0,0,0,1,1.89A3.55,3.55,0,0,0,534.05,315.15Z" transform="translate(-17.36 -0.38)"/><path class="cls-1" d="M556.57,332.34a4.3,4.3,0,0,0,2.43-.82,2.59,2.59,0,0,0,1-2,2.37,2.37,0,0,0-1-1.92,3.93,3.93,0,0,0-4.7-.1,2.47,2.47,0,0,0-1.1,2,2.39,2.39,0,0,0,1,1.93A3.86,3.86,0,0,0,556.57,332.34Z" transform="translate(-17.36 -0.38)"/><path class="cls-1" d="M567.54,309.6a3.51,3.51,0,0,0-2.36.73,2.47,2.47,0,0,0-1.1,2,2.39,2.39,0,0,0,1,1.93,3.8,3.8,0,0,0,2.36.87,4.29,4.29,0,0,0,2.43-.81,2.61,2.61,0,0,0,1-2,2.33,2.33,0,0,0-1-1.91A3.59,3.59,0,0,0,567.54,309.6Z" transform="translate(-17.36 -0.38)"/><path class="cls-1" d="M504.51,339.57a3.85,3.85,0,0,0,2.42-.81,2.59,2.59,0,0,0,1-2,2.55,2.55,0,0,0-1-1.93,4.2,4.2,0,0,0-4.78,0,2.42,2.42,0,0,0,0,3.92A3.79,3.79,0,0,0,504.51,339.57Z" transform="translate(-17.36 -0.38)"/><path class="cls-1" d="M484.36,351.17a3.71,3.71,0,0,0,2.36-.81,2.61,2.61,0,0,0,1-2,2.8,2.8,0,0,0-.95-2,4.13,4.13,0,0,0-4.83,0,2.54,2.54,0,0,0-.93,2,2.64,2.64,0,0,0,1,2A4,4,0,0,0,484.36,351.17Z" transform="translate(-17.36 -0.38)"/><path class="cls-1" d="M505.13,348.48a2.49,2.49,0,0,0-.92,2,2.61,2.61,0,0,0,1,2,4,4,0,0,0,2.39.79,3.7,3.7,0,0,0,2.36-.82,2.59,2.59,0,0,0,1-2,2.78,2.78,0,0,0-1-2A4.13,4.13,0,0,0,505.13,348.48Z" transform="translate(-17.36 -0.38)"/><path class="cls-1" d="M531.55,349.08a3.75,3.75,0,0,0,2.37-.82,2.61,2.61,0,0,0,1-2,2.81,2.81,0,0,0-.94-2,4.13,4.13,0,0,0-4.83,0,2.5,2.5,0,0,0-.93,2,2.64,2.64,0,0,0,1,2A4,4,0,0,0,531.55,349.08Z" transform="translate(-17.36 -0.38)"/><path class="cls-1" d="M535.78,327.47a2.66,2.66,0,0,0,1,2,4,4,0,0,0,2.39.78,3.75,3.75,0,0,0,2.37-.82,2.61,2.61,0,0,0,1-2,2.81,2.81,0,0,0-.94-2,4.13,4.13,0,0,0-4.83,0A2.5,2.5,0,0,0,535.78,327.47Z" transform="translate(-17.36 -0.38)"/><path class="cls-1" d="M602.58,274.59a3.64,3.64,0,0,0,2.31-.78,2.41,2.41,0,0,0,1-2,2.61,2.61,0,0,0-1-2,3.88,3.88,0,0,0-2.49-.78,3.58,3.58,0,0,0-2.3.78,2.61,2.61,0,0,0-1,2,2.54,2.54,0,0,0,1,1.93A3.85,3.85,0,0,0,602.58,274.59Z" transform="translate(-17.36 -0.38)"/><path class="cls-1" d="M600,298.44a3.71,3.71,0,0,0,2.39-.84,2.66,2.66,0,0,0,1-2,2.37,2.37,0,0,0-1-1.92,3.68,3.68,0,0,0-2.35-.83,3.76,3.76,0,0,0-2.39.76,2.68,2.68,0,0,0-1.06,2,2.47,2.47,0,0,0,1,1.9A3.63,3.63,0,0,0,600,298.44Z" transform="translate(-17.36 -0.38)"/><path class="cls-1" d="M588.34,322.78a3.62,3.62,0,0,0,2.27-.75,2.35,2.35,0,0,0,1.15-2,2.6,2.6,0,0,0-1-2,4,4,0,0,0-2.54-.75A3.55,3.55,0,0,0,586,318a2.61,2.61,0,0,0-1,2,2.57,2.57,0,0,0,.92,1.93A3.89,3.89,0,0,0,588.34,322.78Z" transform="translate(-17.36 -0.38)"/><path class="cls-1" d="M622,231.57a3.57,3.57,0,0,0,2.26-.76,2.32,2.32,0,0,0,1.16-2,2.63,2.63,0,0,0-1-2,4.1,4.1,0,0,0-2.53-.75,3.62,3.62,0,0,0-2.23.77,2.47,2.47,0,0,0-.07,3.92A3.87,3.87,0,0,0,622,231.57Z" transform="translate(-17.36 -0.38)"/><path class="cls-1" d="M641.21,245.38a3.7,3.7,0,0,0,2.35-.81,2.59,2.59,0,0,0,1-2,2.45,2.45,0,0,0-1-1.92,3.67,3.67,0,0,0-2.4-.82h0a3.68,3.68,0,0,0-2.39.8,2.48,2.48,0,0,0-1,1.94,2.28,2.28,0,0,0,.91,1.86A3.41,3.41,0,0,0,641.21,245.38Z" transform="translate(-17.36 -0.38)"/><path class="cls-1" d="M634.1,268.08a3.72,3.72,0,0,0,2.36-.87,2.51,2.51,0,0,0,1-1.93,2.37,2.37,0,0,0-1-1.92,3.58,3.58,0,0,0-2.33-.81,3.52,3.52,0,0,0-2.4.74,2.66,2.66,0,0,0-1.07,2,2.41,2.41,0,0,0,1,1.93A4,4,0,0,0,634.1,268.08Z" transform="translate(-17.36 -0.38)"/><path class="cls-1" d="M522.79,56.05a71.47,71.47,0,0,1-9.42,8.14c-3.65,2.75-7.61,5.54-11.77,8.46-8.14,5.91-17.21,12.64-24,21.93s-9.93,21-8,31.38c1.64,10.49,7,19.76,14,27.42a76.31,76.31,0,0,0,25.83,18.19c-11.91-15.23-19.68-31.75-18.6-46.47A31.3,31.3,0,0,1,499.18,106c5-5.64,12.2-10.93,20.28-16.66C535,78.54,557,61.19,554.19,36.94a28.16,28.16,0,0,0-8.45-16,47.6,47.6,0,0,0-15.17-9.43C520,7.24,510.09,5.18,500.51.38c5.28,8.32,15.38,14,22.44,19.94,7.52,5.89,10.89,11.73,10,17.6C532.42,43.81,528.38,50.3,522.79,56.05Z" transform="translate(-17.36 -0.38)"/><path class="cls-1" d="M450.16,169.29c-8.92-9.83-15.4-20.58-17-31.5s2.5-21.31,11.2-29.27c9-8.24,21.27-16.26,29.92-27,4.3-5.33,8.11-11.72,7.92-18.81-.39-7.19-5.93-12.93-12.19-16.12,4.33,5.06,6.94,10.68,5.59,15.81S470.3,72,465.86,76.28c-9.27,8.57-20.77,15.4-31.73,25-5.31,5.15-9.58,11.31-11.63,18a33.78,33.78,0,0,0,.25,20.18C426.89,152.36,437.42,162.84,450.16,169.29Z" transform="translate(-17.36 -0.38)"/><path class="cls-1" d="M535.9,110.45a31.82,31.82,0,0,0-4.48,34.35c4.86,10.79,14.24,19.51,25.53,24.91-7.43-8.76-13.08-17.94-15.37-27.3a28.74,28.74,0,0,1,5.62-25.84c6-7.4,16.3-13.92,25.1-22.11,4.43-4.08,8.54-8.84,10.9-14.29a20.1,20.1,0,0,0-.09-16.47c-.82,11-8.79,18.31-18.19,24.61C555.62,94.79,544.35,100.42,535.9,110.45Z" transform="translate(-17.36 -0.38)"/><path class="cls-2" d="M36.6,114.62,30.39,111a24.69,24.69,0,0,1-9.62-10.3,33.49,33.49,0,0,1-3.41-15.45V63.62a33.49,33.49,0,0,1,3.41-15.45,24.8,24.8,0,0,1,9.62-10.32,27.82,27.82,0,0,1,14.39-3.66,27,27,0,0,1,12.47,2.9,26.31,26.31,0,0,1,9.51,8.21,30.86,30.86,0,0,1,5.18,12.3H60.61A17.67,17.67,0,0,0,57.17,51a16.84,16.84,0,0,0-5.67-4.48,15.25,15.25,0,0,0-20.81,7.29,22.46,22.46,0,0,0-2,9.79V85.24a22.48,22.48,0,0,0,2,9.76,14.88,14.88,0,0,0,14.09,8.83,16.24,16.24,0,0,0,6.75-1.46A15.91,15.91,0,0,0,57.17,98a17.29,17.29,0,0,0,3.44-6.83H71.94a30.6,30.6,0,0,1-5.21,12.31,26.4,26.4,0,0,1-9.54,8.21,27,27,0,0,1-12.41,2.9Z" transform="translate(-17.36 -0.38)"/><path class="cls-2" d="M95.62,111.75a19,19,0,0,1-7.94-8.38,29.51,29.51,0,0,1-2.74-13.25V81a29,29,0,0,1,2.74-13.09,18.84,18.84,0,0,1,7.94-8.29,25.71,25.71,0,0,1,12.52-2.85,25.71,25.71,0,0,1,12.52,2.85,18.84,18.84,0,0,1,7.94,8.29A29,29,0,0,1,131.34,81v9.32a29.12,29.12,0,0,1-2.74,13.15,19,19,0,0,1-7.94,8.32,25.6,25.6,0,0,1-12.52,2.87A25.6,25.6,0,0,1,95.62,111.75Zm21.49-11.28q3.17-3.63,3.17-10.19V81q0-6.55-3.17-10.13t-9-3.58q-5.81,0-9,3.58T96,81v9.32q0,6.57,3.17,10.19t9,3.63Q113.95,104.1,117.11,100.47Z" transform="translate(-17.36 -0.38)"/><path class="cls-2" d="M158.11,99.28a4.93,4.93,0,0,0,.9,3.17,3,3,0,0,0,2.52,1.11h5.2v10.52h-6.5q-6.3,0-9.73-3.91t-3.44-11V35h11.05Z" transform="translate(-17.36 -0.38)"/><path class="cls-2" d="M190.25,99.28a4.93,4.93,0,0,0,.9,3.17,3,3,0,0,0,2.52,1.11h5.2v10.52h-6.5q-6.3,0-9.73-3.91t-3.44-11V35h11.05Z" transform="translate(-17.36 -0.38)"/><path class="cls-2" d="M226.57,114.62,221,111.69a19.5,19.5,0,0,1-8.43-8.59,29.76,29.76,0,0,1-2.9-13.68V83.08a33.18,33.18,0,0,1,2.79-14.26,20,20,0,0,1,8.1-9,25,25,0,0,1,12.8-3.09,20.33,20.33,0,0,1,12,3.53A21.87,21.87,0,0,1,253,70.45a43.59,43.59,0,0,1,2.63,16v3.69H217.73V81.23h27.43q-.49-6.89-3.55-10.7a10,10,0,0,0-8.21-3.82q-6.3,0-9.73,4.12t-3.45,11.65v7.15q0,7,3.69,10.73t10.46,3.74a17.54,17.54,0,0,0,6.67-1.35,19.23,19.23,0,0,0,5.9-3.79l7.27,7.26a30.7,30.7,0,0,1-9.38,6.2,26.59,26.59,0,0,1-10.46,2.2Z" transform="translate(-17.36 -0.38)"/><path class="cls-2" d="M278.14,112.1a16.9,16.9,0,0,1-6.64-7.83,30.44,30.44,0,0,1-2.28-12.36V79.5a31.25,31.25,0,0,1,2.22-12.41,16.81,16.81,0,0,1,6.48-7.84,18.84,18.84,0,0,1,10.22-2.68,16.89,16.89,0,0,1,9.13,2.6A19.29,19.29,0,0,1,304,66.49L302.82,78a13.23,13.23,0,0,0-1.3-6.12A8.87,8.87,0,0,0,297.76,68a12.56,12.56,0,0,0-6-1.33q-5.47,0-8.48,3.42t-3,9.59V91.91q0,6.12,3,9.46t8.48,3.33a12.11,12.11,0,0,0,6-1.38,9.08,9.08,0,0,0,3.76-4,13.74,13.74,0,0,0,1.3-6.23l.76,11.87a16,16,0,0,1-5.5,7,15.4,15.4,0,0,1-9.4,2.82A19.7,19.7,0,0,1,278.14,112.1Zm5.23,24.58-5-2.36a18.24,18.24,0,0,1-7.77-6.64l7.48-6.77a15.47,15.47,0,0,0,5.17,4.6,13.05,13.05,0,0,0,6.32,1.63q6.33,0,9.81-3.5t3.46-9.89V57.55h11.06v54.58A28.76,28.76,0,0,1,311,125.4a19.31,19.31,0,0,1-8.27,8.41,27.62,27.62,0,0,1-13.06,2.87Z" transform="translate(-17.36 -0.38)"/><path class="cls-2" d="M345.91,114.62l-5.53-2.93A19.53,19.53,0,0,1,332,103.1a29.63,29.63,0,0,1-2.9-13.68V83.08a33.18,33.18,0,0,1,2.79-14.26,20,20,0,0,1,8.1-9,25,25,0,0,1,12.79-3.09,20.29,20.29,0,0,1,12,3.53,21.82,21.82,0,0,1,7.62,10.19,43.59,43.59,0,0,1,2.63,16v3.69H337.08V81.23H364.5Q364,74.35,361,70.53a10,10,0,0,0-8.21-3.82q-6.28,0-9.73,4.12t-3.44,11.65v7.15q0,7,3.69,10.73t10.46,3.74a17.46,17.46,0,0,0,6.66-1.35A19.15,19.15,0,0,0,366.29,99l7.26,7.26a30.54,30.54,0,0,1-9.37,6.2,26.62,26.62,0,0,1-10.46,2.2Z" transform="translate(-17.36 -0.38)"/><path class="cls-2" d="M679.64,125.17a25.1,25.1,0,0,1-9.9-10.38,33,33,0,0,1-3.51-15.53V76.53A33,33,0,0,1,669.74,61a25.1,25.1,0,0,1,9.9-10.38,31.64,31.64,0,0,1,29.58,0A25.16,25.16,0,0,1,719.12,61a33,33,0,0,1,3.5,15.53V99.26a33,33,0,0,1-3.5,15.53,25.16,25.16,0,0,1-9.9,10.38,31.64,31.64,0,0,1-29.58,0Zm23.53-9.66a15,15,0,0,0,5.85-6.34,20.91,20.91,0,0,0,2.07-9.52V76.14A20.87,20.87,0,0,0,709,66.63a15,15,0,0,0-5.85-6.35,18.19,18.19,0,0,0-17.49,0,15,15,0,0,0-5.85,6.35,21,21,0,0,0-2.06,9.51V99.65a21,21,0,0,0,2.06,9.52,15,15,0,0,0,5.85,6.34,18.19,18.19,0,0,0,17.49,0Zm-8.91-9.74,5.85-7.45L730,121.83l-5.85,7.5Z" transform="translate(-17.36 -0.38)"/><path class="cls-2" d="M751.76,105.55q0,6,3.06,9.3t8.63,3.28q5.52,0,8.56-2.92t3-8.33l.77,12a16.54,16.54,0,0,1-5.73,7.12,16.28,16.28,0,0,1-9.77,2.87q-9.49,0-14.65-6.1t-5.16-17.19V70.74h11.26ZM775,70.74h11.2V128H775Z" transform="translate(-17.36 -0.38)"/><path class="cls-2" d="M818.85,128.84s-1.87-1-5.63-3a19.94,19.94,0,0,1-8.58-8.75,30.24,30.24,0,0,1-2.95-13.93V96.72a33.83,33.83,0,0,1,2.84-14.51,20.4,20.4,0,0,1,8.25-9.16,25.57,25.57,0,0,1,13-3.14,20.68,20.68,0,0,1,12.25,3.58,22.25,22.25,0,0,1,7.75,10.38,44.21,44.21,0,0,1,2.68,16.27v3.76H809.86V94.85h27.92q-.49-7-3.62-10.9a10.17,10.17,0,0,0-8.36-3.89c-4.26,0-7.57,1.4-9.9,4.19s-3.5,6.75-3.5,11.87v7.28c0,4.74,1.25,8.39,3.75,10.92s6.05,3.81,10.65,3.81a17.71,17.71,0,0,0,6.78-1.38,19.68,19.68,0,0,0,6-3.86l7.39,7.39a31,31,0,0,1-9.54,6.32,27.26,27.26,0,0,1-10.65,2.24Z" transform="translate(-17.36 -0.38)"/><path class="cls-2" d="M863.93,70.74h11.26V128H863.93Zm27.75,10.81a13.5,13.5,0,0,0-5.24-.94c-3.57,0-6.34,1-8.3,3s-2.95,4.7-2.95,8.2l-1.16-11a20.9,20.9,0,0,1,6.84-8,16.1,16.1,0,0,1,9.27-2.84A21.13,21.13,0,0,1,897.23,71a15.83,15.83,0,0,1,5.54,3.34l-7.33,9.93A9.47,9.47,0,0,0,891.68,81.55Z" transform="translate(-17.36 -0.38)"/><path class="cls-2" d="M912.15,47.78h11.26V59H912.15Zm0,23h11.26V128H912.15Z" transform="translate(-17.36 -0.38)"/><path class="cls-2" d="M943,124.45q-5.25-4.4-5.25-13.33c0-5.66,1.61-9.91,4.8-12.74s8-4.25,14.52-4.25h16.27l.78,9.05h-17q-4.41,0-6.59,2c-1.46,1.3-2.18,3.3-2.18,6,0,2.91,1,5.06,2.9,6.46s4.86,2.1,8.8,2.1q6.45,0,9.62-1.38t3.18-4.31l1.16,8.06a13.48,13.48,0,0,1-3.67,3.81,16.23,16.23,0,0,1-5.05,2.23,25.58,25.58,0,0,1-6.46.75Q948.24,128.84,943,124.45ZM972.85,91.7c0-3.75-1-6.66-3-8.74s-4.85-3.12-8.53-3.12a21.86,21.86,0,0,0-6.7,1,19.87,19.87,0,0,0-5.82,2.92l-8.22-5.63a21.46,21.46,0,0,1,8.58-6.09A30.81,30.81,0,0,1,961,69.91a27.21,27.21,0,0,1,12.2,2.51,17.4,17.4,0,0,1,7.72,7.28,23.34,23.34,0,0,1,2.65,11.51V128h-10.7Z" transform="translate(-17.36 -0.38)"/></svg>