<?xml version="1.0" encoding="UTF-8"?>
<svg width="104px" height="119px" viewBox="0 0 104 119" version="1.1" xmlns="http://www.w3.org/2000/svg" xmlns:xlink="http://www.w3.org/1999/xlink">
    <!-- Generator: Sketch 40.2 (33826) - http://www.bohemiancoding.com/sketch -->
    <title>real-time_previews_edits</title>
    <desc>Created with Sketch.</desc>
    <defs>
        <path d="M47.993577,0.483275061 C49.1016938,-0.161516032 50.899765,-0.160667203 52.006423,0.483275061 L97.993577,27.2422831 C99.1016938,27.8870742 100,29.4444382 100,30.726727 L100,84.2808404 C100,85.5604546 99.100235,87.1213421 97.993577,87.7652844 L52.006423,114.524292 C50.8983062,115.169083 49.100235,115.168235 47.993577,114.524292 L2.00642302,87.7652844 C0.898306184,87.1204933 2.75618954e-14,85.5631293 2.68692932e-14,84.2808404 L-2.05687145e-15,30.726727 C-2.748029e-15,29.4471129 0.899764954,27.8862253 2.00642302,27.2422831 L47.993577,0.483275061 Z" id="path-1"></path>
        <mask id="mask-2" maskContentUnits="userSpaceOnUse" maskUnits="objectBoundingBox" x="-2" y="-2" width="104" height="119.007567">
            <rect x="-2" y="-2" width="104" height="119.007567" fill="white"></rect>
            <use xlink:href="#path-1" fill="black"></use>
        </mask>
        <ellipse id="path-3" cx="27" cy="27" rx="27" ry="27"></ellipse>
        <mask id="mask-4" maskContentUnits="userSpaceOnUse" maskUnits="objectBoundingBox" x="-2" y="-2" width="58" height="58">
            <rect x="-2" y="-2" width="58" height="58" fill="white"></rect>
            <use xlink:href="#path-3" fill="black"></use>
        </mask>
        <ellipse id="path-5" cx="27" cy="27" rx="23" ry="23"></ellipse>
        <mask id="mask-6" maskContentUnits="userSpaceOnUse" maskUnits="objectBoundingBox" x="-1" y="-1" width="48" height="48">
            <rect x="3" y="3" width="48" height="48" fill="white"></rect>
            <use xlink:href="#path-5" fill="black"></use>
        </mask>
        <polygon id="path-7" points="18.4005648 20.316228 15.5970149 23.1197778 26.8112144 34.3339773 57.4999995 3.00000012 54.6964497 0.196450248 26.8112144 28.7268776"></polygon>
        <mask id="mask-8" maskContentUnits="userSpaceOnUse" maskUnits="objectBoundingBox" x="-1" y="-1" width="43.9029846" height="36.1375271">
            <rect x="14.5970149" y="-0.803549752" width="43.9029846" height="36.1375271" fill="white"></rect>
            <use xlink:href="#path-7" fill="black"></use>
        </mask>
    </defs>
    <g id="Features" stroke="none" stroke-width="1" fill="none" fill-rule="evenodd">
        <g id="Forums" transform="translate(-251.000000, -3915.000000)">
            <g id="real-time_previews_edits" transform="translate(253.000000, 3917.000000)">
                <g id="Polygon-1-Copy-3">
                    <use fill="#FFFFFF" fill-rule="evenodd" xlink:href="#path-1"></use>
                    <use stroke="#B868BB" mask="url(#mask-2)" stroke-width="4" xlink:href="#path-1"></use>
                </g>
                <g id="Group-2" transform="translate(23.000000, 31.000000)">
                    <g id="Oval-11">
                        <use fill="#FFFFFF" fill-rule="evenodd" xlink:href="#path-3"></use>
                        <use stroke="#B868BB" mask="url(#mask-4)" stroke-width="4" xlink:href="#path-3"></use>
                    </g>
                    <g id="Oval-11">
                        <use fill="#FFFFFF" fill-rule="evenodd" xlink:href="#path-5"></use>
                        <use stroke="#B868BB" mask="url(#mask-6)" stroke-width="2" xlink:href="#path-5"></use>
                    </g>
                    <path d="M26.271897,7.15200429 C26.271897,6.79693303 26.554717,6.50909091 26.9090728,6.50909091 C27.2609753,6.50909091 27.5462487,6.80135408 27.5462487,7.15200429 L27.5462487,8.41396113 C27.5462487,8.76903238 27.2634287,9.0568745 26.9090728,9.0568745 C26.5571704,9.0568745 26.271897,8.76461133 26.271897,8.41396113 L26.271897,7.15200429 Z M30.1930134,7.48893545 C30.2706588,7.12364228 30.624162,6.88927389 30.9882145,6.96665564 C31.3497465,7.04350163 31.5789152,7.40647457 31.5022365,7.76721942 L31.2262772,9.06550593 C31.1486317,9.43079911 30.7951286,9.6651675 30.4310761,9.58778575 C30.0695441,9.51093975 29.8403754,9.14796681 29.9170541,8.78722196 L30.1930134,7.48893545 Z M34.0638455,8.40533223 C34.2097657,8.06156597 34.6014935,7.89895516 34.9440923,8.04437969 C35.284319,8.18879736 35.4400187,8.58882892 35.2959155,8.92831489 L34.7773016,10.1500927 C34.6313814,10.493859 34.2396536,10.6564698 33.8970548,10.5110452 C33.5568281,10.3666276 33.4011284,9.966596 33.5452316,9.62711003 L34.0638455,8.40533223 Z M37.2975537,10.2475912 C37.5117582,9.94167553 37.9287345,9.86406296 38.2336112,10.0775399 C38.536377,10.2895388 38.6055031,10.7132005 38.3939658,11.0153071 L37.6326629,12.1025603 C37.4184585,12.4084759 37.0014821,12.4860885 36.6966055,12.2726116 C36.3938396,12.0606126 36.3247135,11.6369509 36.5362509,11.3348443 L37.2975537,10.2475912 Z M40.4569507,12.7111571 C40.725591,12.4517342 41.1497156,12.4551104 41.4082575,12.7228384 C41.6650093,12.9887127 41.6520269,13.4177804 41.3867314,13.6739733 L40.4319582,14.5959871 C40.1633178,14.8554101 39.7391933,14.8520338 39.4806514,14.5843059 C39.2238996,14.3184315 39.236882,13.8893638 39.5021774,13.6331709 L40.4569507,12.7111571 Z M42.944994,15.7844592 C43.2617009,15.5865588 43.6758554,15.6780417 43.8730837,15.993673 C44.0689466,16.3071191 43.9670397,16.7241115 43.654276,16.9195478 L42.5286694,17.6229049 C42.2119624,17.8208054 41.797808,17.7293225 41.6005797,17.4136912 C41.4047168,17.1002451 41.5066237,16.6832527 41.8193874,16.4878163 L42.944994,15.7844592 Z M44.7215866,19.1605825 C45.0725186,19.0328537 45.4586024,19.208445 45.5858974,19.5581851 C45.7123111,19.9055038 45.5259335,20.2921963 45.179371,20.4183347 L43.9321254,20.872295 C43.5811934,21.0000238 43.1951096,20.8244324 43.0678146,20.4746923 C42.941401,20.1273736 43.1277786,19.7406812 43.4743411,19.6145427 L44.7215866,19.1605825 Z M46.0921204,22.8567536 C46.4609766,22.7983325 46.8064625,23.044366 46.8646852,23.4119694 C46.9225047,23.7770277 46.665767,24.121053 46.3015035,24.1787467 L44.9905537,24.3863808 C44.6216975,24.4448019 44.2762115,24.1987684 44.2179889,23.8311649 C44.1601693,23.4661066 44.416907,23.1220813 44.7811705,23.0643876 L46.0921204,22.8567536 Z M46.1840964,26.9959731 C46.5570387,27.0155181 46.8438217,27.3280058 46.824343,27.6996814 C46.8049991,28.0687837 46.4823449,28.3519124 46.1140462,28.3326107 L44.7885742,28.2631457 C44.415632,28.2436006 44.128849,27.931113 44.1483277,27.5594373 C44.1676715,27.1903351 44.4903258,26.9072063 44.8586244,26.926508 L46.1840964,26.9959731 Z M45.7577551,30.9128701 C46.118484,31.0095271 46.3340303,31.3748117 46.2377015,31.7343154 C46.1420397,32.0913301 45.7675705,32.3011882 45.4113331,32.2057347 L44.1292684,31.8622065 C43.7685395,31.7655495 43.5529932,31.4002649 43.649322,31.0407612 C43.7449838,30.6837465 44.119453,30.4738884 44.4756904,30.5693419 L45.7577551,30.9128701 Z M44.5891987,34.4573465 C44.9248569,34.621058 45.0667434,35.0207594 44.903588,35.3552777 C44.7415621,35.6874799 44.3339301,35.8220302 44.0024512,35.6603571 L42.8094899,35.0785111 C42.4738317,34.9147996 42.3319452,34.5150982 42.4951006,34.1805799 C42.6571265,33.8483777 43.0647585,33.7138273 43.3962374,33.8755004 L44.5891987,34.4573465 Z M42.6929627,37.997302 C42.9872485,38.2272233 43.0429318,38.6476902 42.8137914,38.9409765 C42.5862375,39.2322322 42.1595386,39.2790908 41.868917,39.0520323 L40.8229975,38.2348704 C40.5287117,38.0049491 40.4730283,37.5844823 40.7021687,37.291196 C40.9297226,36.9999402 41.3564215,36.9530816 41.6470431,37.1801401 L42.6929627,37.997302 Z M40.0659437,40.8236989 C40.3109516,41.1055482 40.2853831,41.5289148 40.004491,41.7730906 C39.7255436,42.0155758 39.2977434,41.9801555 39.0557861,41.7018155 L38.1850049,40.7000963 C37.939997,40.4182469 37.9655656,39.9948804 38.2464576,39.7507046 C38.525405,39.5082194 38.9532052,39.5436397 39.1951625,39.8219797 L40.0659437,40.8236989 Z M37.0159698,43.2932896 C37.1970239,43.6199198 37.0839912,44.0287188 36.7584703,44.209158 C36.4352031,44.3883479 36.0241156,44.264757 35.8453158,43.9421936 L35.2018324,42.7813188 C35.0207782,42.4546885 35.1338109,42.0458895 35.4593319,41.8654503 C35.782599,41.6862604 36.1936865,41.8098513 36.3724863,42.1324147 L37.0159698,43.2932896 Z M33.2351956,45.0493559 C33.344383,45.4064918 33.1488262,45.7828567 32.7929033,45.8916733 C32.4394446,45.9997364 32.0630364,45.7933763 31.9552085,45.4406872 L31.5671462,44.1713925 C31.4579588,43.8142567 31.6535155,43.4378917 32.0094384,43.3290752 C32.3628971,43.221012 32.7393054,43.4273721 32.8471333,43.7800612 L33.2351956,45.0493559 Z M29.4054484,45.7629148 C29.444485,46.134323 29.1807074,46.4664591 28.8105606,46.5053631 C28.4429765,46.5439977 28.1128593,46.269607 28.0743088,45.9028232 L27.9355691,44.5828032 C27.8965325,44.211395 28.1603101,43.879259 28.5304569,43.840355 C28.898041,43.8017203 29.2281582,44.0761111 29.2667088,44.4428948 L29.4054484,45.7629148 Z M25.7622418,45.9028232 C25.7232052,46.2742314 25.3961368,46.5442671 25.02599,46.5053631 C24.6584059,46.4667284 24.3925516,46.1296985 24.4311021,45.7629148 L24.5698418,44.4428948 C24.6088784,44.0714866 24.9359468,43.801451 25.3060936,43.840355 C25.6736777,43.8789896 25.939532,44.2160195 25.9009815,44.5828032 L25.7622418,45.9028232 Z M21.6965566,45.4406872 C21.5873693,45.7978231 21.2147848,46.0004898 20.8588618,45.8916733 C20.5054031,45.7836101 20.3087417,45.402045 20.4165695,45.0493559 L20.8046319,43.7800612 C20.9138193,43.4229253 21.2864038,43.2202586 21.6423267,43.3290752 C21.9957854,43.4371383 22.1924469,43.8187034 22.084619,44.1713925 L21.6965566,45.4406872 Z M18.2129758,43.9421936 C18.0319217,44.2688239 17.6253423,44.3895972 17.2998214,44.209158 C16.9765542,44.0299681 16.8635221,43.6158529 17.0423219,43.2932896 L17.6858053,42.1324147 C17.8668594,41.8057844 18.2734388,41.6850111 18.5989598,41.8654503 C18.9222269,42.0446402 19.0352591,42.4587554 18.8564593,42.7813188 L18.2129758,43.9421936 Z M14.6638939,41.7018155 C14.4188861,41.9836649 13.9960812,42.0172664 13.7151891,41.7730906 C13.4362418,41.5306054 13.4117791,41.1020389 13.6537363,40.8236989 L14.5245176,39.8219797 C14.7695255,39.5401303 15.1923303,39.5065288 15.4732224,39.7507046 C15.7521697,39.9931898 15.7766325,40.4217563 15.5346752,40.7000963 L14.6638939,41.7018155 Z M12.0183681,39.0520323 C11.7240823,39.2819536 11.3026341,39.2342628 11.0734937,38.9409765 C10.8459398,38.6497207 10.9037009,38.2243605 11.1943225,37.997302 L12.240242,37.1801401 C12.5345278,36.9502188 12.9559761,36.9979097 13.1851164,37.291196 C13.4126703,37.5824517 13.3549093,38.0078119 13.0642877,38.2348704 L12.0183681,39.0520323 Z M9.62591969,35.6603571 C9.29026142,35.8240686 8.88793834,35.6897959 8.72478288,35.3552777 C8.56275704,35.0230755 8.70769326,34.6190196 9.0391722,34.4573465 L10.2321334,33.8755004 C10.5677917,33.7117889 10.9701148,33.8460616 11.1332702,34.1805799 C11.2952961,34.5127821 11.1503599,34.916838 10.8188809,35.0785111 L9.62591969,35.6603571 Z M8.15666948,32.2057347 C7.79594058,32.3023917 7.42662975,32.0938192 7.33030101,31.7343154 C7.2346392,31.3773007 7.45401004,31.0083236 7.81024745,30.9128701 L9.0923121,30.5693419 C9.45304101,30.4726849 9.82235184,30.6812574 9.91868058,31.0407612 C10.0143424,31.3977759 9.79497155,31.766753 9.43873414,31.8622065 L8.15666948,32.2057347 Z M7.58383977,28.3326107 C7.21089753,28.3521558 6.8930217,28.071357 6.87354301,27.6996814 C6.85419918,27.3305791 7.14549088,27.0152748 7.51378956,26.9959731 L8.83926155,26.926508 C9.21220378,26.9069629 9.53007961,27.1877617 9.54955831,27.5594373 C9.56890214,27.9285396 9.27761043,28.2438439 8.90931176,28.2631457 L7.58383977,28.3326107 Z M7.50638585,24.1787467 C7.13752964,24.1203256 6.88498152,23.7795729 6.94320419,23.4119694 C7.00102374,23.0469111 7.35150548,22.7990599 7.71576899,22.8567536 L9.02671884,23.0643876 C9.39557504,23.1228087 9.64812317,23.4635615 9.5899005,23.8311649 C9.53208094,24.1962232 9.18159921,24.4440744 8.81733569,24.3863808 L7.50638585,24.1787467 Z M8.42967172,20.4183347 C8.07873971,20.2906059 7.8958503,19.9079253 8.0231453,19.5581851 C8.14955896,19.2108665 8.5408936,19.0344441 8.88745609,19.1605825 L10.1347016,19.6145427 C10.4856337,19.7422715 10.6685231,20.1249522 10.5412281,20.4746923 C10.4148144,20.822011 10.0234798,20.9984334 9.67691728,20.872295 L8.42967172,20.4183347 Z M9.96059703,16.9195478 C9.64389005,16.7216474 9.54456099,16.3093044 9.74178934,15.993673 C9.93765218,15.6802269 10.3571155,15.5890228 10.6698791,15.7844592 L11.7954857,16.4878163 C12.1121927,16.6857168 12.2115218,17.0980598 12.0142934,17.4136912 C11.8184306,17.7271372 11.3989673,17.8183413 11.0862036,17.6229049 L9.96059703,16.9195478 Z M12.4222057,13.6739733 C12.1535653,13.4145503 12.1421378,12.9905663 12.4006797,12.7228384 C12.6574315,12.456964 13.086691,12.4549643 13.3519864,12.7111571 L14.3067597,13.6331709 C14.5754,13.8925939 14.5868276,14.3165779 14.3282857,14.5843059 C14.0715338,14.8501802 13.6422744,14.85218 13.3769789,14.5959871 L12.4222057,13.6739733 Z M15.1908614,11.0153071 C14.9766569,10.7093915 15.0463393,10.2910168 15.3512159,10.0775399 C15.6539818,9.86554098 16.0757361,9.94548453 16.2872734,10.2475912 L17.0485763,11.3348443 C17.2627807,11.6407599 17.1930983,12.0591346 16.8882217,12.2726116 C16.5854558,12.4846105 16.1637015,12.4046669 15.9521642,12.1025603 L15.1908614,11.0153071 Z M18.5716002,8.92831489 C18.4256801,8.58454863 18.5808247,8.18980421 18.9234234,8.04437969 C19.2636501,7.89996201 19.6595669,8.06584626 19.8036701,8.40533223 L20.322284,9.62711003 C20.4682041,9.97087629 20.3130595,10.3656207 19.9704608,10.5110452 C19.6302341,10.6554629 19.2343173,10.4895787 19.0902141,10.1500927 L18.5716002,8.92831489 Z M22.2709444,7.76721942 C22.1932989,7.40192625 22.4209139,7.04403739 22.7849664,6.96665564 C23.1464984,6.88980964 23.5034888,7.1281906 23.5801675,7.48893545 L23.8561269,8.78722196 C23.9337723,9.15251514 23.7061573,9.510404 23.3421048,9.58778575 C22.9805728,9.66463174 22.6235824,9.42625078 22.5469037,9.06550593 L22.2709444,7.76721942 Z" id="Rectangle-31" fill="#B768BB"></path>
                    <g id="Shape">
                        <use fill="#FFFFFF" fill-rule="evenodd" xlink:href="#path-7"></use>
                        <use stroke="#B868BB" mask="url(#mask-8)" stroke-width="2" xlink:href="#path-7"></use>
                    </g>
                </g>
            </g>
        </g>
    </g>
</svg>