<?xml version="1.0" encoding="UTF-8"?>
<svg width="104px" height="119px" viewBox="0 0 104 119" version="1.1" xmlns="http://www.w3.org/2000/svg" xmlns:xlink="http://www.w3.org/1999/xlink">
    <!-- Generator: Sketch 40.2 (33826) - http://www.bohemiancoding.com/sketch -->
    <title>private_communities</title>
    <desc>Created with Sketch.</desc>
    <defs>
        <path d="M47.993577,1.47949134 C49.1016938,0.834700243 50.899765,0.835549072 52.006423,1.47949134 L97.993577,28.2384993 C99.1016938,28.8832904 100,30.4406544 100,31.7229433 L100,85.2770567 C100,86.5566709 99.100235,88.1175584 97.993577,88.7615007 L52.006423,115.520509 C50.8983062,116.1653 49.100235,116.164451 47.993577,115.520509 L2.00642302,88.7615007 C0.898306184,88.1167096 2.75618954e-14,86.5593456 2.68692932e-14,85.2770567 L-2.05687145e-15,31.7229433 C-2.748029e-15,30.4433291 0.899764954,28.8824416 2.00642302,28.2384993 L47.993577,1.47949134 Z" id="path-1"></path>
        <mask id="mask-2" maskContentUnits="userSpaceOnUse" maskUnits="objectBoundingBox" x="-2" y="-2" width="104" height="119.007567">
            <rect x="-2" y="-1.00378373" width="104" height="119.007567" fill="white"></rect>
            <use xlink:href="#path-1" fill="black"></use>
        </mask>
        <path d="M59.6276877,81.00442 C56.7259215,81.6529776 53.6641913,82 50.5,82 C31.9984609,82 17,70.1355459 17,55.5 C17,40.8644541 31.9984609,29 50.5,29 C69.0015391,29 84,40.8644541 84,55.5 C84,64.3265541 78.5447932,72.1452129 70.1559449,76.9613053 C69.780959,78.5685213 69.4745584,80.1517105 69.3836144,81.3346326 C69.1394735,84.5102123 70.479453,90.6403234 70.479453,90.6403234 L59.6276877,81.00442 Z" id="path-3"></path>
        <mask id="mask-4" maskContentUnits="userSpaceOnUse" maskUnits="objectBoundingBox" x="0" y="0" width="67" height="61.6403234" fill="white">
            <use xlink:href="#path-3"></use>
        </mask>
        <rect id="path-5" x="0" y="11" width="19" height="17" rx="2"></rect>
        <mask id="mask-6" maskContentUnits="userSpaceOnUse" maskUnits="objectBoundingBox" x="-1" y="-1" width="21" height="19">
            <rect x="-1" y="10" width="21" height="19" fill="white"></rect>
            <use xlink:href="#path-5" fill="black"></use>
        </mask>
    </defs>
    <g id="Features" stroke="none" stroke-width="1" fill="none" fill-rule="evenodd">
        <g id="Permissions" transform="translate(-668.000000, -1876.000000)">
            <g id="private_communities" transform="translate(670.000000, 1877.000000)">
                <g id="Polygon-1-Copy-9">
                    <use fill="#FFFFFF" fill-rule="evenodd" xlink:href="#path-1"></use>
                    <use stroke="#F15854" mask="url(#mask-2)" stroke-width="4" xlink:href="#path-1"></use>
                </g>
                <use id="Combined-Shape" stroke="#F15854" mask="url(#mask-4)" stroke-width="4.65116279" stroke-linejoin="round" fill="#FFFFFF" xlink:href="#path-3"></use>
                <g id="Group-5" transform="translate(41.000000, 41.000000)">
                    <g id="Rectangle-22">
                        <use fill="#FFFFFF" fill-rule="evenodd" xlink:href="#path-5"></use>
                        <use stroke="#F15854" mask="url(#mask-6)" stroke-width="2" xlink:href="#path-5"></use>
                    </g>
                    <circle id="Oval-58" fill="#F15854" cx="9.5" cy="16.5" r="2.5"></circle>
                    <polygon id="Rectangle-23" fill="#F15854" points="8.5 16 10.5 16 11 24 8 24"></polygon>
                    <path d="M4,10 L4,5.56324815 C4,2.49075104 6.461766,0 9.5,0 C12.5375661,0 15,2.48502028 15,5.56324815 L15,10" id="Rectangle-23" stroke="#F15854" stroke-width="2" fill="#FFFFFF"></path>
                </g>
            </g>
        </g>
    </g>
</svg>