<?xml version="1.0" encoding="UTF-8" standalone="no"?>
<svg width="104px" height="119px" viewBox="0 0 104 119" version="1.1" xmlns="http://www.w3.org/2000/svg" xmlns:xlink="http://www.w3.org/1999/xlink">
    <!-- Generator: Sketch 40.1 (33804) - http://www.bohemiancoding.com/sketch -->
    <title>social_logins</title>
    <desc>Created with Sketch.</desc>
    <defs>
        <path d="M47.993577,0.483275061 C49.1016938,-0.161516032 50.899765,-0.160667203 52.006423,0.483275061 L97.993577,27.2422831 C99.1016938,27.8870742 100,29.4444382 100,30.726727 L100,84.2808404 C100,85.5604546 99.100235,87.1213421 97.993577,87.7652844 L52.006423,114.524292 C50.8983062,115.169083 49.100235,115.168235 47.993577,114.524292 L2.00642302,87.7652844 C0.898306184,87.1204933 2.75618954e-14,85.5631293 2.68692932e-14,84.2808404 L-2.05687145e-15,30.726727 C-2.748029e-15,29.4471129 0.899764954,27.8862253 2.00642302,27.2422831 L47.993577,0.483275061 Z" id="path-1"></path>
        <mask id="mask-2" maskContentUnits="userSpaceOnUse" maskUnits="objectBoundingBox" x="-2" y="-2" width="104" height="119.007567">
            <rect x="-2" y="-2" width="104" height="119.007567" fill="white"></rect>
            <use xlink:href="#path-1" fill="black"></use>
        </mask>
        <path d="M62,4.36764175 C61.1181546,4.76923077 60.1686917,5.04080896 59.1727417,5.1621524 C60.1898222,4.5381004 60.9702412,3.54857349 61.3379116,2.3698086 C60.3856313,2.94763453 59.3333333,3.36800289 58.2091918,3.593355 C57.3132594,2.61249549 56.0327522,2 54.6156013,2 C51.8982215,2 49.693608,4.26074395 49.693608,7.04875406 C49.693608,7.44456482 49.735869,7.82881907 49.8203909,8.19862766 C45.7281211,7.9877212 42.100722,5.97977609 39.6707167,2.92163236 C39.2466984,3.66991694 39.0044022,4.5381004 39.0044022,5.46262189 C39.0044022,7.21343445 39.8735693,8.75911882 41.1949287,9.66486096 C40.389153,9.64030336 39.6284557,9.41061755 38.9635499,9.0350307 L38.9635499,9.09714698 C38.9635499,11.5442398 40.6610319,13.5854099 42.9149498,14.0476706 C42.5022011,14.166125 42.0669132,14.2253521 41.6175383,14.2253521 C41.3005811,14.2253521 40.9906674,14.1950163 40.6906145,14.1357891 C41.3174855,16.1408451 43.1347068,17.6013001 45.2900158,17.6403034 C43.6052122,18.9953052 41.4808945,19.8028169 39.1748547,19.8028169 C38.7776017,19.8028169 38.3845747,19.7797039 38,19.7334778 C40.1792569,21.163597 42.7684451,22 45.5478077,22 C54.6057404,22 59.5573164,14.3076923 59.5573164,7.63524738 C59.5573164,7.41567353 59.5530903,7.19609967 59.5446381,6.98085952 C60.5067794,6.26868906 61.3421377,5.38028169 62,4.36764175 L62,4.36764175 Z" id="path-3"></path>
        <mask id="mask-4" maskContentUnits="userSpaceOnUse" maskUnits="objectBoundingBox" x="-2" y="-2" width="28" height="24">
            <rect x="36" y="0" width="28" height="24" fill="white"></rect>
            <use xlink:href="#path-3" fill="black"></use>
        </mask>
        <path d="M24.1855346,42.6863186 L24.1855346,39.8667867 L22.1752022,39.8667867 L22.1752022,42.6863186 L19.2803235,42.6863186 L19.2803235,44.70027 L22.1752022,44.70027 L22.1752022,47.60036 L24.1855346,47.60036 L24.1855346,44.70027 L27,44.70027 L27,42.6863186 L24.1855346,42.6863186 L24.1855346,42.6863186 L24.1855346,42.6863186 Z M9.55031447,42.5252025 L9.55031447,45.7475248 C9.55031447,45.7475248 12.6706721,45.7433357 13.9412022,45.7433357 C13.253186,47.8322867 12.1833675,48.969847 9.55031447,48.969847 C6.88565903,48.969847 4.80592992,46.8058159 4.80592992,44.1363636 C4.80592992,41.4669113 6.88565903,39.3028803 9.55031447,39.3028803 C10.9591554,39.3028803 11.8690319,39.7989568 12.7036415,40.4903866 C13.3717152,39.8211103 13.3159084,39.7257295 15.0156042,38.1177102 C13.5727484,36.802036 11.6550521,36 9.55031447,36 C5.06478032,36 1.42857143,39.6427547 1.42857143,44.1363636 C1.42857143,48.629892 5.06478032,52.2727273 9.55031447,52.2727273 C16.254934,52.2727273 17.8936765,46.4242124 17.3504043,42.5252025 L9.55031447,42.5252025 L9.55031447,42.5252025 L9.55031447,42.5252025 Z" id="path-5"></path>
        <mask id="mask-6" maskContentUnits="userSpaceOnUse" maskUnits="objectBoundingBox" x="-2" y="-2" width="29.5714286" height="20.2727273">
            <rect x="-0.571428571" y="34" width="29.5714286" height="20.2727273" fill="white"></rect>
            <use xlink:href="#path-5" fill="black"></use>
        </mask>
        <path d="M62,51.3333333 L56.6666667,51.3333333 L56.6666667,43.3333333 C56.6491103,41.8481312 55.8120996,40.5048393 54,40.6666667 C52.5637011,40.5048393 51.7807829,41.4113217 51.3333333,42 C51.2797153,42.5985124 51.3010676,43.0353219 51.3333333,43.3333333 L51.3333333,51.3333333 L46,51.3333333 C46,51.3333333 46.0683274,38.0168052 46,36.6666667 L51.3333333,36.6666667 L51.3333333,39.3333333 C51.6142349,38.0893785 53.3081851,36.6666667 56.6666667,36.6666667 C59.3651246,36.6666667 62,38.7562319 62,43.3333333 L62,51.3333333 L62,51.3333333 L62,51.3333333 Z M40.6666667,35.3333333 L40.6666667,35.3333333 C39.0311465,35.3333333 38,34.1582903 38,32.6666667 C38,31.150412 39.0616302,30 40.6666667,30 C42.3048376,30 43.3015242,31.1475143 43.3333333,32.6666667 C43.3333333,34.1539437 42.3048376,35.3333333 40.6666667,35.3333333 L40.6666667,35.3333333 L40.6666667,35.3333333 L40.6666667,35.3333333 Z M38,36.6666667 L43.3333333,36.6666667 L43.3333333,51.3333333 L38,51.3333333 L38,36.6666667 L38,36.6666667 L38,36.6666667 Z" id="path-7"></path>
        <mask id="mask-8" maskContentUnits="userSpaceOnUse" maskUnits="objectBoundingBox" x="-2" y="-2" width="28" height="25.3333333">
            <rect x="36" y="28" width="28" height="25.3333333" fill="white"></rect>
            <use xlink:href="#path-7" fill="black"></use>
        </mask>
    </defs>
    <g id="Features" stroke="none" stroke-width="1" fill="none" fill-rule="evenodd">
        <g id="Integrations" transform="translate(-1084.000000, -2992.000000)">
            <g id="social_logins" transform="translate(1086.000000, 2994.000000)">
                <g id="Polygon-1-Copy-3">
                    <use fill="#FFFFFF" fill-rule="evenodd" xlink:href="#path-1"></use>
                    <use stroke="#57C1C2" mask="url(#mask-2)" stroke-width="4" xlink:href="#path-1"></use>
                </g>
                <g id="Group-216" transform="translate(19.000000, 31.000000)">
                    <path d="M12.8191776,24 L1.32461576,24 C0.592836328,24 0,23.4067958 0,22.6753014 L0,1.32460548 C0,0.592924852 0.592929454,0 1.32461576,0 L22.6754774,0 C23.4069774,0 24,0.592924852 24,1.32460548 L24,22.6753014 C24,23.4068889 23.4068843,24 22.6754774,24 L16.5596526,24 L16.5596526,14.7058773 L19.6792606,14.7058773 L20.1463776,11.0837928 L16.5596526,11.0837928 L16.5596526,8.7713207 C16.5596526,7.72264365 16.8508558,7.00800484 18.3546448,7.00800484 L20.2726557,7.00716672 L20.2726557,3.76754527 C19.940943,3.72340417 18.8023918,3.62478513 17.477776,3.62478513 C14.7124171,3.62478513 12.8191776,5.31276313 12.8191776,8.41260443 L12.8191776,11.0837928 L9.6915609,11.0837928 L9.6915609,14.7058773 L12.8191776,14.7058773 L12.8191776,24 L12.8191776,24 Z" id="Facebook" stroke="#57C1C2" stroke-width="2" stroke-linejoin="round" fill="#FFFFFF"></path>
                    <g id="Twitter">
                        <use fill="#FFFFFF" fill-rule="evenodd" xlink:href="#path-3"></use>
                        <use stroke="#57C1C2" mask="url(#mask-4)" stroke-width="4" stroke-linejoin="round" xlink:href="#path-3"></use>
                    </g>
                    <g id="GooglePlus">
                        <use fill="#FFFFFF" fill-rule="evenodd" xlink:href="#path-5"></use>
                        <use stroke="#57C1C2" mask="url(#mask-6)" stroke-width="4" stroke-linejoin="round" xlink:href="#path-5"></use>
                    </g>
                    <g id="LinkedIn">
                        <use fill="#FFFFFF" fill-rule="evenodd" xlink:href="#path-7"></use>
                        <use stroke="#57C1C2" mask="url(#mask-8)" stroke-width="4" stroke-linejoin="round" xlink:href="#path-7"></use>
                    </g>
                </g>
            </g>
        </g>
    </g>
</svg>